<svg version="1.1" xmlns="http://www.w3.org/2000/svg" viewBox="9.37 15.62 81.28 65.67">
 <path d="m70.562 16.219c-0.8125-0.58984-1.8594-0.75-2.8125-0.4375l-37 12.344h-12c-5.1758 0-9.375 4.1992-9.375 9.375v12.5c0 5.1758 4.1992 9.375 9.375 9.375h3.125v12.5c0 5.1758 4.1992 9.375 9.375 9.375h6.25c0.82812 0 1.625-0.32812 2.2109-0.91406 0.58594-0.58594 0.91406-1.3828 0.91406-2.2109v-15.188l27.156 8.9375c0.97656 0.32031 2.0508 0.13672 2.8672-0.48438 0.82031-0.625 1.2773-1.6133 1.2266-2.6406v-50c-0.003906-1.0039-0.49219-1.9492-1.3125-2.5312zm-54.938 33.781v-12.5c0-1.7266 1.3984-3.125 3.125-3.125h9.375v18.75h-9.375c-1.7266 0-3.125-1.3984-3.125-3.125zm18.75 25h-3.125c-1.7266 0-3.125-1.3984-3.125-3.125v-12.5h2.5312l3.7188 1.4375zm31.25-10.531-27-8.7188-4.25-1.6562v-20.594l31.25-10.406zm12.906-41.031c-0.41797-0.71875-0.53125-1.5781-0.3125-2.3828 0.21484-0.80078 0.74609-1.4844 1.4688-1.8984l5.4062-3.125c1.4844-0.77734 3.3164-0.24609 4.1523 1.207 0.83984 1.4492 0.38672 3.3008-1.0273 4.1992l-5.4062 3.125c-0.71875 0.41797-1.5781 0.53125-2.3828 0.3125-0.80078-0.21484-1.4844-0.74609-1.8984-1.4688zm10.812 46.875c-0.41406 0.72266-1.0977 1.2539-1.8984 1.4688-0.80469 0.21875-1.6641 0.10547-2.3828-0.3125l-5.4062-3.125c-0.75391-0.39453-1.3164-1.082-1.5547-1.8984-0.23437-0.81641-0.12891-1.6953 0.29688-2.4336 0.42578-0.73828 1.1367-1.2695 1.9609-1.4727 0.82812-0.20312 1.7031-0.058593 2.4219 0.39844l5.4062 3.125c1.5 0.84766 2.0312 2.75 1.1875 4.25zm1.2812-26.562c0 0.82812-0.32812 1.625-0.91406 2.2109-0.58594 0.58594-1.3828 0.91406-2.2109 0.91406h-6.25c-1.7266 0-3.125-1.3984-3.125-3.125s1.3984-3.125 3.125-3.125h6.25c0.82812 0 1.625 0.32812 2.2109 0.91406 0.58594 0.58594 0.91406 1.3828 0.91406 2.2109z" fill="#bebebe"/>
</svg>