<?xml version="1.0" standalone="no"?>
<!DOCTYPE svg PUBLIC "-//W3C//DTD SVG 1.1//EN" "http://www.w3.org/Graphics/SVG/1.1/DTD/svg11.dtd" >
<svg xmlns="http://www.w3.org/2000/svg" xmlns:xlink="http://www.w3.org/1999/xlink" version="1.1">
<metadata>
Created by FontForge 20161013 at Tue Dec 11 04:25:57 2007
 By ,,,
Copyright (c) 2007 Linotype Library GmbH and Carter &#38; Cone Type Inc.  All rights reserved.
</metadata>
<defs>
<font id="PrincetonMontiBD-Regular" horiz-adv-x="328" >
  <font-face 
    font-family="PrincetonMontiBD"
    font-weight="500"
    font-stretch="normal"
    units-per-em="1000"
    panose-1="2 0 5 5 8 0 0 2 0 4"
    ascent="740"
    descent="-260"
    x-height="446"
    cap-height="724"
    bbox="-194.389 -258 1147 972"
    underline-thickness="20"
    underline-position="-145"
    unicode-range="U+0020-FB02"
  />
<missing-glyph horiz-adv-x="500" 
 />
    <glyph glyph-name=".notdef" horiz-adv-x="500" 
 />
    <glyph glyph-name=".null" horiz-adv-x="0" 
 />
    <glyph glyph-name="nonmarkingreturn" horiz-adv-x="333" 
 />
    <glyph glyph-name="space" unicode=" " horiz-adv-x="266" 
 />
    <glyph glyph-name="exclam" unicode="!" horiz-adv-x="372" 
d="M275 644q0 -24 -7 -61.5t-14 -95.5q-10 -84 -24 -151t-19 -121q-10 -8 -13 -10t-10 -2q-4 0 -7.5 2t-12.5 8q-1 6 -6 34t-11.5 67t-13 84t-11.5 85q-5 48 -10.5 82t-5.5 60q0 35 7 52q10 23 31.5 34.5t41.5 11.5q17 0 37 -6t28 -16q20 -20 20 -57zM269 72
q0 -38 -20.5 -61t-58.5 -23q-39 0 -59 23t-20 57q0 35 20.5 58t61.5 23q36 0 56 -21.5t20 -55.5z" />
    <glyph glyph-name="quotedbl" unicode="&#x22;" horiz-adv-x="478" 
d="M435 646q0 -15 -6.5 -39t-16 -56t-19.5 -71t-18 -84q-1 -5 -8.5 -9.5t-12.5 -4.5t-12.5 4.5t-8.5 9.5q-7 45 -17 84t-19 70.5t-15.5 55.5t-6.5 40q0 39 22.5 59.5t57.5 20.5q37 0 58.5 -21t21.5 -59zM203 646q0 -15 -6.5 -39t-16 -56t-19.5 -71t-18 -84q-1 -5 -8.5 -9.5
t-12.5 -4.5t-12.5 4.5t-8.5 9.5q-7 45 -17 84t-19 70.5t-15.5 55.5t-6.5 40q0 39 22.5 59.5t57.5 20.5q37 0 58.5 -21t21.5 -59z" />
    <glyph glyph-name="numbersign" unicode="#" horiz-adv-x="780" 
d="M649 374h-142l-17 -96h144l-18 -101h-143l-33 -196h-46l35 196h-129l-33 -196h-46l35 196h-143l18 101h142l17 96h-144l18 101h144l32 191h46l-34 -191h129l32 191h46l-34 -191h142zM333 374l-17 -96h131l17 96h-131z" />
    <glyph glyph-name="dollar" unicode="$" horiz-adv-x="602" 
d="M541 184q0 -39 -15 -72t-45.5 -58t-76.5 -39.5t-108 -16.5l-11 -120l-26 -14l-24 14l10 122q-33 3 -70 12.5t-69 25.5q-35 17 -54.5 42t-19.5 53q0 11 3 23.5t10.5 23.5t20.5 18.5t33 7.5q23 0 36.5 -7t21.5 -18t12 -23.5t8 -24.5q11 -35 26.5 -57t45.5 -30l21 232
q-38 12 -67 25.5t-53 32.5q-34 26 -50 63.5t-16 81.5q0 36 15 67.5t43 55t68.5 38t90.5 17.5l5 78l26 10l24 -10l-3 -80q34 -3 63 -11t49 -17q73 -31 73 -87q0 -9 -3 -21t-10 -23t-19 -18.5t-30 -7.5t-30.5 7.5t-20.5 18t-13.5 23t-10.5 22.5q-12 26 -24.5 42.5t-30.5 23.5
l-16 -209q41 -13 76.5 -29t55.5 -30q44 -29 61.5 -69.5t17.5 -87.5zM299 613q-18 -2 -34.5 -8.5t-29 -18.5t-20.5 -30.5t-8 -45.5q0 -36 17.5 -57t59.5 -37q2 21 4.5 46t4.5 49t3.5 51t2.5 51zM410 161q0 23 -8 40t-21.5 29t-30.5 20t-34 14l-19 -223q49 1 81 30.5t32 89.5z
" />
    <glyph glyph-name="percent" unicode="%" horiz-adv-x="905" 
d="M288 -26q-5 -8 -18 -13t-22 -5q-11 0 -19 6t-3 14l360 616l-3 3q-26 -12 -49.5 -23t-56.5 -11q-28 0 -49.5 3.5t-30.5 8.5q0 -4 1 -9t1 -13q0 -46 -15.5 -94t-48.5 -93q-31 -42 -68.5 -62.5t-75.5 -20.5q-29 0 -54 10t-43.5 28.5t-29 44.5t-10.5 58q0 84 66 163
q74 88 159 88q32 0 57.5 -12.5t40.5 -37.5q16 -11 33 -19t37 -8q35 0 61 4.5t47.5 14.5t42 26t44.5 40q8 8 20.5 10t20.5 2q9 0 12.5 -4.5t1.5 -9.5zM857 231q0 -42 -16.5 -89t-51.5 -94q-61 -82 -141 -82q-31 0 -56.5 10t-44 28.5t-28.5 44.5t-10 57q0 86 65 164
q36 43 75 64.5t77 21.5q61 0 96 -33.5t35 -91.5zM361 562q0 5 -0.5 9.5t-1.5 9.5q-17 3 -29 15.5t-17 26.5q-20 -2 -42.5 -23.5t-44.5 -59.5q-19 -32 -31.5 -57t-20.5 -45.5t-11.5 -37t-3.5 -32.5q0 -23 14.5 -36t35.5 -13q19 0 46.5 16t53.5 57q29 46 40.5 89.5t11.5 80.5z
M819 235q0 29 -12 49t-32 20q-23 0 -45.5 -18t-47.5 -59q-37 -62 -53 -100.5t-16 -71.5q0 -23 14 -36.5t38 -13.5q23 0 51 17.5t51 53.5q29 45 40.5 86.5t11.5 72.5z" />
    <glyph glyph-name="ampersand" unicode="&#x26;" horiz-adv-x="815" 
d="M802 91q-1 -15 -8.5 -31.5t-22 -31t-36.5 -24t-53 -9.5q-44 0 -69.5 11t-45.5 27q-19 15 -37.5 34t-35.5 36q-16 -22 -39 -41t-51 -33.5t-60 -23t-65 -8.5q-50 0 -91.5 14t-71.5 40t-46.5 62t-16.5 80q0 43 14 76t34.5 57.5t44 41.5t43.5 28l-18 18q-21 21 -36.5 38
t-26 35t-15.5 38.5t-5 48.5q0 35 17 63t45.5 48t66 31t79.5 11q44 0 80.5 -9.5t62.5 -28t41 -45t15 -60.5q0 -50 -39 -87t-100 -58q11 -13 21 -22.5t23 -21.5q21 -20 42.5 -40.5t41 -39.5t37.5 -35t31 -28l15 -13q17 28 32 63t16 64q-3 11 -6.5 18.5t-7.5 13.5t-9 11.5
t-12 12.5q-8 2 -24 5.5t-48 4.5q-2 4 -2.5 8.5t-0.5 9.5q0 9 5 17q24 2 56 3t73 1q16 0 38.5 -0.5t44 -1t37.5 -1t19 -0.5q2 -2 3.5 -7t1.5 -9q0 -2 -1 -8t-2 -9q-20 -4 -40 -10t-31 -14q-8 -6 -14.5 -11.5t-13.5 -20.5q-3 -6 -12 -25.5t-21 -44t-26.5 -50.5t-27.5 -44
q8 -9 33 -35t63 -59q24 -22 38.5 -28t26.5 -6q5 0 14 6t13 11q5 0 11.5 -4t8.5 -9zM366 572q0 21 -4.5 42t-13.5 37.5t-22.5 27t-31.5 10.5t-29.5 -7.5t-18 -18.5t-9.5 -23.5t-3 -22.5q0 -14 4 -30.5t15 -32.5q13 -19 24 -33.5t20.5 -25.5t17.5 -19.5t16 -16.5
q14 23 24.5 52t10.5 61zM219 371q-7 -14 -14 -35t-7 -59q0 -28 10 -60t30 -59t49 -44.5t68 -17.5q23 0 40 2.5t31 7t25.5 10.5t22.5 13z" />
    <glyph glyph-name="quotesingle" unicode="'" horiz-adv-x="246" 
d="M203 646q0 -15 -6.5 -39t-16 -56t-19.5 -71t-18 -84q-1 -5 -8.5 -9.5t-12.5 -4.5t-12.5 4.5t-8.5 9.5q-7 45 -17 84t-19 70.5t-15.5 55.5t-6.5 40q0 39 22.5 59.5t57.5 20.5q37 0 58.5 -21t21.5 -59z" />
    <glyph glyph-name="parenleft" unicode="(" horiz-adv-x="462" 
d="M388 -142q-1 -11 -8 -17q-2 -2 -11 -4t-16 -3q-15 7 -30 18.5t-42 34.5q-51 46 -93.5 95.5t-64.5 97.5q-41 91 -41 206q0 72 16.5 134.5t48.5 116.5q11 19 29.5 42t42 48t51 49t55.5 44q10 8 15.5 11t10.5 5q3 0 14 -0.5t14 -4.5q3 -5 5.5 -9t3.5 -8q-5 -5 -8.5 -10
t-7.5 -9q-15 -17 -32 -40.5t-34 -51.5q-32 -54 -55.5 -133.5t-23.5 -189.5q0 -106 26.5 -191.5t74.5 -157.5q14 -20 26 -34.5t23 -24.5q7 -7 11 -14z" />
    <glyph glyph-name="parenright" unicode=")" horiz-adv-x="462" 
d="M380 286q0 -115 -41 -206q-22 -48 -64.5 -97.5t-93.5 -95.5q-27 -23 -42 -34.5t-30 -18.5q-7 1 -16 3t-11 4q-6 6 -8 17q5 7 11 14q11 10 23 24.5t26 34.5q48 72 74.5 157.5t26.5 191.5q0 110 -23.5 189.5t-55.5 133.5q-17 28 -34 51.5t-32 40.5q-4 4 -7.5 9t-8.5 10
q1 4 3.5 8t5.5 9q3 4 14 4.5t14 0.5q5 -2 10.5 -5t15.5 -11q28 -20 55.5 -44t51 -49t42 -48t29.5 -42q32 -54 48.5 -116.5t16.5 -134.5z" />
    <glyph glyph-name="asterisk" unicode="*" horiz-adv-x="492" 
d="M432 515q0 -8 -5 -17t-16 -13q-8 -5 -14.5 -7t-14.5 -2q-18 0 -50 17q-20 11 -41 26t-32 24q6 -11 16.5 -33t17.5 -46q6 -22 8 -36t2 -22q0 -9 -3.5 -16.5t-8.5 -16.5q-8 -8 -16.5 -12t-14.5 -4q-14 0 -31 14q-7 10 -11 19.5t-4 21.5q0 9 3 26.5t6.5 36.5t7.5 37t6 30
q-9 -12 -26.5 -31.5t-36.5 -34.5q-14 -12 -25.5 -18t-17.5 -8q-6 -3 -12.5 -3.5t-15.5 -0.5q-20 0 -28.5 8t-8.5 18q0 12 7 30q8 26 52 42q3 2 16 4t29 4.5t32 5.5t26 5q-7 3 -20.5 8t-28.5 12t-30.5 14.5t-27.5 16.5q-20 13 -29 30t-9 35q0 15 10 23.5t25 8.5q14 0 23 -2.5
t14 -4.5q8 -5 21 -17t29 -35q7 -9 14 -20.5t15 -27.5l13 -27l11 64q4 20 13 35.5t17 29.5q8 22 48 22q20 0 30 -10q7 -7 7 -32q0 -11 -3.5 -21t-12.5 -22q-11 -11 -26.5 -25t-38.5 -33q-4 -4 -11 -9t-15 -8q5 1 11 1h9q48 0 75 -1t38 -5q18 -4 25 -23q8 -14 8 -25z" />
    <glyph glyph-name="plus" unicode="+" horiz-adv-x="780" 
d="M432 207v-258h-85v258h-257v83h257v258h85v-258h258v-83h-258z" />
    <glyph glyph-name="comma" unicode="," horiz-adv-x="290" 
d="M245 20q0 -42 -17 -84.5t-46 -77.5q-17 -23 -37.5 -37t-42.5 -23q-11 2 -14 10.5t-3 22.5q9 9 24 22t29.5 31.5t25 43t10.5 55.5q0 7 -5 10q-4 2 -12.5 3t-18.5 2q-40 2 -61.5 27t-21.5 57t20.5 54.5t58.5 22.5q23 0 44 -9t37 -29q30 -40 30 -101z" />
    <glyph glyph-name="hyphen" unicode="-" horiz-adv-x="347" 
d="M48 179v106h249v-106h-249z" />
    <glyph glyph-name="period" unicode="." horiz-adv-x="290" 
d="M235 77q0 -38 -24 -62.5t-67 -24.5q-45 0 -67.5 24.5t-22.5 62.5q0 41 27 64.5t66 23.5q43 0 65.5 -26t22.5 -62z" />
    <glyph glyph-name="slash" unicode="/" horiz-adv-x="528" 
d="M31 -177q-8 -13 -26.5 -19t-28.5 -6q-6 0 -13 2t-12.5 5t-7.5 8t1 11l473 876q4 6 11.5 10.5t16.5 7.5t17.5 4.5t13.5 1.5q7 0 14 -2t12 -5t7 -8t-1 -11z" />
    <glyph glyph-name="zero" unicode="0" horiz-adv-x="634" 
d="M600 311q0 -49 -12 -93t-32.5 -80.5t-46.5 -64.5t-54 -45q-70 -40 -141 -40q-52 0 -100 22.5t-87 67.5q-46 56 -69.5 118.5t-23.5 134.5q0 103 47 192q41 78 103.5 115t136.5 37q51 0 97 -21.5t84 -65.5q50 -59 74 -126t24 -151zM442 327q0 42 -4 83.5t-14 81.5
q-9 36 -20.5 62t-28.5 51q-10 14 -21.5 21t-30.5 7q-34 0 -58 -32q-19 -23 -32.5 -51t-24.5 -70q-9 -34 -12.5 -72.5t-3.5 -81.5q0 -71 11.5 -128.5t34.5 -100.5q17 -32 37.5 -47.5t47.5 -15.5q23 0 40.5 13.5t32.5 40.5q24 48 35 107.5t11 131.5z" />
    <glyph glyph-name="one" unicode="1" horiz-adv-x="492" 
d="M460 20q0 -4 -1.5 -10t-3.5 -11h-25q-18 0 -50.5 0.5t-67.5 1.5t-66 1.5t-47 0.5q-22 0 -52 -1t-53 -1h-41q-2 5 -3 11t-1 10q0 2 1 9.5t3 10.5q35 3 55.5 5.5t33 5.5t19 8t11.5 15q5 8 7.5 23t2.5 26l2 378q0 14 -0.5 28.5t-2.5 19.5q-4 12 -10.5 20t-19 15t-31.5 14
t-49 16q-8 11 -8 28q0 5 2.5 13t5.5 13q11 -1 36.5 -11.5t63.5 -10.5q12 0 32 2.5t40 6.5t37 9.5t23 10.5q8 0 19 -2.5t13 -7.5q1 -5 1 -9v-15q0 -9 -1 -40t-2 -84q-2 -116 -1.5 -183.5t0.5 -89.5q0 -60 0.5 -93t4.5 -51q10 -39 43 -52q2 -1 11.5 -2.5t21.5 -3t23.5 -3
t17.5 -2.5q2 -4 4 -10t2 -9z" />
    <glyph glyph-name="two" unicode="2" horiz-adv-x="616" 
d="M575 215q0 -3 -4 -30t-12 -70q-2 -13 -5 -28.5t-6 -30.5t-5.5 -26.5t-4.5 -16.5q-2 -7 -5 -8.5t-10 -2.5q-5 -1 -13.5 -1h-22.5h-461q-7 9 -7 18v18q7 6 13 10.5t15 11.5q64 47 113 88.5t87 75.5q45 41 76.5 75t51 63t28 56t8.5 55q0 25 -10.5 47.5t-29.5 39.5t-45.5 27
t-58.5 10q-30 0 -66 -10t-67 -36q-26 -21 -36.5 -39t-10.5 -41q0 -12 3.5 -19t11.5 -14q7 -8 21 -13t21 -5q5 0 14 3.5t17 7.5q15 8 25.5 10.5t15.5 2.5q10 0 20.5 -5t18.5 -14q13 -20 13 -35q0 -14 -18 -39q-9 -11 -20.5 -19.5t-28.5 -16.5q-11 -5 -23 -7t-23 -2
q-52 0 -84 36q-33 44 -33 108q0 91 78 157q85 67 195 67q57 0 103 -14.5t81 -43.5q35 -30 51 -70t16 -87q0 -39 -11.5 -70.5t-32.5 -60.5q-9 -11 -21 -24t-27 -26.5t-32 -25.5t-35 -21l-203 -97h127q25 0 51.5 0.5t50 1t40.5 2t23 2.5q14 3 22 26.5t19 54.5q4 2 10.5 2.5
t9.5 0.5q5 0 12 -2.5t10 -5.5z" />
    <glyph glyph-name="three" unicode="3" horiz-adv-x="580" 
d="M530 189q0 -29 -6.5 -51.5t-23.5 -47.5q-18 -27 -47.5 -46.5t-65.5 -32t-76 -18.5t-80 -6q-83 0 -152 39q-27 17 -40.5 35.5t-13.5 48.5q0 36 20 63q11 13 27.5 21t36.5 8q26 0 48.5 -13t31.5 -46q3 -11 5 -39.5t3 -57.5q8 -5 22 -9t24 -4q41 0 70.5 18t45.5 55
q15 36 15 80q0 33 -12.5 61.5t-29.5 42.5q-10 8 -21 15t-27 15q-7 4 -13.5 7t-11.5 6q-8 4 -9 9t-1 8t2.5 9t8.5 8q13 6 26.5 9.5t33.5 17.5q27 18 38.5 44.5t11.5 58.5q0 43 -35.5 71.5t-91.5 28.5q-26 0 -45.5 -6t-39.5 -19q-14 -9 -23 -23.5t-9 -31.5q0 -12 3 -19t11 -12
q2 -2 8 -3.5t10 -1.5q2 0 7.5 1.5t7.5 3.5q8 5 18.5 9t22.5 4q18 0 25.5 -10t7.5 -28q0 -11 -4.5 -21.5t-16.5 -26.5q-13 -17 -30 -24t-34 -7q-16 0 -32 5t-29.5 16.5t-22 30.5t-8.5 46t8 51.5t25 50.5q33 48 98 72q29 11 53 15.5t54 4.5q42 0 78.5 -10t62.5 -31
q50 -41 50 -103q0 -30 -13 -56.5t-39 -52.5q-11 -10 -22 -18.5t-22 -16.5q-8 -5 -16 -8.5t-8 -7.5q0 -2 9 -5t20 -9q25 -13 44.5 -26t35.5 -30q23 -25 32.5 -50.5t9.5 -60.5z" />
    <glyph glyph-name="four" unicode="4" horiz-adv-x="611" 
d="M581 83q-10 -5 -19 -5q-4 0 -8.5 1t-9.5 3q-1 6 -2 14.5t-2 16.5t-2 15t-2 8q-9 17 -33.5 19.5t-68.5 2.5v-39q0 -28 1 -42t3 -20.5t4.5 -8t5.5 -3.5t10.5 -3.5t16.5 -2.5t17.5 -1.5t13.5 -0.5q2 -4 4 -8.5t2 -9.5q0 -4 -1.5 -10t-3.5 -9l-29 -1q-10 0 -31 0.5t-45 1
t-47 1t-38 0.5q-11 0 -27.5 -0.5t-32 -1t-28 -1t-16.5 -0.5q-4 5 -5 10.5t-1 10.5q0 10 3 19q6 0 15 1t19 2.5t19 3t14 3.5q5 5 7.5 12t2.5 33v64h-269q-4 0 -7 4.5t-5.5 10.5t-4 12t-1.5 9q11 17 22 33t22 31l192 252q22 29 40.5 56t33 49t24.5 37.5t13 20.5q2 1 9 2
t14.5 1.5t14 1t9.5 0.5t10 -0.5t14.5 -1t14 -1.5t9.5 -3q-1 -16 -2 -42t-2.5 -51.5t-2.5 -46.5t-1 -28v-297h36q23 0 36.5 2.5t24.5 13.5q7 6 9.5 27t4.5 38q4 2 9.5 2h8.5q4 0 9 -0.5t9 -2.5v-204v0zM290 489v4t-2 2t-6 -6t-9 -14l-195 -264h209v184l3 94v0z" />
    <glyph glyph-name="five" unicode="5" horiz-adv-x="545" 
d="M495 695q0 -20 -1.5 -44.5t-11.5 -43.5q-10 -20 -35.5 -39.5t-53.5 -27.5q-15 -5 -37.5 -8t-50.5 -3h-142l-28 -139l3 -1q35 23 75.5 33.5t69.5 10.5q38 0 78 -12.5t66 -38.5q29 -32 46 -68t17 -80q0 -54 -21.5 -98.5t-61.5 -79.5q-41 -35 -98 -52t-118 -17q-33 0 -66 8
t-58.5 23.5t-41.5 38.5t-16 52q0 36 18.5 60.5t59.5 24.5q15 0 27.5 -3t23 -11t20 -23.5t16.5 -40.5q5 -20 11 -39.5t20 -33.5q4 -4 12.5 -8.5t17.5 -4.5q14 0 27 7.5t22 16.5q52 54 52 163q0 35 -9 62t-25 47t-35.5 29t-42.5 9q-29 0 -56.5 -10.5t-41.5 -22.5l-11 -46
q-3 -2 -10 -4t-11 -2q-8 0 -16 4t-10 8l73 388q2 2 10 3t13 1q4 -1 13 -2.5t14 -3.5q81 -29 126.5 -35.5t66.5 -6.5q26 0 41.5 12.5t30.5 50.5q5 2 10.5 2.5t9.5 0.5q3 0 8.5 -2t10.5 -4z" />
    <glyph glyph-name="six" unicode="6" horiz-adv-x="611" 
d="M567 210q0 -68 -34 -124q-14 -24 -37 -42.5t-52 -31t-61.5 -18.5t-64.5 -6q-39 0 -75 8t-67.5 25t-56 43t-40.5 62q-14 29 -20 62.5t-6 70.5q0 57 13 116.5t45 113.5q31 53 65 89t71 57.5t78 30.5t86 9q18 0 38.5 -6.5t38 -18.5t29 -29.5t11.5 -40.5q0 -39 -21.5 -61.5
t-64.5 -22.5q-46 0 -73 37q-6 8 -10.5 24t-8.5 35q-1 3 -3.5 14t-10.5 11q-15 0 -29.5 -13.5t-28 -37t-24.5 -54t-19 -64.5q-2 -10 -4 -22.5t-4 -24.5q24 17 57 26t63 9q103 0 160 -63q60 -69 60 -163zM411 199q0 63 -21.5 105t-45.5 63q-16 14 -44 14q-13 0 -27 -2.5
t-28 -12.5q-14 -11 -21 -20t-11 -23q-2 -14 -4 -31t-2 -40q0 -84 17 -131q17 -41 41 -66.5t59 -25.5q23 0 39 14t27 37.5t16 54.5t5 64z" />
    <glyph glyph-name="seven" unicode="7" horiz-adv-x="540" 
d="M537 668q-2 -5 -6.5 -13t-13.5 -25q-26 -45 -42 -77.5t-29 -62.5l-48 -116q-16 -38 -27.5 -69.5t-14.5 -57.5q-2 -20 -2.5 -41t-0.5 -47q0 -32 2.5 -56t2.5 -45q0 -42 -28.5 -65.5t-73.5 -23.5q-43 0 -64 26t-21 56q0 16 6 38.5t20 51.5q12 27 25 51t21 39l115 200
q14 25 23 44t17 35h-253q-24 0 -47 -23t-47 -80q-3 -1 -10.5 -2t-10.5 -1q-6 0 -11 2.5t-10 6.5q6 22 15 55.5t18 68t16.5 65t9.5 45.5t5 18t10 6q17 0 33 -8.5t36 -14.5q7 -2 20.5 -4t29.5 -3.5t32.5 -2.5t29.5 -1q44 0 84.5 3.5t69.5 11.5q23 7 45 15t37 16q13 -2 24 -4.5
t13 -10.5z" />
    <glyph glyph-name="eight" unicode="8" horiz-adv-x="610" 
d="M558 171q0 -83 -66 -132q-73 -50 -190 -50q-53 0 -97.5 12.5t-81.5 38.5q-33 26 -50 58.5t-17 68.5q0 38 16.5 70t49.5 55q16 11 41.5 18t50.5 12q-34 17 -59 32.5t-48 44.5q-36 48 -36 103q0 37 16.5 68.5t48.5 57.5q70 49 163 49q70 0 129 -26q54 -23 83.5 -62.5
t29.5 -84.5q0 -44 -37 -88q-14 -17 -38 -31t-61 -28q23 -9 45.5 -22t42.5 -29q29 -23 47 -58.5t18 -76.5zM399 513q0 28 -7.5 48.5t-20.5 40.5q-12 18 -28 26t-33 8q-35 0 -61 -33q-27 -34 -27 -86q0 -27 7 -47t25 -40q17 -20 38 -26t41 -10l40 -7q14 23 20 55t6 71z
M404 160q0 56 -22 82.5t-63 37.5q-9 2 -19 4l-20 4l-33 6q-20 -22 -30 -50.5t-10 -73.5q0 -35 5 -58.5t20 -43.5q14 -17 31.5 -28t34.5 -11q44 0 77 38q14 16 21.5 38.5t7.5 54.5z" />
    <glyph glyph-name="nine" unicode="9" horiz-adv-x="609" 
d="M558 398q0 -58 -13 -113t-42 -112q-51 -97 -127.5 -141.5t-173.5 -44.5q-24 0 -47 6.5t-41 19.5t-29 31t-11 42q0 38 24.5 59.5t60.5 21.5q32 0 56.5 -20.5t33.5 -65.5q3 -15 14 -30t28 -15q15 0 39.5 29.5t41.5 89.5q6 22 9.5 49t4.5 41q0 5 -3 5t-12 -3.5t-22 -6.5
q-24 -7 -54.5 -9t-52.5 -2q-45 0 -82 16.5t-64 46t-42 69t-15 84.5q0 102 68 162q38 33 87 50t104 17q35 0 70 -9t66 -27t56 -45t41 -63q14 -29 20.5 -63t6.5 -69zM403 439q0 87 -36 145q-33 50 -76 50q-26 0 -45 -22q-21 -22 -35.5 -66.5t-14.5 -98.5q0 -39 9 -71.5
t25 -56.5q26 -41 73 -41q30 0 55 15t39 39q6 36 6 107z" />
    <glyph glyph-name="colon" unicode=":" horiz-adv-x="372" 
d="M272 379q0 -45 -25 -67.5t-64 -22.5q-38 0 -63 24t-25 64t26 62.5t68 22.5q40 0 61.5 -23.5t21.5 -59.5zM272 80q0 -45 -25 -67.5t-64 -22.5q-38 0 -63 24t-25 64t26 62.5t68 22.5q40 0 61.5 -23.5t21.5 -59.5z" />
    <glyph glyph-name="semicolon" unicode=";" horiz-adv-x="372" 
d="M277 379q0 -45 -25 -67.5t-64 -22.5q-38 0 -63 24t-25 64t26 62.5t68 22.5q40 0 61.5 -23.5t21.5 -59.5zM287 44q0 -27 -7 -56t-20 -52q-14 -27 -32 -44.5t-41 -39.5q-14 -14 -36.5 -24t-33.5 -14q-9 2 -11.5 8.5t-5.5 19.5q9 10 21.5 21t28.5 25q26 24 39 50.5t13 46.5
v10q-43 3 -70.5 22.5t-27.5 60.5q0 33 23.5 54.5t61.5 21.5q43 0 70.5 -29.5t27.5 -80.5z" />
    <glyph glyph-name="less" unicode="&#x3c;" horiz-adv-x="780" 
d="M103 207v83l567 234v-92l-462 -183l462 -184v-92z" />
    <glyph glyph-name="equal" unicode="=" horiz-adv-x="780" 
d="M100 299v83h580v-83h-580zM100 115v83h580v-83h-580z" />
    <glyph glyph-name="greater" unicode="&#x3e;" horiz-adv-x="780" 
d="M110 -27v92l462 184l-462 183v92l567 -234v-83z" />
    <glyph glyph-name="question" unicode="?" horiz-adv-x="526" 
d="M484 540q0 -29 -9 -61t-26 -56q-22 -31 -44.5 -50.5t-45.5 -33.5q-26 -15 -49 -27t-44 -26q-14 -9 -14 -26q0 -11 10.5 -19t37.5 -18q1 -2 2 -8t1 -9q0 -15 -14 -22q-15 0 -39 2t-47 11t-39.5 27.5t-16.5 51.5q0 22 8 37t18 26q9 10 24.5 23t32.5 27.5t33.5 29t28.5 27.5
q16 17 28 41t12 53q0 63 -32.5 93t-83.5 30q-47 0 -71 -25.5t-24 -61.5q0 -4 1 -7l2 -6q7 2 19 4t23 2q29 0 47.5 -16t18.5 -47q0 -15 -6 -26t-15.5 -18t-21 -10.5t-23.5 -3.5q-15 0 -31 6.5t-29 21t-21.5 37.5t-8.5 56q0 35 15 63t40.5 48t60.5 31t75 11q45 0 85 -11
t69 -33.5t46 -57t17 -80.5zM326 71q0 -38 -20.5 -61t-58.5 -23q-39 0 -59 23t-20 57q0 35 20.5 58t61.5 23q36 0 56 -21.5t20 -55.5z" />
    <glyph glyph-name="at" unicode="@" horiz-adv-x="1032" 
d="M939 380q0 -69 -26 -131.5t-68 -110t-95.5 -75.5t-108.5 -28q-7 0 -16.5 2t-19 6.5t-18 10.5t-13.5 13q-14 22 -14 68q-10 -18 -24 -36t-32 -32t-40 -22.5t-49 -8.5q-25 0 -45 9.5t-34 25.5t-21.5 38t-7.5 46q0 37 11 77t34 79q25 42 55 74t72 57q47 29 88 29
q37 0 53.5 -14t28.5 -37l9 27q2 8 4.5 12.5t9.5 7.5q3 1 16 2t28.5 1.5t30.5 0.5h21q15 0 15 -6q0 -5 -4 -15l-74 -219q-4 -13 -8.5 -28.5t-8 -31.5t-6 -30t-2.5 -23q0 -8 2 -19.5t13 -11.5q31 0 64.5 24.5t61.5 65.5t46 94.5t18 110.5q0 54 -20 99.5t-55.5 78t-84.5 50.5
t-107 18q-99 0 -176 -36.5t-130.5 -96.5t-81 -136t-27.5 -155t24 -143t67.5 -109t103.5 -69.5t131 -24.5t126 13t97.5 34.5t76.5 50.5t63 61q6 6 13.5 5.5t12.5 -5.5t6 -12.5t-5 -13.5q-37 -40 -78 -72.5t-89.5 -55.5t-107.5 -35.5t-131 -12.5q-71 0 -144.5 25t-133.5 75.5
t-98 126t-38 176.5q0 55 17.5 110.5t50 106.5t77.5 94.5t101 75.5t121 50.5t136 18.5q81 0 144 -23t105.5 -62.5t65 -93t22.5 -115.5zM630 380q0 41 -40 41q-18 0 -39 -14.5t-45 -48.5q-14 -19 -28.5 -46.5t-26.5 -57.5q-11 -29 -15.5 -52t-4.5 -43q0 -52 37 -52
q13 0 25.5 4.5t25.5 16.5t27 32t29 51t26.5 64.5t21.5 71.5q2 8 4.5 16.5t2.5 16.5z" />
    <glyph glyph-name="A" unicode="A" horiz-adv-x="802" 
d="M814 15q0 -3 -2 -8.5t-4 -7.5q-49 0 -104.5 1.5t-102.5 1.5q-29 0 -57.5 -1t-41.5 -1h-75q-4 3 -5 9t-2 9q0 3 1 8t5 10q29 2 46 5t28 8q7 8 10.5 21t3.5 28q-5 20 -26 79q-6 18 -12 33t-11 28q-3 5 -9 14.5t-12 14.5h-43h-58.5t-64 -0.5t-58.5 -1.5q-8 -15 -15 -37
l-38 -117q3 -25 10.5 -41.5t18.5 -26.5q7 -3 24.5 -5.5t36.5 -4.5q2 -4 3.5 -9t0.5 -8q0 -3 -1 -8t-3 -10h-27q-27 0 -55.5 2t-57.5 2q-13 0 -30 -0.5t-33.5 -0.5t-31 -0.5t-22.5 -0.5q-4 7 -4 16q1 3 2 9t2 10q16 5 32 9.5t30.5 11t25.5 16t17 22.5q11 27 17 41t12 29
t15 39l27 72q37 98 63.5 166t43.5 107q21 48 32 75t13 32q8 20 16 36t15 22q5 5 17 9.5t18 4.5q4 0 12.5 -1.5t17.5 -3.5t17 -5t10 -6q4 -6 9 -19l44 -109l150 -374q7 -17 12.5 -30.5t10.5 -25.5t10.5 -24t11.5 -27t13.5 -29.5t12.5 -18.5q2 -1 11.5 -4.5t22 -6.5t26 -6
t23.5 -5q2 -3 3.5 -8.5t2.5 -8.5zM431 311q-5 16 -8.5 27.5t-10.5 28.5q-6 17 -15 39.5t-18.5 47t-19 47.5t-16.5 40q-2 5 -4.5 10t-4.5 10q-8 -20 -18.5 -44.5t-24.5 -59.5q-21 -54 -36.5 -96.5t-18.5 -53.5h121q21 0 40.5 0.5t33.5 3.5z" />
    <glyph glyph-name="B" unicode="B" horiz-adv-x="779" 
d="M730 185q0 -85 -57 -139q-34 -32 -76 -40.5t-96 -7.5l-302 4q-10 0 -29.5 -0.5t-41 -0.5t-41 -0.5t-30.5 -0.5h-26t-15 1q-2 3 -2.5 9t-0.5 9t1 9t4 11q44 0 73.5 7.5t32.5 18.5q5 16 9 40t6 48q0 10 0.5 29.5t1 46t1 58.5t0.5 67q0 32 -1 71t-2 74t-2 60t-1 29
q-1 11 -2.5 23t-3.5 22q-4 14 -15 28t-32 17q-18 2 -39 4.5t-32 4.5q-2 5 -2.5 10t-0.5 8q0 9 4 16q4 1 11 1h13h237q46 0 93 1.5t78 1.5q42 0 76.5 -5t56.5 -16q51 -23 74 -64t23 -99q0 -48 -17 -81t-49 -47q-10 -5 -32 -11t-36 -10q-4 -1 -11 -3t-7 -5q0 -5 10 -6t19 -3
q6 -1 16.5 -3t21.5 -4.5t21 -5t14 -4.5q7 -3 17.5 -9t21.5 -15.5t22 -21t18 -25.5q26 -46 26 -102zM503 539q0 48 -20 86q-23 43 -70 54q-21 6 -57 6q-10 0 -21.5 -0.5t-22.5 -0.5q0 -11 -0.5 -37t-1.5 -52q-1 -31 -1 -66v-79q0 -21 0.5 -34t2.5 -15q1 -2 9.5 -2h19.5
q15 0 34 2t36 5t30.5 6.5t17.5 7.5q4 3 8 8t9 13q27 45 27 98zM551 205q0 41 -17 70q-11 20 -22.5 32.5t-25.5 21t-31 14t-39 10.5q-11 2 -27.5 4.5t-39.5 2.5q-16 0 -27.5 -1t-13.5 -4q0 -2 -0.5 -10.5t-0.5 -23.5v-177q0 -22 0.5 -30.5t2.5 -17.5q8 -17 21 -30.5t29 -24.5
q6 -2 20 -2.5t22 -0.5q22 0 38 2t28 7t22 12.5t21 18.5q20 21 30 52t10 75z" />
    <glyph glyph-name="C" unicode="C" horiz-adv-x="719" 
d="M694 139q-6 -13 -10 -21t-18 -26q-34 -46 -99 -76.5t-157 -30.5q-73 0 -132 18.5t-101 48.5q-66 50 -104 126t-38 173q0 91 27.5 162t79.5 122q48 48 110 73t141 25q43 0 75 -5.5t57.5 -15t47 -22.5t42.5 -28q11 13 17 23t17 18q10 -1 22 -3.5t17 -7.5q0 -7 -1 -19
t-2.5 -26l-3 -28t-1.5 -25q0 -9 1.5 -26t3.5 -35t4 -33t2 -19q-3 -3 -11 -6t-13 -3q-7 0 -13 1t-9 2q-12 40 -25 72.5t-26 49.5q-31 40 -71 65t-89 25q-29 0 -55.5 -7.5t-50 -25.5t-43.5 -47t-37 -73q-14 -32 -22 -76t-8 -99q0 -58 11 -107.5t21 -74.5q9 -23 27 -46.5
t44 -42.5t59 -31t72 -12q57 0 106.5 26.5t94.5 90.5q2 0 3.5 0.5t3.5 0.5q17 0 24.5 -8.5t9.5 -15.5z" />
    <glyph glyph-name="D" unicode="D" horiz-adv-x="877" 
d="M841 340q0 -106 -60 -198q-26 -39 -58 -66.5t-73.5 -45t-92.5 -25t-115 -7.5q-13 0 -35.5 0.5t-47.5 0.5t-49 0.5t-40 0.5q-15 0 -45 -0.5t-61.5 -0.5t-58 -0.5t-36.5 -0.5q-5 0 -20 -0.5t-26 -0.5q-2 2 -3.5 7.5t-1.5 9.5q0 11 4 19q32 2 50 5t29 11q10 9 21.5 23
t18.5 51q1 32 1.5 74t1 85t1 80t0.5 58q0 30 -0.5 57.5t-1.5 49.5t-2 37t-1 18q-2 20 -5.5 37t-15 30t-33 20t-59.5 7q-2 2 -3.5 8t-1.5 11q0 3 1.5 8t3.5 9h40q23 0 45.5 -1t39.5 -1h14t22.5 0.5t25.5 1t23 0.5q53 4 102.5 5.5t93.5 1.5q72 0 130 -11.5t99 -33.5
q44 -24 77 -61.5t56 -82t34.5 -93.5t11.5 -97zM650 357q0 173 -96 261q-35 32 -79 46.5t-98 14.5q-17 0 -31.5 -1t-28.5 -4l-1 -11v-511q0 -60 18 -84q13 -18 28.5 -24.5t45.5 -6.5q109 0 173 86q69 93 69 234z" />
    <glyph glyph-name="E" unicode="E" horiz-adv-x="738" 
d="M725 176v-104t-2 -58q-1 -7 -1.5 -9.5t-2.5 -6.5q-8 -2 -14.5 -2h-12.5q-76 0 -132 1t-95 2t-63 2t-36 1q-44 0 -78 1t-53 1q-10 0 -34.5 -0.5t-52 -1t-53 -1t-37.5 -0.5h-33q-5 8 -5 18q0 5 1.5 11t3.5 11q30 2 56.5 6t33.5 9q2 3 5.5 13t7 23.5t6 28.5t3.5 30
q0 9 0.5 24.5t1 33t0.5 36v34.5v206v36t-0.5 36t-1 31t-1.5 22q-3 18 -7.5 28.5t-9 17.5t-9.5 11l-10 8q-5 3 -15.5 4.5t-21.5 2.5t-21 2t-15 2q-2 3 -3.5 9.5t-1.5 10.5q0 3 1.5 8t3.5 8h34q20 0 56 -1t81 -1h39.5t51 0.5t51.5 0.5h43h55t40 0.5t34.5 0.5h37.5q30 0 55 -1
t31 -1q15 0 18.5 -2.5t4.5 -10.5q1 -9 2 -27.5t2 -41.5t1.5 -48t0.5 -48q-6 -3 -8 -4.5t-7 -1.5h-10t-11 2q-22 37 -44.5 69.5t-51.5 54.5q-21 17 -64 20q-7 0 -28.5 0.5t-65.5 0.5h-27.5t-16.5 -0.5t-9.5 -1t-6.5 -0.5q-1 -7 -2 -16l-2 -18q0 -7 -0.5 -17t-1 -26.5t-1 -41
t-0.5 -60.5v-93h21q11 0 27.5 2t30.5 6q20 6 38.5 19.5t29.5 32.5q1 1 3 8.5t4.5 17l5 19t3.5 14.5q5 2 13 2.5t13 0.5q8 0 12.5 -1t7.5 -3q-1 -13 -3 -32t-3.5 -40t-2.5 -42.5t-1 -40.5q0 -15 1 -35l2 -40t2 -37.5t1 -27.5q-9 -5 -20 -5q-6 0 -14 1t-12 3q-1 5 -2.5 17
t-3.5 24.5t-5 24.5t-6 17q-8 12 -17 23t-28 19q-20 9 -36.5 11.5t-24.5 2.5h-37v-219q0 -17 0.5 -26.5t2 -15.5t3.5 -10.5t5 -10.5q5 -12 16 -26.5t22 -16.5q7 -2 24.5 -3.5t41.5 -1.5h80q28 0 46 2t29 9q10 6 23.5 20t28.5 34.5t30 46t28 54.5q5 2 11 2h11q6 0 8.5 -0.5
t6.5 -2.5q1 -7 1 -12.5v-16.5z" />
    <glyph glyph-name="F" unicode="F" horiz-adv-x="659" 
d="M658 536q-8 -5 -18 -5h-9t-9 1q-16 33 -31.5 56.5t-29.5 39.5t-26.5 26.5t-23.5 18.5q-12 9 -34 9l-147 1q-14 0 -16.5 -3t-2.5 -14v-272q12 -1 25 -1h31q24 0 42.5 7t34.5 29q7 9 11.5 21.5t6.5 25t3.5 24t2.5 18.5q3 1 10.5 2t12.5 1q12 0 20 -4q0 -17 -0.5 -39
t-1.5 -43t-1.5 -38.5t-0.5 -26.5t0.5 -24.5t1 -32.5t1 -33t0.5 -26v-35q-2 -2 -8.5 -3t-11.5 -1h-11t-11 2q-1 5 -3 18t-4 30q-2 18 -13.5 36.5t-31.5 34.5q-4 3 -7.5 6.5t-9.5 5.5t-15.5 3.5t-26.5 1.5q-8 0 -20 -0.5t-20 -2.5q-1 -4 -2 -9.5t-2 -17t-1.5 -31t-1.5 -52.5
q0 -19 -0.5 -38.5t-0.5 -37v-31.5v-22q7 -29 19.5 -44.5t24.5 -21.5q4 -1 15 -2t23.5 -2.5t24 -2.5t17.5 -1q2 -4 2.5 -9.5t0.5 -9.5q0 -3 -0.5 -8.5t-2.5 -9.5h-23h-37.5t-49 0.5t-49.5 0.5h-38q-15 0 -37 -0.5t-46 -1t-48.5 -1t-46.5 -0.5h-41q-2 3 -3.5 9t-1.5 9
q0 4 1 10t3 8q23 2 51 7t43 7q11 15 17.5 36.5t10.5 62.5v369q0 41 -1 63.5t-3 33.5q-3 18 -11.5 31.5t-22.5 27.5q-7 6 -32 8t-47 5q-2 2 -2.5 8t-0.5 11q0 10 5 18q20 0 50 -0.5t62 -0.5t61 -0.5t46 -0.5h58t144 1q34 0 56.5 0.5t39 0.5h29h25.5q14 0 28.5 -0.5t21.5 -1.5
q2 -4 3 -6.5t2 -11.5l9 -166v0z" />
    <glyph glyph-name="G" unicode="G" horiz-adv-x="841" 
d="M846 330q0 -9 -7 -20q-4 0 -13.5 -1t-19 -2.5t-18.5 -3t-14 -3.5q-12 -5 -15.5 -10.5t-5.5 -21.5q-2 -17 -3 -42t-1 -67q0 -29 8 -50.5t25 -44.5q-2 -9 -6.5 -18t-10.5 -9q-3 0 -11 3.5t-17.5 7t-20.5 7t-20 3.5q-27 0 -56 -9q-19 -6 -41 -17t-49.5 -21.5t-61.5 -18
t-76 -7.5q-51 0 -98.5 10t-92.5 34q-35 19 -68.5 50.5t-59 73t-41 92.5t-15.5 108q0 169 108 274q54 51 117 78t152 27q68 0 117 -18t95 -50q8 14 15 25t18 20q5 1 9 1.5t14 -0.5q6 -1 11.5 -4t10.5 -7q-2 -12 -4 -26.5t-3.5 -30t-2.5 -29.5t-1 -25q0 -21 8 -44t16 -42
q0 -5 -12.5 -10t-22.5 -5q-6 5 -13.5 14t-15.5 26q-17 33 -39 63.5t-47 54.5q-25 23 -56 36t-67 13q-68 0 -123.5 -48t-79.5 -139q-17 -66 -17 -141q0 -48 7 -98.5t22 -92.5q12 -31 34 -60t48 -53q12 -13 25 -22t17 -11q3 -1 15 -2.5t24 -1.5q47 0 95 25q20 11 34.5 27.5
t25.5 45.5q5 15 8.5 31t3.5 33q0 60 -5 77t-16.5 25.5t-28.5 13.5q-5 1 -15 2t-21.5 2t-21 1.5t-12.5 1.5q-2 5 -3 10.5t-1 9.5q0 11 5 19h33q10 0 29.5 -0.5t43 -1t46 -1t38.5 -0.5q35 0 74 1.5t86 1.5h27q2 -3 3.5 -8.5t1.5 -10.5z" />
    <glyph glyph-name="H" unicode="H" horiz-adv-x="891" 
d="M868 20q0 -4 -1 -10.5t-3 -9.5h-32q-34 0 -83 1t-99 1h-41.5t-51 -0.5t-47.5 -0.5h-32q-2 4 -2.5 9.5t-0.5 9.5t1 9t3 9q7 0 17.5 0.5t21 2t20.5 3.5t16 6q27 17 27 84v142q0 25 -1 44.5t-1 29.5q-11 0 -19.5 0.5t-27.5 0.5h-150q-21 0 -43 -0.5t-29 -0.5v-224
q5 -31 14.5 -52.5t26.5 -31.5q22 -6 70 -9q2 -3 3 -9t1 -11q0 -3 -1.5 -8.5t-4.5 -6.5h-28q-17 0 -41 0.5t-50 1.5t-53.5 1.5t-51.5 0.5q-38 0 -78.5 -1t-69.5 -1h-24q-2 2 -2.5 8t-0.5 8t1 8t3 10q50 6 72.5 17.5t30.5 35.5q7 22 9 74l4 129q1 26 1 49.5v44.5q0 42 -1 80.5
t-2.5 69.5t-2.5 52.5t-2 28.5q-7 27 -16.5 40t-24.5 25q-10 2 -30 4t-33 3q-1 3 -1.5 9t-0.5 8q0 4 1 10t3 8h23q16 0 37.5 -0.5t45 -0.5t47 -0.5t42.5 -0.5h28t41.5 0.5t45 0.5h37.5q8 0 21.5 -0.5t19.5 -0.5q4 -6 4 -14q0 -5 -1 -11t-3 -9q-21 -1 -39 -3.5t-32 -10
t-23.5 -21t-13.5 -34.5q-2 -14 -3.5 -38t-1.5 -70q0 -38 1.5 -64.5t2.5 -46.5q11 0 33 -1t45.5 -1.5t44.5 -1t30 -0.5q45 0 70 1t47 3q1 9 1.5 22l1 26t1 24t0.5 17q0 55 -2 87.5t-6 52.5q-3 16 -9.5 26.5t-17.5 17t-28 10t-42 4.5q-2 2 -2.5 8.5t-0.5 10.5q0 10 6 16
q49 -1 98 -1.5t87 -0.5q10 0 28.5 0.5t40 0.5t42 0.5t33.5 0.5h48q2 -2 3 -7.5t1 -8.5q0 -4 -1 -10.5t-3 -8.5q-105 -3 -105 -99l-1 -386q0 -29 1.5 -55.5t2.5 -41.5q4 -15 17 -34.5t30 -25.5q9 -2 24.5 -4.5t35.5 -2.5q4 -10 4 -16z" />
    <glyph glyph-name="I" unicode="I" horiz-adv-x="445" 
d="M422 17q0 -3 -1 -8t-3 -9h-33q-12 0 -35.5 0.5t-47.5 1t-43.5 1t-25.5 0.5q-19 0 -46 -1t-54.5 -1.5t-52 -1.5t-39.5 -1h-17q0 4 -1 7.5t-1 9.5q0 3 0.5 10.5t2.5 10.5q27 2 44 6t27.5 8.5t16 9.5t9.5 9q5 10 8.5 26t5.5 34q0 13 0.5 31l1 36t1 34.5t0.5 27.5
q0 44 -0.5 92t-1.5 86l-1.5 103.5t-1.5 48.5q-3 41 -13.5 59.5t-19.5 25.5q-5 4 -23 7.5t-55 6.5q-1 4 -1.5 10t-0.5 9q0 7 1.5 10.5t3.5 6.5h22q17 0 41.5 -1t49 -1.5t44.5 -1t28 -0.5q13 0 36 1t48.5 1.5t49.5 1.5t40 1h29q2 -2 3.5 -6.5t1.5 -9.5q0 -3 -0.5 -9.5
t-2.5 -9.5q-24 -3 -49.5 -7.5t-39.5 -18.5q-5 -5 -11.5 -19.5t-6.5 -34.5v-246v-70t0.5 -67t1 -58.5t0.5 -44.5q5 -27 13.5 -45t20.5 -32q7 -1 17 -2.5t21 -3t20.5 -2.5t15.5 -1q2 -3 2.5 -9.5t0.5 -10.5z" />
    <glyph glyph-name="J" unicode="J" horiz-adv-x="603" 
d="M589 705q0 -3 -2 -8.5t-4 -9.5q-21 -1 -34.5 -3t-22.5 -4t-14.5 -4.5t-10.5 -5.5q-13 -13 -21 -29.5t-8 -29.5l1 -433q0 -67 -63 -127q-17 -15 -40 -28t-50 -22t-55.5 -14t-57.5 -5q-46 0 -82 11.5t-65 33.5q-25 19 -40 49.5t-15 67.5q0 50 28.5 79.5t70.5 29.5
q41 0 67.5 -22t26.5 -70q0 -35 -14 -53t-29 -25q-8 -4 -8 -16q0 -15 16.5 -29.5t48.5 -14.5q14 0 26.5 4t19.5 12q9 10 16.5 27t12.5 34t7.5 32t2.5 22v357q0 47 -1.5 74.5t-4.5 49.5q-9 19 -23 29t-29.5 15t-31 6.5t-26.5 2.5q-1 3 -1.5 8.5t-0.5 8.5q0 2 1 7t3 10
q18 0 42 -0.5t48.5 -0.5t45.5 -0.5t33 -0.5q72 0 120.5 1t93.5 1h18q2 -2 3.5 -7.5t1.5 -9.5z" />
    <glyph glyph-name="K" unicode="K" horiz-adv-x="843" 
d="M880 19q0 -2 -1.5 -8t-3.5 -10h-34q-35 0 -81 0.5t-86 0.5q-13 0 -35 -0.5t-45 -1.5t-43.5 -1.5t-30.5 -0.5h-26q-2 2 -3.5 7.5t-1.5 8.5t1 9.5t3 9.5q15 3 39 11.5t38 16.5q-6 8 -20 26.5t-42 47.5l-161 168q-6 6 -12 11.5t-10 5.5q-10 0 -14 -6l4 -199q1 -29 11 -44.5
t25 -24.5q5 -3 24 -7t43 -5q2 -2 4 -7.5t2 -10.5q0 -4 -1 -9.5t-3 -9.5h-35q-15 0 -35.5 0.5t-42.5 1.5t-42 1.5t-34 0.5q-18 0 -40 -0.5l-44 -1t-42.5 -1t-35.5 -0.5h-43q-2 4 -2.5 9.5t-0.5 8.5q0 8 4 18q39 4 64 11t35 15q10 17 12.5 56t2.5 102l1 319q0 27 -0.5 50
t-2.5 31q-5 21 -13.5 32.5t-23.5 21.5q-4 3 -13.5 4.5t-20 3t-20.5 2.5t-15 2q-5 6 -5 19q0 4 1 10.5t4 8.5h19q14 0 33 -0.5t39 -1t39.5 -1t33.5 -0.5h30.5t39.5 0.5t43 0.5h41h58q2 -4 4 -8.5t2 -7.5t-0.5 -9t-1.5 -10q-28 -4 -44 -7.5t-25 -5.5q-14 -12 -20.5 -23
t-11.5 -28l-1 -267q5 5 14.5 15t20 21t21.5 22l18 18q33 32 61 60t49 53q32 35 52.5 57.5t27.5 30.5q5 8 5 17q-1 9 -5 13t-12 9q-6 3 -15 5.5t-18 4.5t-17 3.5t-11 2.5q-3 4 -3 9.5v9.5q0 9 4 16q29 0 52 -1.5t45 -1.5q4 0 21 0.5t39 0.5t44 0.5t36 0.5h30q2 -1 3.5 -7
t1.5 -9t-1 -9.5t-2 -8.5q-34 -8 -74 -22.5t-74 -49.5l-172 -174q-3 -3 -4.5 -6t-6.5 -8q6 -7 17 -18.5t25 -25.5q17 -16 41.5 -42t57.5 -58q39 -38 69 -69t52 -54q23 -24 42.5 -44.5t43.5 -43.5q8 -8 29.5 -19.5t56.5 -15.5q2 -3 3.5 -9t1.5 -8z" />
    <glyph glyph-name="L" unicode="L" horiz-adv-x="738" 
d="M721 124q0 -44 -3 -91q-2 -21 -4.5 -26t-16.5 -5q-8 0 -35.5 -0.5t-67.5 -1t-89 -1t-100 -0.5q-59 0 -106.5 0.5t-95.5 0.5q-16 0 -36.5 -0.5l-41 -1t-39.5 -1t-32 -0.5h-20q-2 3 -2.5 8.5t-0.5 8.5q0 4 1 9.5t2 8.5q18 5 45.5 12.5t46.5 16.5q6 11 9.5 32t4.5 48
q0 13 0.5 43.5t0.5 90.5q0 24 -1.5 91.5t-3.5 167.5q-1 38 -2.5 65t-3.5 35q-4 11 -11 22.5t-22 18.5q-12 3 -28.5 3.5t-34.5 5.5q-2 3 -2.5 9.5t-0.5 10.5q0 9 5 16l377 1q2 -2 3 -7.5t1 -9.5t-1 -10t-3 -8q-17 -1 -35.5 -2.5t-33.5 -8.5t-24.5 -22t-9.5 -43v-114l6 -374
q0 -14 10.5 -32t21.5 -27q15 -13 34.5 -19.5t50.5 -6.5q22 0 37.5 2t28.5 6.5t26 11t30 15.5q42 22 72.5 66.5t52.5 97.5q4 2 10 2.5t10 0.5q13 0 20 -5q0 -14 0.5 -31.5t0.5 -33.5v-28v-17z" />
    <glyph glyph-name="M" unicode="M" horiz-adv-x="1036" 
d="M1020 18q0 -10 -5 -18h-199q-33 0 -79.5 -0.5t-116.5 -1.5q-5 7 -5 17q0 5 1.5 10.5t3.5 9.5q27 1 47 4.5t33.5 12.5t20 26.5t6.5 46.5l5 437v50q-17 -37 -32.5 -72t-31.5 -70.5t-33 -73.5t-36 -82q-15 -35 -26.5 -61.5t-23.5 -57.5q-23 -57 -38.5 -102.5t-21.5 -67.5
q-2 -5 -13.5 -8.5t-15.5 -3.5q-5 0 -14.5 5.5t-13.5 15.5q-9 23 -15 38l-10 25t-6.5 16.5t-5.5 12.5l-220 493v-70l7 -380q2 -70 35.5 -102.5t90.5 -35.5q1 -3 2 -9t1 -8q0 -3 -1.5 -8t-3.5 -9h-31q-35 0 -68.5 2t-63.5 2q-15 0 -40.5 -0.5t-48.5 -0.5h-42q-2 2 -3.5 8.5
t-1.5 10.5q0 3 0.5 8t2.5 8q15 2 31.5 6t31 8t25 8t13.5 6q2 2 5.5 11.5t6.5 23t5.5 30.5t2.5 33v430q0 17 -2.5 33t-5.5 20q-3 3 -7.5 9.5t-15 13t-29.5 11.5t-51 5q-5 7 -5 19q0 10 4 18q6 0 20 -0.5t31 -0.5t34.5 -0.5t32.5 -0.5q38 0 66 0.5t48 0.5h34.5h26.5q4 -5 7 -8
t5 -8l200 -457l25 61q16 39 31.5 77t33 78t38 83t44.5 92q11 21 18 34.5t9 17.5q5 11 9 16.5t8 8.5t9 3.5t14 0.5l162 1l64 3h27q2 -2 3 -7.5t1 -8.5q0 -5 -1 -10.5t-3 -8.5q-56 -2 -86.5 -22t-30.5 -70v-382q0 -61 4 -92.5t13 -47.5q14 -22 39.5 -29t60.5 -10q2 -2 3 -7.5
t1 -8.5z" />
    <glyph glyph-name="N" unicode="N" horiz-adv-x="845" 
d="M846 710q0 -4 -1 -9.5t-3 -9.5q-26 -1 -49 -9t-40.5 -26.5t-28 -49.5t-10.5 -78v-417q0 -11 0.5 -31.5t0.5 -42.5q0 -18 -3.5 -29.5t-5.5 -15.5q-4 -2 -12 -2q-4 0 -14 1t-14 5l-462 519q-4 5 -8.5 11t-9.5 11q-1 -26 -1.5 -74.5t-0.5 -108.5q0 -45 0.5 -78t0.5 -57
q0 -13 1 -32t3 -37.5t4 -33.5t5 -21q13 -17 28.5 -27.5t31.5 -17t31.5 -10.5t28.5 -7q2 -3 2.5 -8t0.5 -8t-1 -9.5t-4 -7.5h-60q-31 0 -56.5 1.5t-58.5 1.5q-11 0 -24.5 -0.5l-27 -1t-25 -1t-19.5 -0.5h-19q-2 1 -2.5 6.5t-0.5 7.5q0 8 4 18q39 10 64 22t41 29q2 13 4 32
t2 44v203q0 53 1.5 104.5t1.5 90.5q0 23 -4 32q-7 15 -24 32t-29 31q-20 22 -42 28.5t-33 9.5q-1 2 -2 9.5t-1 9.5q0 6 4 14q6 0 29 -0.5t52 -1t60.5 -1t55.5 -0.5q6 0 15 -0.5t15 -0.5q11 -7 15 -13l334 -370q30 -34 49 -59t32 -41q1 8 1.5 16.5t0.5 26.5v209
q0 31 -0.5 45.5t-1.5 25.5q-2 29 -8.5 57.5t-20.5 44.5q-10 6 -25 11t-30.5 8t-28.5 5.5t-19 4.5q-3 3 -4 8t-1 9q0 3 1 9t3 8h26q4 0 14 -0.5t22.5 -0.5t26 -0.5t25.5 -0.5q34 0 58 0.5t43 0.5t35.5 0.5t35.5 0.5h23q2 -2 2.5 -6.5t0.5 -7.5z" />
    <glyph glyph-name="O" unicode="O" horiz-adv-x="831" 
d="M796 373q0 -79 -26 -146t-75 -121q-28 -31 -62.5 -55t-76.5 -40q-75 -29 -152 -29q-129 0 -228 72q-33 24 -59 57t-45 71t-29 80t-10 85q0 108 58 203q22 37 57 71t79 59.5t95 40.5t106 15q97 0 190 -51q88 -48 133 -127t45 -185zM615 392q0 154 -57 232q-23 32 -59 50.5
t-77 18.5q-26 0 -52 -9t-52 -30q-48 -40 -74 -118.5t-26 -183.5q0 -35 4 -72t11.5 -71.5t18.5 -64.5t25 -52q21 -34 56 -50.5t77 -16.5q63 0 106 36q21 18 39.5 50.5t31.5 76t20.5 95.5t7.5 109z" />
    <glyph glyph-name="P" unicode="P" horiz-adv-x="729" 
d="M701 530q0 -58 -30.5 -106t-84.5 -68q-23 -8 -52 -13t-64 -5q-26 0 -70 1.5t-89 4.5l3 -220q0 -23 6 -36.5t14 -22.5q7 -8 18.5 -13.5t24.5 -9t26.5 -5.5t24.5 -4q2 -3 2 -8v-10q0 -4 -0.5 -8.5t-2.5 -7.5h-25q-14 0 -37 0.5t-52 1.5t-62 1.5t-66 0.5q-13 0 -35.5 -0.5
t-46.5 -1.5t-46 -1.5t-34 -0.5q-2 4 -2.5 6t-0.5 8q0 11 2 21q16 2 31.5 5t26.5 5q25 8 39.5 28t17.5 43q2 18 3 102.5t1 243.5q0 57 -1.5 93t-3.5 62q-5 22 -9.5 34t-17.5 23q-15 4 -35.5 7.5t-34.5 8.5q-2 4 -2.5 10.5t-0.5 9.5q0 8 5 16q12 0 27.5 -0.5t32.5 -1.5
t33.5 -1.5t30.5 -0.5q20 0 50.5 1t65.5 2l70 2t64 1q66 0 110 -6t69 -17q48 -22 77.5 -69.5t29.5 -104.5zM522 534q0 54 -22 96q-15 32 -47 45.5t-83 13.5q-22 0 -35.5 -2t-22.5 -3l-1 -293q0 -5 13 -7q5 -1 16 -1.5t27 -0.5q38 0 63 7t41 20q25 22 38 54.5t13 70.5z" />
    <glyph glyph-name="Q" unicode="Q" horiz-adv-x="831" 
d="M822 -136q-13 -29 -60 -48.5t-110 -19.5q-26 0 -52.5 7.5t-51.5 21.5q-49 28 -74 86q-5 11 -11 31.5t-14 43.5q-21 -3 -44 -3q-66 0 -122.5 19.5t-107.5 55.5q-63 47 -102.5 122t-39.5 168q0 49 11.5 96.5t36 91t64 82.5t96.5 70q86 48 189 48q98 0 192 -51
q88 -48 131 -126.5t43 -184.5q0 -109 -50 -197t-140 -137q11 -37 22 -66.5t28 -55.5q17 -28 39 -40t48 -12q6 0 14.5 2.5t17.5 6.5t17 8.5t13 8.5q5 -1 11 -10t6 -18zM614 388q0 160 -57 238q-23 32 -58 50.5t-77 18.5q-26 0 -52.5 -9t-52.5 -30q-45 -38 -71.5 -114
t-26.5 -191q0 -46 5 -87t13 -76q33 29 73.5 47t78.5 18q30 0 56.5 -7.5t55.5 -26.5q21 -14 38.5 -37t33.5 -52q5 12 9.5 27.5t8.5 29.5q12 46 17.5 96.5t5.5 104.5zM439 25q-6 19 -15 44.5t-20 42.5q-22 33 -44.5 49.5t-62.5 16.5q-14 0 -27 -7.5t-24 -15.5q10 -27 25.5 -51
t36.5 -42t48 -28.5t58 -10.5q7 0 13 0.5t12 1.5z" />
    <glyph glyph-name="R" unicode="R" horiz-adv-x="808" 
d="M810 16q0 -4 -1.5 -9t-4.5 -8h-143q-14 0 -30 0.5t-30.5 1t-25 1t-13.5 0.5q-14 2 -21 13.5t-9 27.5q-4 27 -9.5 57t-13.5 59t-18 54.5t-22 44.5q-18 28 -34.5 42.5t-44.5 30.5q-19 11 -31 13.5t-22 2.5h-13t-13 -1l1 -231q0 -26 12 -44t31 -27q8 -2 24.5 -5t31.5 -5
q4 -8 4 -21q0 -7 -4 -15q-43 0 -85 1.5t-90 1.5q-12 0 -42.5 -0.5t-63.5 -1t-60.5 -1t-32.5 -0.5q-4 10 -4 16q0 4 1.5 10t3.5 10q15 1 31 3t26 4q22 9 30.5 28.5t10.5 38.5q2 14 3 42t1 63v75v78q0 106 -1 168.5t-5 86.5q-8 17 -16 28.5t-26 25.5q-12 2 -31.5 4.5
t-32.5 4.5q-1 3 -1.5 9t-0.5 9q0 7 5 19q2 0 9.5 -0.5t16.5 -0.5t18 -0.5t15 -0.5q13 0 34 -0.5t42 -0.5t38 -0.5t23 -0.5q19 0 46.5 1t59 2.5t64 2.5t60.5 1q82 0 120 -11q27 -9 50 -27t39.5 -42.5t26 -53.5t9.5 -59q0 -83 -62 -130q-7 -6 -14.5 -11t-19.5 -9.5t-30 -9
t-46 -7.5q-14 -2 -22 -3t-19 -3q9 -4 19 -7.5t22 -8.5q26 -9 47 -18t28 -15q18 -17 38 -49t36 -70q11 -29 22 -54.5t21 -60.5q3 -5 8 -12.5t9 -12.5q6 -4 15.5 -6.5t19.5 -4t18.5 -2t12.5 -0.5q2 -3 3.5 -10t1.5 -11zM520 539q0 53 -23 92q-10 18 -22.5 28.5t-29 16t-38 7.5
t-50.5 2q-16 0 -28 -2t-14 -4q-6 -6 -6 -22v-184l1 -85q9 -2 19 -2h18q28 0 47.5 2t34.5 6q18 5 34.5 19.5t29 34.5t20 44t7.5 47z" />
    <glyph glyph-name="S" unicode="S" horiz-adv-x="667" 
d="M627 208q0 -55 -19.5 -96.5t-55 -69.5t-83.5 -42.5t-105 -14.5q-24 0 -45.5 1.5t-43.5 5.5t-45.5 12t-49.5 21q-8 4 -17.5 9t-14.5 5t-19.5 -9t-31.5 -23q-5 0 -12.5 1.5t-14.5 4.5t-12.5 6.5t-6.5 7.5q2 12 6.5 38t4.5 63q0 8 -0.5 23t-1.5 31.5t-1.5 30.5t-0.5 19
q11 6 19 6h14t14 -2q4 -15 12 -32.5t18.5 -35.5t21 -34.5t19.5 -28.5q15 -20 35 -34.5t41.5 -24t42.5 -14t38 -4.5q32 0 59 9.5t46 31.5q21 23 30.5 44.5t9.5 44.5q0 36 -22.5 62.5t-82.5 48.5q-7 2 -32 9.5t-54.5 16.5t-56.5 18t-38 14q-63 26 -96 76q-36 59 -36 125
q0 43 17.5 80t49 64.5t74.5 43t94 15.5q24 0 46 -2t45 -8t46.5 -18t50.5 -32q11 10 21.5 19.5t21.5 16.5q11 0 24 -2.5t20 -11.5q-1 -7 -2.5 -19t-3 -26.5t-2.5 -28t-1 -23.5q0 -23 3 -44.5t5 -40.5q-5 -4 -10 -7t-12 -3q-2 0 -12 0.5t-12 1.5q-17 38 -33 62t-34 50
q-22 32 -56 52t-77 20q-24 0 -46 -8.5t-39 -23t-27 -33.5t-10 -39q0 -13 5.5 -27.5t13.5 -27t17.5 -22.5t17.5 -14q25 -12 62 -24.5t84 -24.5q40 -11 68.5 -21.5t44.5 -20.5q58 -32 85.5 -78t27.5 -115z" />
    <glyph glyph-name="T" unicode="T" horiz-adv-x="771" 
d="M756 499q-2 -2 -9 -3t-10 -1h-8.5t-8.5 2q-14 35 -27 63.5t-26 45.5q-20 27 -46 45t-73 31q-23 1 -43.5 0.5t-31.5 -0.5v-111.5t-0.5 -83t-0.5 -68v-66.5v-49.5t0.5 -47.5t1 -54t0.5 -70q0 -26 3.5 -46.5t5.5 -28.5q11 -8 26.5 -12t31.5 -5.5t28.5 -1.5h16.5q4 -7 4 -18
q0 -4 -0.5 -10.5t-2.5 -10.5h-28q-23 0 -50.5 0.5t-53 1t-47 1t-32.5 0.5q-13 0 -34.5 -0.5t-45 -1.5t-45 -1.5t-35.5 -0.5h-39q-1 3 -1 8v8q0 6 0.5 12t2.5 11q45 2 68.5 6.5t34.5 11.5t13 16.5t3 19.5q2 12 2.5 65.5t0.5 163.5v104.5v69t-0.5 50.5t-0.5 49q-1 32 -1.5 56
t-1.5 32h-19t-28 -0.5t-30.5 -1.5t-26.5 -2q-40 -20 -73 -59t-67 -108q-3 -2 -11 -2h-11q-4 0 -8.5 1t-7.5 3v191q0 11 3.5 14t13.5 3h74q42 0 115 -1t167 -1q60 0 117.5 0.5t105 1.5t80.5 1.5t44 0.5t16 -4t5 -15v-204v0z" />
    <glyph glyph-name="U" unicode="U" horiz-adv-x="861" 
d="M857 704q0 -9 -4 -17q-20 -2 -33 -4t-22 -3.5t-15.5 -3t-12.5 -3.5q-11 -18 -20 -43.5t-10 -66.5q0 -14 -1 -43t-1 -56v-184q0 -62 -17 -119q-29 -94 -108 -135q-77 -41 -184 -41q-118 0 -199 48q-72 44 -93 123q-6 21 -8.5 55t-2.5 81v232q0 48 -1 73t-2 35
q-5 13 -13.5 24.5t-21.5 19.5q-11 2 -27 4.5t-40 5.5q-2 2 -3 7.5t-1 9.5t1 10.5t4 8.5h42h29.5t40 -0.5t43.5 -0.5h40h31t40 0.5t41.5 1t34.5 0.5l38 1q3 -2 5 -8t2 -10q0 -9 -5 -19q-9 -1 -21.5 -2t-23.5 -2.5t-20 -2.5t-12 -3q-8 -9 -19.5 -24t-11.5 -32l1 -112l4 -279
q0 -12 5.5 -29.5t16.5 -36t27.5 -35.5t38.5 -29q23 -12 49 -20t56 -8q140 0 178 133q7 25 11 61t6 78q0 11 0.5 24t0.5 30v40v55q0 45 -3 68.5t-5 31.5q-1 8 -6 18.5t-11 21t-12 19.5l-10 15q-5 7 -19 10.5t-29.5 5.5t-27.5 2.5t-14 0.5q-2 4 -2.5 9.5t-0.5 8.5q0 10 4 18
h36q22 0 53 -1t61 -1q27 0 61.5 1t57.5 1h29q2 -2 3.5 -8.5t1.5 -9.5z" />
    <glyph glyph-name="V" unicode="V" horiz-adv-x="804" 
d="M821 707q0 -4 -1.5 -9.5t-2.5 -8.5q-23 -5 -46 -11.5t-36 -20.5q-10 -11 -20 -24t-19 -33l-261 -607q-2 -4 -14 -5.5t-19 -1.5t-19.5 2t-16.5 4q-4 14 -33.5 91.5t-83.5 202.5l-86 197q-9 20 -20 45.5t-22 50.5t-21.5 46.5t-17.5 31.5q-23 12 -45 20.5t-43 13.5
q-3 6 -3 17q0 9 4 17h39q17 0 39.5 -0.5t44.5 -0.5t40.5 -0.5t27.5 -0.5q40 0 78 2t61 2h55q3 -1 4 -7t1 -9t-1 -9.5t-3 -9.5q-20 0 -36 -3t-29 -5q-13 -7 -19.5 -22.5t-8.5 -33.5l183 -439l143 335q4 10 8 24t7.5 27.5t5.5 24t2 14.5q0 43 -18 63q-34 11 -69 15q0 3 -1 8
t-1 8q0 4 1.5 9t3.5 9h18q9 0 41.5 -2.5t80.5 -2.5q6 0 17.5 0.5t24.5 0.5t25.5 0.5t21.5 0.5h34q3 -1 4 -7t1 -9z" />
    <glyph glyph-name="W" unicode="W" horiz-adv-x="1147" 
d="M1147 705q0 -4 -1.5 -9.5t-2.5 -8.5q-4 -1 -12.5 -4t-17.5 -6t-17.5 -6t-12.5 -6q-12 -8 -24.5 -23t-17.5 -29l-226 -617q-1 -3 -6.5 -5t-12.5 -3t-13 -1.5t-8 -0.5q-7 0 -17.5 3.5t-13.5 12.5l-169 492l-170 -491q-3 -8 -16 -12t-21 -4q-4 0 -10 1t-13 4.5t-13 10.5
t-10 19l-190 523q-11 30 -19 50t-14 33t-10.5 20.5t-8.5 12.5q-5 5 -29 12t-48 13q-2 4 -2.5 10t-0.5 8q0 6 1 9t3 7q15 0 33.5 0.5t30.5 0.5h23.5t31 -0.5t33.5 -0.5h32q11 0 26.5 0.5t30.5 0.5t28 0.5t19 0.5h63q1 -2 2 -8t1 -9q0 -4 -1.5 -9t-2.5 -9q-42 -5 -56 -20
t-14 -43l147 -416l121 355q-7 20 -15.5 43t-15.5 34q-9 15 -20 23t-23 12t-25 5.5t-26 4.5q-2 3 -2.5 8t-0.5 9q0 5 1.5 10.5t3.5 9.5h75h25t30 -0.5t27 -0.5h16h34t56 0.5t57 1t37 1.5q3 -2 5 -8t2 -11t-1 -9.5t-2 -7.5q-14 -2 -28.5 -4t-26.5 -7.5t-19.5 -16t-7.5 -30.5
q0 -6 2.5 -22.5t7.5 -30.5l126 -376l138 395q-1 29 -8 48.5t-24 32.5q-8 2 -25 4.5t-36 4.5q-2 4 -2.5 9.5t-0.5 9.5q0 5 1 9.5t3 6.5h25q26 0 48 -1t39 -1q12 0 30.5 0.5t38 1t38.5 1t32 0.5q2 -3 4 -8t2 -9z" />
    <glyph glyph-name="X" unicode="X" horiz-adv-x="796" 
d="M809 16q0 -2 -1 -7t-2 -9h-73q-17 0 -44 -0.5t-58.5 -1.5t-65 -1.5t-63.5 -0.5h-74q-2 3 -2.5 8t-0.5 9t1 10.5t3 9.5q15 2 41.5 8t48.5 22q-8 15 -13.5 25t-16.5 26q-4 6 -18 28.5t-43 64.5q-26 38 -44.5 63t-32.5 42q-19 -24 -45.5 -60.5t-55.5 -78.5q-29 -40 -41 -65
t-12 -36t7 -17t25 -10l60 -11q5 -10 5 -18q0 -9 -3 -17l-29 -1q-14 0 -32.5 0.5t-36 1.5t-32 1.5t-20.5 0.5t-19.5 -0.5t-29 -1l-31 -1t-26.5 -0.5l-29 1q-2 3 -2 7.5v8.5q0 10 3 16q12 2 26.5 6t29.5 8.5t27.5 10t19.5 10.5q18 21 45 55.5t56.5 73l59 77t52.5 68.5
l-171 242q-26 37 -46.5 58.5t-29.5 27.5q-3 2 -11 4.5t-17.5 5t-19.5 4.5t-18 3q-4 7 -4 21q0 3 1 7t4 8q24 0 51 -0.5t39 -1.5q16 -1 35 -1.5t37 -1t34 -0.5h26h26.5t31.5 0.5t30.5 0.5h23.5h40q4 -8 4 -15q0 -5 -2 -10.5t-4 -10.5q-9 -1 -21.5 -2t-24.5 -3t-20 -5.5
t-8 -11.5q0 -7 4.5 -19.5t16.5 -33.5t33 -54t40 -60q16 -23 25 -35.5t16 -20.5q13 17 29.5 40t33 45.5t30.5 42t22 30.5q2 3 5.5 9.5t7 13.5t6 14t2.5 13t-4 10q-4 3 -13.5 7.5t-21 9t-23 8.5t-20.5 7q-2 2 -3.5 9t-1.5 9q0 8 4 16h47q27 0 52 -0.5t41 -0.5q4 0 19.5 0.5
t34.5 0.5t37 0.5t28 0.5h23q3 -1 4.5 -7.5t1.5 -9.5q0 -5 -2 -10.5t-4 -10.5q-41 0 -76 -13t-50 -33l-179 -228l253 -348q5 -7 27 -16t51 -11q2 -4 3 -10t1 -9z" />
    <glyph glyph-name="Y" unicode="Y" horiz-adv-x="774" 
d="M784 710q0 -3 -1.5 -8.5t-3.5 -9.5q-7 -2 -17.5 -4t-21 -4.5t-19.5 -5.5t-14 -6q-15 -9 -32 -25t-28 -36l-157 -302q-7 -11 -7 -27q0 -1 -0.5 -8.5t0.5 -16.5l9 -141q1 -15 3 -24t5 -16t7.5 -12.5t10.5 -11.5q4 -4 13.5 -7t22 -5.5t26 -4t25.5 -3.5q2 -4 3 -9t1 -9
t-1.5 -9.5t-3.5 -8.5q-14 0 -33 0.5t-45 1.5q-22 0 -45.5 0.5t-44 1t-36.5 0.5h-24h-32t-46 -0.5t-50 -0.5h-44q-1 3 -2 8t-1 9q0 10 5 19q9 1 21.5 2.5t24.5 3.5t21.5 4t12.5 3q13 8 22.5 26.5t9.5 50.5q0 38 -2 64t-7 47q-4 14 -11 32.5t-21 42.5l-177 334
q-5 10 -26.5 19.5t-72.5 21.5q-2 4 -3.5 9t-1.5 8q0 10 6 20q3 0 20.5 -0.5t41 -1t49 -1t43.5 -0.5q43 0 70.5 0.5t48 1t39 1t43.5 0.5h18q2 -4 4 -7t2 -8v-9.5t-2 -10.5q-32 -4 -53.5 -8t-28.5 -17q-2 -3 -3 -9.5t0 -16.5q0 -7 3.5 -15t5.5 -13l54 -112q5 -10 15.5 -31.5
t24 -47t27.5 -51.5t24 -44q12 19 32 57t52 101q21 42 35.5 71.5t22.5 48.5q4 10 5 19t1 18q0 5 -1.5 13t-6.5 16q-3 5 -11.5 9t-20 7.5t-24 6t-23.5 4.5q-1 2 -1 7.5v9.5q0 9 4 17q20 0 51 -2t69 -2q8 0 26 0.5t39.5 1t43.5 1t37 0.5q2 -3 4 -7.5t2 -9.5z" />
    <glyph glyph-name="Z" unicode="Z" horiz-adv-x="721" 
d="M669 70q-1 -7 -2 -16.5t-2 -18t-2 -15.5t-2 -9q-2 -5 -4 -8t-14 -3l-60 1q-26 0 -57 0.5t-63.5 0.5h-64h-58.5h-38.5t-51 -0.5t-57 -1t-56.5 -1.5q-22 -1 -50.5 -1.5t-57.5 -0.5q-4 4 -4 13.5v13.5l123 173l316 481l-78 2q-12 0 -31.5 0.5t-35.5 0.5q-49 0 -68 -10
q-15 -8 -32 -19.5t-36 -29.5q-18 -18 -33.5 -40t-27.5 -48q-3 -2 -11 -4t-13 -2q-2 0 -10.5 3t-10.5 5q0 6 0.5 13t1 16.5t2 24t4.5 35.5q0 3 1 12t2.5 21t3.5 25.5t3 24.5q3 5 5.5 8.5t9.5 3.5h223q71 0 130 0.5t102.5 1t69 1t29.5 0.5q5 -2 7 -8t0 -14q-5 -8 -9 -14
t-9 -13l-413 -631q8 -1 27 -1.5t35 -0.5h60q55 0 88 3.5t52 12.5t38.5 26.5t37 39.5t33 46t27.5 45q3 2 11 3t11 1t10.5 -2t11.5 -6z" />
    <glyph glyph-name="bracketleft" unicode="[" horiz-adv-x="467" 
d="M398 672q-19 1 -37.5 1.5t-37.5 0.5q-59 0 -71 -3q-5 -2 -6 -8q-1 -4 -1 -12t-2 -22q0 -11 -0.5 -25t-0.5 -35v-639q0 -14 15 -17q14 -3 82 -3h26t31 2l9 -28l-9 -21h-114h-11.5t-23.5 -1q-13 0 -31 -0.5l-36 -1t-32 -0.5h-20q-17 0 -23 3q-6 1 -6 11l6 234q1 29 1.5 81
t0.5 130v170.5t-1 63.5l-3 66q-1 23 -1.5 41.5t-0.5 32.5q0 21 5 28q5 5 23 5q6 0 22.5 -0.5t38.5 -1t46.5 -1.5t46.5 -3h67h48l9 -22z" />
    <glyph glyph-name="backslash" unicode="\" horiz-adv-x="528" 
d="M584 -176q3 -6 0 -11t-9 -8t-14 -5t-14 -2q-10 0 -26 6t-24 19l-477 875q-3 6 -0.5 11t8.5 8t14 5t15 2q10 0 28 -5.5t26 -18.5l473 -876v0z" />
    <glyph glyph-name="bracketright" unicode="]" horiz-adv-x="467" 
d="M368 -126q0 -10 -7 -11q-6 -3 -22 -3h-18t-26.5 0.5t-30.5 1t-29 0.5q-14 1 -21 1h-9h-135l-8 21l8 28q17 -2 31.5 -2h26.5q33 0 54 0.5t28 2.5q15 3 15 17v638q0 21 -0.5 35.5t-0.5 25.5q-2 14 -2 22t-1 12q-1 6 -6 8q-12 3 -71 3q-19 0 -38 -0.5t-38 -1.5l-8 26l8 22
h49h77q23 2 45.5 3t42.5 1.5t35 1t21 0.5q18 0 23 -5q5 -7 5 -28q0 -14 -0.5 -32.5t-1.5 -41.5l-3 -66q-1 -4 -1 -63.5v-170.5q0 -78 0.5 -130t1.5 -81l6 -234v0z" />
    <glyph glyph-name="asciicircum" unicode="^" horiz-adv-x="780" 
d="M574 301l-183 337l-184 -337h-90l234 417h79l234 -417h-90z" />
    <glyph glyph-name="underscore" unicode="_" horiz-adv-x="554" 
d="M-3 -141v54h560v-54h-560z" />
    <glyph glyph-name="grave" unicode="`" 
d="M278 536q0 -8 -12.5 -10.5t-23.5 2.5q-57 29 -96.5 49.5t-67.5 37.5q-29 18 -36 31.5t-7 27.5q0 8 2 17.5t8.5 18t18 14.5t30.5 6q18 0 30 -5t21 -13t15.5 -17.5t13.5 -17.5q6 -7 16.5 -20.5t24 -31t29 -37.5t31.5 -40q2 -2 2.5 -6t0.5 -6z" />
    <glyph glyph-name="a" unicode="a" horiz-adv-x="514" 
d="M531 47q-9 -15 -25.5 -26t-35 -18t-38 -10.5t-36.5 -3.5q-12 0 -25.5 1.5t-26 5t-22.5 10t-16 15.5q-5 9 -7 23t-2 22h-3q-25 -29 -65.5 -53t-88.5 -24q-50 0 -80 27t-30 74q0 25 8.5 48t28.5 42q23 21 62 40t87 37l78 29q0 32 -0.5 57t-1.5 39q-4 15 -16 27t-30 12
q-17 0 -33.5 -4t-21.5 -12q6 -12 10.5 -23t4.5 -30q0 -32 -20.5 -51.5t-59.5 -19.5q-42 0 -63 22.5t-21 48.5q0 28 14 45t34 28q28 15 65.5 26t87.5 11q97 0 146.5 -31t49.5 -94l1 -253q0 -19 12 -25t23 -6t21 7t18 15q8 -1 12.5 -10t4.5 -18zM296 245q-5 -3 -17 -7.5
t-29 -12.5q-42 -20 -58.5 -41.5t-16.5 -45.5q0 -25 14.5 -40t35.5 -15q17 0 37.5 8.5t31.5 25.5v67q0 12 1 30t1 31z" />
    <glyph glyph-name="b" unicode="b" horiz-adv-x="598" 
d="M570 223q0 -54 -14.5 -97.5t-46.5 -74.5q-63 -65 -167 -65q-26 0 -53 4t-65 22q-6 3 -16.5 8t-21.5 10t-20.5 8.5t-13.5 4.5q-8 -7 -21 -18.5t-24 -23.5q-7 -3 -14 -3q-5 0 -13.5 2.5t-13.5 5.5q0 13 2 26.5t2 21.5v172q0 16 0.5 39t1.5 57.5t1.5 83.5t0.5 116
q0 34 -0.5 61t-1.5 53q-5 6 -9.5 9.5t-11.5 6.5t-18.5 6.5t-29.5 9.5q-2 5 -3 10t-1 8t1 9t3 11q53 0 105 5.5t89 16.5q15 -2 28 -13v-184v-23.5t-0.5 -35t-0.5 -37v-29.5l3 -2q21 23 51.5 41t71.5 18q61 0 114.5 -29t83.5 -96q12 -26 17 -54.5t5 -60.5zM414 222
q0 57 -15 100q-14 34 -39 52t-57 18q-20 0 -37 -4.5t-27 -15.5q-8 -8 -12.5 -16t-7.5 -20q-2 -10 -3.5 -34t-1.5 -50v-117q0 -21 2 -37.5t3 -18.5q2 -7 9 -15t18 -14.5t24.5 -11t28.5 -4.5q36 0 60 23q30 23 42.5 67.5t12.5 97.5z" />
    <glyph glyph-name="c" unicode="c" horiz-adv-x="485" 
d="M484 113q0 -14 -20 -43q-30 -42 -79.5 -62.5t-109.5 -20.5q-36 0 -68.5 8.5t-65.5 25.5q-57 29 -87 83t-30 119q0 67 34 125t109 89q29 12 61 18t73 6q43 0 73.5 -11.5t49.5 -27.5q13 -11 24.5 -30.5t11.5 -46.5q0 -32 -19 -56.5t-57 -24.5q-35 0 -59 17.5t-24 50.5
q0 23 6 33.5t6 14.5q0 24 -15 32.5t-35 8.5q-34 0 -55 -44q-26 -52 -26 -135q0 -39 10 -76t27 -60q19 -26 43 -39.5t58 -13.5t67.5 14.5t58.5 62.5q28 0 38 -17z" />
    <glyph glyph-name="d" unicode="d" horiz-adv-x="609" 
d="M611 25q0 -4 -1 -10t-3 -11h-60q-39 0 -74.5 -6t-62.5 -20q-5 -1 -13.5 1t-13.5 5l1 78l-2 1q-23 -30 -59 -54t-87 -24q-90 0 -148 67q-59 69 -59 178q0 78 30 130q65 106 182 106q35 0 68 -13t66 -44l2 1l-2 69l-1 172q-28 6 -59 17.5t-50 21.5q-1 3 -1 8v8q0 10 6 19
q6 0 20 -1.5t32 -3.5t38.5 -3.5t40.5 -1.5q32 0 59 5.5t45 9.5l23 -13v-7v-12v-29t-1 -59q-1 -38 -1.5 -58.5t-0.5 -25.5l2 -456q18 -6 39 -12.5t41 -13.5q2 -5 3 -11t1 -8zM379 315l-1 43q-16 26 -38.5 34t-45.5 8t-40.5 -10.5t-34.5 -32.5q-33 -43 -33 -120q0 -86 36 -134
q30 -41 73 -41q58 0 86 51z" />
    <glyph glyph-name="e" unicode="e" horiz-adv-x="501" 
d="M480 113q0 -12 -19 -43q-30 -42 -80.5 -62.5t-109.5 -20.5q-51 0 -96 15.5t-81 47.5q-35 32 -52.5 73.5t-17.5 89.5q0 104 71 180q72 67 172 67q51 0 93.5 -16t71.5 -47q23 -26 34 -51t11 -58q0 -12 -4 -26t-14 -16t-34 -2h-245q0 -6 -0.5 -12.5t-0.5 -14.5
q0 -34 7.5 -64t19.5 -49q15 -23 40.5 -39.5t58.5 -16.5q42 0 78 19t59 62q11 0 22 -4t16 -12zM326 342q0 17 -5 29t-14 23q-19 25 -46 25q-35 0 -58 -36.5t-23 -93.5h56q17 0 37 0.5t27 1.5q12 2 15 5q5 5 8 18.5t3 27.5z" />
    <glyph glyph-name="f" unicode="f" horiz-adv-x="360" 
d="M451 632q0 -30 -19 -53t-55 -23q-32 0 -54 16.5t-22 47.5q0 11 3 19.5t8 22.5q2 4 2 8q0 9 -7.5 13.5t-19.5 4.5q-24 0 -34 -23q-6 -12 -10.5 -42.5t-4.5 -83.5q0 -24 0.5 -40t0.5 -26.5t0.5 -16t0.5 -9.5h117q2 -4 4.5 -12t2.5 -13q0 -4 -2 -13t-4 -14h-114v-305
q0 -19 4 -29t14 -14t25.5 -5t38.5 -4q5 -10 5 -17q0 -4 -1.5 -10t-3.5 -10h-156q-29 0 -68.5 -1.5t-79.5 -1.5q-2 2 -3 8.5t-1 9.5q0 10 4 18q19 3 32.5 5.5t22.5 7.5t13 15t4 28v305h-88q-2 5 -2.5 13t-0.5 13q0 4 1 12t3 14h61q8 0 15.5 1t9.5 3v25q0 70 3 98q3 39 20 68
t44 47.5t62 28t75 9.5q29 0 57 -6t49.5 -17.5t34.5 -29.5t13 -42z" />
    <glyph glyph-name="g" unicode="g" horiz-adv-x="605" 
d="M603 393q0 -11 -3 -23t-9 -18q-13 -13 -33 -13q-9 0 -17.5 2.5t-15.5 10.5q-3 3 -4.5 8t-5.5 11q-5 9 -9.5 11.5t-9.5 2.5q-26 0 -26 -37q0 -5 3.5 -13t5.5 -15q3 -14 4 -23t3 -16q5 -25 -8.5 -54t-34.5 -47q-50 -42 -163 -42q-9 0 -27.5 1.5t-29.5 1.5q-26 0 -40.5 -9.5
t-14.5 -25.5t13 -22t35 -10q6 -2 37.5 -6t91.5 -10q57 -7 82 -12q32 -6 57.5 -22t40.5 -39q26 -38 26 -84q0 -73 -61 -114q-22 -11 -43.5 -20t-44.5 -14q-28 -5 -57 -8t-61 -3q-50 0 -88 5.5t-64 13.5q-50 17 -73.5 43t-23.5 56q0 32 23.5 53t62.5 21q44 0 63 -18.5
t19 -43.5q0 -29 -28 -46q21 -21 49.5 -30.5t68.5 -9.5q36 0 62 8.5t44 21.5q16 11 21.5 25.5t5.5 28.5q0 22 -11 35.5t-34 23.5q-17 7 -45.5 11t-73.5 9q-26 3 -49.5 6.5t-35.5 5.5q-59 11 -95.5 35.5t-36.5 65.5q0 34 26 60t84 40q-59 23 -85 57t-26 82q0 33 13.5 62.5
t41.5 52.5q31 25 71.5 37t88.5 12q38 0 72 -7t66 -24q17 -10 27 -19.5t21 -19.5q8 12 18 24t26 23q23 16 48 16q32 0 49 -17q9 -9 13 -22t4 -26zM338 300q0 62 -21 94q-19 31 -52 31q-17 0 -29 -8.5t-24 -26.5q-21 -30 -21 -86t24 -91q24 -34 57 -34q17 0 27.5 7.5
t19.5 22.5q19 30 19 91z" />
    <glyph glyph-name="h" unicode="h" horiz-adv-x="611" 
d="M601 15q0 -3 -2 -8t-4 -8q-20 0 -41.5 0.5t-42 1.5t-37.5 1.5t-27 0.5q-11 0 -29.5 -0.5t-37.5 -1t-33.5 -1t-17.5 -0.5q-4 8 -4 18q0 3 1 8.5t3 8.5q17 3 28.5 6t18 7.5t9 11t2.5 17.5v51q0 52 -0.5 85t-1.5 54q-2 25 -3.5 38.5t-3.5 23.5q-8 28 -27 41.5t-39 13.5
q-26 0 -46.5 -11t-33.5 -28v-9.5t-0.5 -8t-1 -13.5t-0.5 -26v-135v-38.5t1 -24t2 -15.5t3 -13q3 -12 18 -19t38 -9q2 -3 3.5 -8.5t1.5 -9.5t-2 -8.5t-4 -8.5q-16 0 -36 0.5t-38.5 1t-33 1t-19.5 0.5q-7 0 -29 -0.5t-46.5 -0.5t-46 -0.5t-27.5 -0.5q-3 9 -3 18q0 4 1 10t2 9
q18 2 31.5 2.5t21.5 5t12 14.5t4 30v155l-2 259q-1 56 -4 90.5t-8 40.5q-12 14 -28.5 18t-36.5 13q-3 1 -5 6.5t-2 11.5v9.5t2 10.5q56 4 106.5 9.5t96.5 18.5q7 -1 16.5 -4.5t9.5 -11.5v-326h1q30 37 70.5 55t82.5 18q45 0 76.5 -18t48.5 -50q12 -23 18 -59.5t7 -73.5
l4 -166q1 -31 15.5 -43t43.5 -18q2 -4 3.5 -10t1.5 -9z" />
    <glyph glyph-name="i" unicode="i" 
d="M253 643q0 -38 -24 -62.5t-67 -24.5q-45 0 -67.5 24.5t-22.5 62.5q0 41 27 64.5t66 23.5q43 0 65.5 -26t22.5 -62zM320 15q0 -2 -1 -7.5t-5 -9.5q-19 0 -45 0.5t-43 1.5q-21 1 -50.5 1.5t-49.5 0.5h-104q-2 3 -3 9t-1 9q0 4 1.5 10.5t4.5 9.5q23 2 36 4t20 6t10 11t5 19
v214q0 25 -1 54t-1 48q-27 7 -50 16.5t-32 14.5q-2 6 -1.5 17t3.5 17q18 -2 46 -3t59 -1q33 0 60.5 3t45.5 5q6 -2 13.5 -7.5t10.5 -13.5q-1 -11 -1.5 -26.5t-1.5 -32t-1.5 -31t-0.5 -23.5v-250q0 -14 4 -22t12.5 -12.5t22.5 -7.5t34 -6q4 -8 4 -18z" />
    <glyph glyph-name="j" unicode="j" horiz-adv-x="330" 
d="M259 643q0 -38 -24 -62.5t-67 -24.5q-45 0 -67.5 24.5t-22.5 62.5q0 41 27 64.5t66 23.5q43 0 65.5 -26t22.5 -62zM261 -13q0 -54 -4.5 -87.5t-12.5 -51.5q-12 -25 -32.5 -44.5t-49.5 -31.5q-50 -22 -111 -22q-36 0 -60 7t-47 21q-18 11 -28.5 29.5t-10.5 39.5
q0 32 18.5 50.5t55.5 18.5q26 0 43.5 -13.5t25.5 -46.5q2 -8 5 -18t4 -12q2 -6 5.5 -13.5t5.5 -9.5q8 -9 22 -9q8 0 12.5 8.5t5.5 17.5t2 20t1 34v383v49t-2 37q-2 19 -5 24.5t-18 14.5q-7 4 -23.5 10.5t-30.5 11.5q-6 11 -6 22q0 4 1 8.5t4 9.5q35 2 67.5 5t60 7t48 7.5
t30.5 5.5l22 -11q1 -5 1.5 -11.5t0.5 -13.5q0 -13 -1 -30t-1 -22l2 -317v-77v0z" />
    <glyph glyph-name="k" unicode="k" horiz-adv-x="602" 
d="M615 8q0 -8 -7 -17q-10 0 -26.5 0.5t-33 1.5t-30.5 2t-20 1q-21 2 -69 2.5t-111 0.5q-4 7 -4 16q0 3 0.5 8t2.5 8q17 5 25 9.5t13 10.5q-5 9 -12.5 21.5t-24.5 35.5l-42 59q-12 17 -17 24t-15 7q-7 0 -11 -5l1 -74q0 -19 0.5 -31t2.5 -26q2 -15 14.5 -20.5t35.5 -8.5
q4 -8 4 -15q0 -3 -1.5 -7.5t-3.5 -7.5q-8 0 -23 -2t-28 -1q-20 2 -42.5 2.5t-51.5 0.5q-32 0 -65.5 -1.5t-56.5 -1.5q-3 9 -3 17q0 3 1 8.5t3 9.5q24 5 38 11.5t21 15.5t9 19.5t2 22.5v389q0 15 -0.5 33.5t-1 37.5t-1 36.5t-1.5 30.5q-24 12 -46 24.5t-34 20.5q-2 5 -3 10.5
t-1 10.5q0 11 6 18q13 -1 44 -5t60 -4q20 0 35 3t27 7.5t21.5 8.5t19.5 6q6 -1 14 -5.5t13 -7.5q0 -29 -1.5 -48t-1.5 -28v-418q10 8 24 20.5t29 25t27.5 24t19.5 17.5q16 15 24.5 24.5t15.5 19.5q4 5 7 11.5t3 14.5q0 9 -5 13t-15 7q-8 2 -27.5 5l-32.5 5q-3 9 -3 19
q0 3 1 8.5t3 9.5h125l148 6q4 -10 4 -16q0 -5 -2 -10t-4 -9q-27 -6 -51 -14t-40 -18q-11 -7 -20.5 -13.5t-20 -15t-24 -20t-31.5 -28.5l-28 -26l75 -106l75 -104q15 -21 41 -32t54 -16q4 -8 4 -18z" />
    <glyph glyph-name="l" unicode="l" horiz-adv-x="320" 
d="M313 17q0 -2 -1 -8t-2 -9q-3 0 -16.5 0.5t-31.5 0.5t-36 0.5t-29 0.5h-182q-2 2 -3.5 7.5t-1.5 10.5q0 4 1 10t4 11q27 0 42 4.5t22.5 12.5t9.5 21.5t2 31.5v19.5t0.5 36.5t0.5 46v49v201q0 23 -0.5 52t-2 57t-3.5 49t-5 27q-7 5 -16.5 9t-20 7.5t-20 6.5t-15.5 5
q-2 5 -2.5 10.5t-0.5 8.5q0 2 1.5 8t3.5 11h94q14 0 31.5 2.5t33 6t28 6t16.5 2.5q5 0 16 -7.5t11 -17.5v-623q0 -14 3 -22t10.5 -12.5t20.5 -7t34 -5.5q2 -5 3 -10.5t1 -8.5z" />
    <glyph glyph-name="m" unicode="m" horiz-adv-x="889" 
d="M878 18q0 -4 -1.5 -9.5t-3.5 -8.5h-35q-18 0 -48 1t-69 1q-41 0 -72.5 -0.5t-36.5 -0.5q-2 8 -2 18q0 3 0.5 8.5t2.5 9.5q10 1 19.5 2t16.5 4.5t11 12.5t4 25v203q0 26 -3 42q-5 21 -24 41.5t-42 20.5q-29 0 -50.5 -20.5t-21.5 -73.5l2 -213q0 -16 3 -24.5t9.5 -12
t16.5 -4.5t24 -1q2 -3 3 -9t1 -8q0 -5 -1.5 -11t-3.5 -9q-2 0 -14 0.5t-29 0.5t-35.5 0.5t-33.5 0.5q-38 0 -76 -1t-64 -1q-2 10 -2 18q0 2 0.5 9t2.5 10q25 2 38.5 8t13.5 25v131v22v23.5t-0.5 21t-0.5 14.5q-4 46 -23 71.5t-45 25.5q-28 0 -47 -19.5t-26 -56.5l2 -212
q0 -28 9 -40t43 -17q2 -3 3.5 -7.5t1.5 -9.5t-2 -10t-4 -9q-14 0 -47 1t-68 1q-47 0 -86.5 -1t-53.5 -1q-3 4 -4 9t-1 9q0 3 1 9.5t3 9.5q15 2 26.5 4t18.5 6t10.5 11.5t3.5 22.5v210q0 23 -2 42.5t-4 31.5q-20 7 -38.5 16t-34.5 19q-1 4 -1 9.5v8.5q0 8 5 20q2 0 10 -1
t19.5 -2t24.5 -2t24 -1q30 0 54.5 13t36.5 24q4 1 8 1h9t9.5 -3t8.5 -5q1 -9 2 -23t1.5 -27.5t1.5 -25t1 -16.5l3 -2q13 27 30 45t36.5 28.5t40 14.5t39.5 4q48 0 82.5 -21t49.5 -74q15 49 52 72t93 23q49 0 84.5 -16.5t52.5 -51.5q15 -30 20 -84q1 -8 1 -24.5v-42.5v-150
q0 -17 2.5 -27t9.5 -15.5t19 -8t31 -4.5q2 -3 3.5 -8t1.5 -10z" />
    <glyph glyph-name="n" unicode="n" horiz-adv-x="611" 
d="M596 17q0 -2 -1.5 -8.5t-3.5 -8.5h-262q-4 8 -4 17q0 11 4 19q30 0 43 13t13 36l2 135q1 35 -1.5 61.5t-6.5 43.5q-15 54 -60 54q-21 0 -39 -6t-34 -29q-5 -6 -4.5 -11t-0.5 -16q0 -7 -0.5 -19.5t-0.5 -29.5v-174q0 -31 9.5 -44.5t41.5 -13.5q3 -4 4.5 -9.5t1.5 -9.5
q0 -7 -5 -17h-266q-2 2 -3.5 7t-1.5 9t1 9t3 10q38 2 52 12.5t16 37.5q1 11 1.5 44t0.5 81q0 59 -1 88t-3 41q-2 14 -4.5 19t-11.5 13q-11 5 -28 11.5t-34 17.5q0 9 1.5 19t6.5 18q4 -1 14 -2t22.5 -2t26 -2t24.5 -1q28 0 53.5 13t42.5 31q7 2 17.5 -0.5t18.5 -7.5l-4 -81
l4 -2q26 37 65 57t82 20q42 0 75 -15.5t50 -48.5q21 -39 21 -126v-190q0 -23 17 -32t43 -15q2 -3 2.5 -8.5t0.5 -7.5z" />
    <glyph glyph-name="o" unicode="o" horiz-adv-x="551" 
d="M523 228q0 -48 -18.5 -90.5t-58.5 -81.5q-81 -69 -172 -69q-45 0 -87.5 15.5t-84.5 49.5q-38 38 -56 79.5t-18 91.5q0 49 18 93t56 79t83 51t90 16q32 0 63 -8t64 -26q58 -33 89.5 -85.5t31.5 -114.5zM365 224q0 54 -6 91.5t-20 60.5q-13 23 -28.5 34t-38.5 11
q-21 0 -35.5 -11t-27.5 -34q-15 -26 -20.5 -62.5t-5.5 -87.5q0 -50 5.5 -86t20.5 -62q12 -23 27.5 -35.5t38.5 -12.5q47 0 68.5 51t21.5 143z" />
    <glyph glyph-name="p" unicode="p" horiz-adv-x="607" 
d="M577 223q0 -99 -56 -164q-49 -57 -142 -57q-36 0 -74.5 11.5t-61.5 35.5h-1q-1 -7 -1 -23.5v-33.5v-74.5t1 -51.5t2.5 -34.5t4.5 -23.5q4 -11 19.5 -17.5t31.5 -6.5h29q6 -9 6 -19q0 -3 -1.5 -8.5t-3.5 -8.5q-8 -1 -28.5 -1h-36.5h-256q-4 8 -4 17q0 3 0.5 9.5t2.5 10.5
q31 2 47.5 6.5t24.5 11.5t9.5 17.5t1.5 24.5v123l-4 361q0 21 -1.5 32.5t-9.5 16.5q-16 10 -27 16t-26 19q-2 4 -3 8.5t-1 11.5q0 4 1.5 11t3.5 10q7 0 22 -2.5t37 -2.5q6 0 22.5 2t35 5t37 7.5t28.5 9.5q9 2 18 -2.5t14 -6.5q0 -16 -1.5 -36t-2.5 -31l2 -1q31 38 66.5 52
t67.5 14q61 0 110 -30t76 -93q11 -26 16 -56t5 -59zM420 230q0 40 -7 70t-24 50q-29 40 -74 40q-24 0 -43.5 -8t-37.5 -34v-72q0 -35 0.5 -69.5t2.5 -66.5q1 -16 3 -27t4 -17q4 -7 12.5 -12.5t19 -8.5t21.5 -4.5t21 -1.5q28 0 52 21q26 20 38 52.5t12 87.5z" />
    <glyph glyph-name="q" unicode="q" horiz-adv-x="598" 
d="M605 -234q0 -7 -5 -17q-6 -1 -19 -1h-26h-26t-32.5 0.5t-32 0.5h-25.5h-23t-37 -0.5t-45.5 -0.5h-47.5q-2 3 -2.5 10t-0.5 9q0 3 1 8t3 9q30 1 48 3.5t27 7.5t12 14t3 23l1 213l-2 1q-35 -34 -72.5 -46t-68.5 -12q-29 0 -56.5 8.5t-55.5 25.5q-48 29 -70.5 78t-22.5 114
q0 51 13 93t42 77t76.5 56.5t98.5 21.5q31 0 63.5 -5.5t65.5 -24.5q11 -6 24.5 -15t21.5 -12q6 3 13.5 9.5t15.5 13t15 13t11 10.5q8 2 19.5 1t15.5 -5l1 -432q0 -71 1 -122.5t3 -76.5q1 -18 14 -23.5t55 -7.5q6 -6 6 -19zM379 307q0 17 -1.5 33t-5.5 27q-2 8 -8 15.5
t-17 16.5q-13 11 -25 14.5t-29 3.5q-20 0 -39.5 -11t-34.5 -36q-19 -29 -26.5 -62t-7.5 -74q0 -28 3.5 -53t12.5 -49q27 -73 94 -73q29 0 50.5 8.5t34.5 31.5z" />
    <glyph glyph-name="r" unicode="r" horiz-adv-x="479" 
d="M469 369q0 -38 -20.5 -64.5t-58.5 -26.5q-13 0 -27.5 6t-22.5 14q-9 9 -14.5 16.5t-11.5 18.5q-7 11 -19 11q-8 0 -13.5 -4t-7.5 -7q-9 -11 -16.5 -19.5t-15.5 -24.5q0 -9 -0.5 -25.5t-0.5 -28.5v-44.5t0.5 -45.5t1 -40.5t0.5 -28.5q1 -21 17 -28t63 -9l4 -10t2 -9
q0 -5 -1.5 -10.5t-3.5 -8.5q-26 0 -61 0.5t-71 0.5q-45 0 -86 -1.5t-80 -1.5q-4 8 -4 18q0 2 1 9t2 10q23 3 37 4t21.5 5t10 13.5t2.5 27.5v168q0 56 -2 80.5t-7 29.5q-20 12 -40.5 19t-31.5 21q-1 3 -2 9t-1 10q0 10 5 20q8 0 16 -2.5t19 -5t25.5 -5t34.5 -2.5
q27 0 49.5 10t38.5 37q4 2 9 2h9t8.5 -3l7.5 -5q1 -7 1 -15.5v-16.5l-3 -90h6q31 51 61 80.5t74 29.5q41 0 68.5 -21.5t27.5 -66.5z" />
    <glyph glyph-name="s" unicode="s" horiz-adv-x="452" 
d="M427 133q0 -33 -14 -60.5t-38 -46.5q-55 -40 -136 -40q-36 0 -70 7.5t-74 24.5l-39 -16q-10 -2 -17.5 3t-8.5 12q5 11 9 29t4 32q0 22 -3 42.5t-7 37.5q4 5 16 7.5t20 0.5q3 -6 7.5 -17t10.5 -23t13 -24t14 -20q46 -55 98 -55q36 0 57.5 18t21.5 50q0 20 -12 31t-29 21
q-14 8 -33.5 15t-46.5 16q-31 11 -52 23.5t-35 23.5q-19 14 -31.5 43t-12.5 61q0 28 12 52.5t34 42.5t53.5 28.5t70.5 10.5q44 0 78 -11t51 -25q15 11 27.5 15t23.5 9q19 0 26 -13q-6 -16 -10.5 -30t-4.5 -25q0 -26 6 -46.5t11 -31.5q-1 -8 -12 -11t-19 -3q-14 13 -29 35.5
t-27 46.5q-19 24 -43 37.5t-52 13.5q-29 0 -47 -16.5t-18 -40.5q0 -32 23 -48q10 -7 49 -21q44 -15 71 -26t50 -28q26 -20 45 -45.5t19 -65.5z" />
    <glyph glyph-name="t" unicode="t" horiz-adv-x="383" 
d="M379 92q-1 -18 -11.5 -35.5t-29.5 -34.5q-18 -15 -46 -22.5t-60 -7.5q-23 0 -46 5t-43 14q-34 17 -50 45.5t-16 66.5l3 269h-70q-2 3 -3.5 13t-1.5 15t2 12.5t4 12.5q38 5 65.5 19.5t39.5 31.5q9 12 18 41t14 57q2 1 8 2t12.5 1.5t12 1t8.5 0.5q10 0 22 -2t17 -4v-145
h119q10 -10 10 -27q0 -5 -2 -14t-6 -15l-125 1l-1 -281q10 -25 24.5 -39t37.5 -14q15 0 31.5 7.5t27.5 32.5q2 1 10 2t13 -1q6 -2 5.5 -3.5t6.5 -4.5z" />
    <glyph glyph-name="u" unicode="u" horiz-adv-x="605" 
d="M597 28q0 -5 -1.5 -10t-2.5 -8q-1 0 -11 -0.5t-23 -0.5t-25 -0.5t-17 -0.5q-38 -4 -65.5 -10.5t-49.5 -11.5q-8 2 -15.5 4.5t-9.5 8.5v66h-3q-27 -42 -65.5 -60.5t-79.5 -18.5q-38 0 -69 11.5t-53 35.5q-14 15 -21.5 36.5t-8.5 46.5l-3 229q0 22 -3 34t-10.5 18t-21.5 8
t-37 4q-2 4 -2.5 10t-0.5 10q0 9 4 19h180h21t14 -2q7 -5 7 -22v-262q0 -44 17 -68q11 -18 23.5 -25t29.5 -7q27 0 48 17t31 43v129v64.5t-1 43.5t-2.5 22t-9 14.5t-22.5 9t-42 4.5q-3 5 -3.5 11t-0.5 9t1.5 8.5t4.5 10.5h199h13t10 -1q6 -2 6 -11q0 -5 -2 -24.5t-2 -54.5
v-255q0 -19 3 -34q6 -2 15.5 -4.5t19 -5.5t18 -6t14.5 -5q4 -8 4 -19z" />
    <glyph glyph-name="v" unicode="v" horiz-adv-x="530" 
d="M540 431q0 -5 -1 -9.5t-3 -9.5q-29 -4 -56.5 -23.5t-43.5 -59.5l-53 -138q-3 -9 -12 -29t-19.5 -44t-21.5 -49t-18 -44q-11 -27 -28 -34t-28 -7q-1 0 -6.5 0.5t-11 1.5t-10.5 2t-6 3q-5 11 -9 25.5t-6 19.5l-104 267q-15 40 -24 57t-14 24q-8 12 -24.5 19.5t-45.5 10.5
q-2 4 -2.5 9.5t-0.5 8.5t2 9.5t4 8.5q7 0 24.5 -0.5t39.5 -0.5t45 -0.5t41 -0.5q4 0 20.5 0.5t37.5 1t43 0.5h36q2 -2 4 -8t2 -10q0 -5 -1.5 -10.5t-3.5 -9.5q-21 0 -32 -3t-16.5 -6.5t-6 -8t-0.5 -7.5q0 -8 4 -19.5t11 -30.5l73 -194l48 118q20 50 28.5 76.5t8.5 40.5
q0 9 -5.5 16.5t-10.5 9.5q-8 2 -21.5 3.5t-24.5 2.5q-2 4 -3 9.5t-1 9.5q0 10 5 18h192q2 -3 3.5 -8t1.5 -8z" />
    <glyph glyph-name="w" unicode="w" horiz-adv-x="812" 
d="M822 430q0 -9 -5 -19q-11 0 -24 -3.5t-26.5 -13.5t-27 -28t-24.5 -46l-120 -290q-8 -21 -17 -33q-6 -8 -19.5 -10t-21.5 -3t-23 2t-18 12l-89 285l-86 -232q-7 -18 -14.5 -36.5t-11.5 -25.5q-2 -1 -7.5 -2t-12.5 -1.5t-13 -1t-8 -0.5q-4 0 -16.5 2t-15.5 5
q-2 4 -5.5 12.5t-7.5 19.5l-122 328q-7 18 -16.5 31t-14.5 17q-6 5 -21.5 8.5t-32.5 5.5q-2 5 -3 10t-1 8q0 4 1 9t3 10q5 0 22 -0.5t38.5 -0.5t45.5 -0.5t43 -0.5q40 0 74 1.5t57 1.5q2 -2 4 -7.5t2 -10.5q0 -6 -1.5 -10t-3.5 -9q-31 -1 -40 -10t-9 -18q0 -10 5 -25
l76 -220l73 201l-20 60q-1 3 -7 5t-13.5 3.5t-15.5 2t-14 0.5q-5 8 -5 19q0 2 1.5 8t3.5 9h32.5h37.5t35.5 -0.5t25.5 -0.5q16 0 36 0.5t38.5 0.5h32h14.5q2 -3 3.5 -8t1.5 -8q0 -2 -0.5 -8.5t-2.5 -9.5q-22 -4 -35.5 -6t-13.5 -16t10 -44l65 -205l79 197q4 10 6.5 20.5
t2.5 24.5q0 8 -7.5 12.5t-17.5 7t-20.5 4l-17.5 2.5q-2 3 -2.5 8.5t-0.5 8.5q0 9 4 19q18 0 36.5 -1t40.5 -1q6 0 25 0.5t39 1.5q24 1 52 1q2 -3 3.5 -8.5t1.5 -10.5z" />
    <glyph glyph-name="x" unicode="x" horiz-adv-x="552" 
d="M553 17q0 -7 -4 -17q-24 0 -58 1t-64 1q-21 0 -46.5 -0.5t-49 -0.5t-41.5 -0.5t-25 -0.5q-4 8 -4 16q0 4 1 9.5t3 9.5q15 2 27.5 5.5t12.5 17.5q0 10 -5.5 20t-14.5 23l-53 83l-65 -89q-3 -5 -6.5 -11.5t-3.5 -14.5q0 -9 6 -15t15 -9.5t20 -5t21 -2.5q3 -5 4 -10t1 -10
q0 -8 -4 -16q-18 0 -48 1t-67 1q-35 0 -61 -1.5t-37 -1.5q-4 8 -4 18t4 18q34 8 57 20t42 35l100 123l-95 136q-17 24 -28 32t-19 13q-4 3 -22.5 7t-31.5 6q-2 2 -3.5 8.5t-1.5 11.5q0 3 1.5 8.5t4.5 9.5q17 0 53.5 -1.5t74.5 -1.5q40 0 78 1.5t80 1.5q2 -3 3 -8.5t1 -7.5
q0 -10 -3 -18q-15 -3 -28.5 -8.5t-13.5 -16.5q0 -6 6 -12l60 -91l51 67q3 5 10 15.5t7 18.5q0 12 -10.5 17t-28.5 9q-3 4 -3.5 9.5t-0.5 9.5q0 2 0.5 7.5t2.5 8.5q27 0 54 -0.5t67 -0.5h64q2 -4 4 -8.5t2 -8.5t-2 -9l-4 -10q-28 -2 -55 -14t-38 -26l-97 -115l124 -180
q11 -16 31.5 -25t47.5 -14q2 -3 3.5 -9.5t1.5 -8.5z" />
    <glyph glyph-name="y" unicode="y" horiz-adv-x="530" 
d="M544 427q0 -5 -1.5 -9t-3.5 -9q-29 -1 -52 -20t-38 -54l-85 -201q-6 -13 -17 -43t-25 -66.5t-28 -73.5t-26 -64q-9 -21 -15.5 -35.5t-13 -26t-13.5 -22t-17 -22.5q-16 -20 -44 -29.5t-49 -9.5q-48 0 -75.5 22.5t-27.5 66.5q0 32 20.5 57.5t58.5 25.5q18 0 38.5 -7
t31.5 -23q2 -5 7.5 -22.5t19.5 -34.5q20 28 37.5 67t35.5 86q-16 4 -27 9.5t-20 27.5q-16 38 -30.5 73.5t-30.5 73.5t-33.5 80.5t-39.5 94.5q-3 7 -7 15.5t-8 16.5l-7 14t-5 8q-2 3 -9.5 6t-17.5 5t-19.5 4t-15.5 3q-1 5 -2 10.5t-1 8.5q0 7 4 17h25q47 0 86 -1.5t66 -1.5
l109 1q2 -3 4 -8.5t2 -8.5q0 -5 -2 -11t-4 -8q-13 -1 -22.5 -2.5t-16 -4.5t-10 -9.5t-3.5 -17.5q0 -10 6 -27l60 -149q16 -41 28 -69q12 30 25 62t25 62t22 56t16 45q-5 20 -8 27.5t-11 16.5q-6 2 -22 4t-27 4q-3 4 -3.5 9.5t-0.5 9.5q0 2 1 8t3 10q21 0 49 -1t54 -1
q6 0 17 0.5t22.5 1.5t22 1.5t15.5 0.5h9.5t8.5 -1q2 -4 3.5 -9t1.5 -9z" />
    <glyph glyph-name="z" unicode="z" horiz-adv-x="492" 
d="M473 151q0 -32 -1.5 -67t-1.5 -61q0 -12 -2 -15.5t-10 -5.5q-5 -1 -22 -1.5t-34 -0.5q-33 0 -69 0.5t-69 1t-60 1t-43 0.5q-11 0 -33 -0.5t-44.5 -1t-41 -1t-22.5 -0.5q-3 2 -5 5t-2 11v7.5t2 6.5l94 118q38 48 77 106.5t77 113.5q6 9 9 13t5.5 7l5 6t7.5 10l-1 2
l-134 -1q-10 0 -15 -6q-9 -11 -16 -21.5t-18 -29.5t-19 -31t-21 -26q-9 0 -19 3.5t-15 5.5q0 23 0.5 41.5t1.5 34t1.5 30.5t0.5 31q0 14 11 14q2 0 10 -0.5t18 -1l20 -1t15 -0.5q18 0 54 -1t79 -2t86.5 -2t75.5 -1q15 0 29.5 1t19.5 1q5 -1 9 -9t3 -19l-113 -161
q-17 -24 -30.5 -43.5t-25.5 -37.5t-24.5 -36t-28.5 -39q-7 -9 -12.5 -16t-10.5 -13.5t-10 -12.5t-12 -14l1 -2q67 0 106 1t50 6q6 2 12.5 9.5t11.5 15.5q12 18 27.5 42t25.5 38q9 3 20 3t20 -5z" />
    <glyph glyph-name="braceleft" unicode="{" horiz-adv-x="500" 
d="M438 -118q0 -5 -1.5 -12t-4.5 -12q-49 0 -95.5 6.5t-82.5 25t-58 50.5t-22 83v117q0 33 -10.5 55.5t-30 37t-46 21.5t-59.5 10q-3 5 -3.5 13t-0.5 14q0 5 1 12.5t3 12.5q33 3 60 10.5t46 21.5t29.5 36.5t10.5 55.5v117q0 51 22 83t58 50.5t82.5 25t95.5 6.5q2 -5 4 -11.5
t2 -11.5q0 -13 -6 -24q-21 0 -42.5 -3t-39 -13t-28 -30t-10.5 -54v-96q0 -49 -16 -82t-42 -54t-59 -32.5t-67 -18.5v-4q34 -7 67 -18.5t59 -32.5t42 -53.5t16 -82.5v-96q0 -34 10.5 -54t27.5 -30t38.5 -13t43.5 -3q2 -5 4 -11.5t2 -11.5z" />
    <glyph glyph-name="bar" unicode="|" horiz-adv-x="528" 
d="M225 -202v927h78v-927h-78z" />
    <glyph glyph-name="braceright" unicode="}" horiz-adv-x="500" 
d="M476 291q0 -6 -0.5 -14t-3.5 -13q-33 -3 -59.5 -10t-46 -21.5t-30 -37t-10.5 -55.5v-117q0 -51 -22 -83t-58 -50.5t-82.5 -25t-95.5 -6.5q-3 5 -4.5 12t-1.5 12t2 11.5t4 11.5q22 0 43.5 3t38.5 13t27.5 30t10.5 54v96q0 50 16 82.5t42 53.5t59 32.5t67 18.5v4
q-34 7 -67 18.5t-59 32.5t-42 54t-16 82v96q0 34 -10.5 54t-28 30t-39 13t-42.5 3q-6 11 -6 24q0 5 2 11.5t4 11.5q49 0 95.5 -6.5t82.5 -25t58 -50.5t22 -83v-117q0 -33 10.5 -55.5t29.5 -36.5t46 -21.5t60 -10.5q2 -5 3 -12.5t1 -12.5z" />
    <glyph glyph-name="asciitilde" unicode="~" horiz-adv-x="780" 
d="M690 343q-6 -34 -24 -65.5t-44 -56.5t-58.5 -40t-67.5 -15q-23 0 -55 12t-80 35q-38 18 -71.5 31t-50.5 13q-18 0 -33 -8t-27 -20t-21 -27t-14 -29q-3 -10 -10.5 -17.5t-19.5 -7.5q-13 0 -21 10t-4 27q6 34 24 65.5t44 56t58.5 39t67.5 14.5q23 0 60.5 -14t76.5 -32
t71 -31t49 -13q18 0 33 8t27 21t21 28t14 29q4 8 11.5 15.5t18.5 7.5q13 0 20.5 -9t4.5 -27z" />
    <glyph glyph-name="nonbreakingspace" unicode="&#xa0;" horiz-adv-x="266" 
 />
    <glyph glyph-name="exclamdown" unicode="&#xa1;" horiz-adv-x="372" 
d="M261 419q0 -35 -20.5 -58t-61.5 -23q-36 0 -56 21.5t-20 55.5q0 38 20.5 61t58.5 23q39 0 59 -23t20 -57zM262 -140q0 -35 -7 -52q-10 -23 -31.5 -34.5t-41.5 -11.5q-17 0 -37 6t-28 16q-20 20 -20 57q0 24 6.5 61.5t14.5 95.5q11 84 24.5 151t18.5 121q10 8 13 10t10 2
q4 0 7.5 -2t12.5 -8q1 -6 6 -34t11 -67t13 -84t12 -85q6 -48 11 -82t5 -60z" />
    <glyph glyph-name="cent" unicode="&#xa2;" horiz-adv-x="578" 
d="M520 124q0 -11 -4.5 -20t-15.5 -23q-35 -44 -82 -63.5t-107 -19.5q-14 0 -26.5 1.5t-25.5 3.5l-46 -127q-4 -11 -13 -14.5t-15 -3.5q-9 0 -16 6t-5 13l50 140q-8 3 -17 7t-18 9q-57 29 -85.5 82.5t-28.5 118.5q0 33 8.5 65.5t25.5 60.5t43 50.5t61 37.5q29 12 60.5 18
t72.5 6q9 0 19.5 -1t21.5 -3l39 107q5 13 14.5 16t15.5 3q9 0 15.5 -7.5t4.5 -13.5l-43 -119q29 -12 51 -36t22 -62q0 -32 -19 -55.5t-57 -23.5q-33 0 -54 19l-79 -215q28 -17 69 -17q29 0 58.5 11.5t52.5 43.5q6 8 13 16t17 8t16.5 -5.5t6.5 -13.5zM357 411q-6 11 -18.5 16
t-29.5 5q-41 0 -68.5 -45.5t-27.5 -133.5q0 -38 10 -77t27 -61l107 296v0z" />
    <glyph glyph-name="sterling" unicode="&#xa3;" horiz-adv-x="687" 
d="M657 192q0 -27 -8.5 -62t-31 -66t-62 -52t-100.5 -21q-51 0 -92.5 23t-79.5 50q-29 -33 -66.5 -54t-81.5 -21q-54 0 -79.5 27.5t-25.5 69.5q0 16 7.5 33.5t21.5 32t34.5 24t46.5 9.5q46 0 89 -9q-2 35 -11 61t-18 55h-110q-14 0 -18.5 6.5t-4.5 17.5t4.5 18t18.5 7h102
q-4 23 -7.5 54.5t-3.5 63.5q0 56 20.5 97t53.5 68t75.5 40t85.5 13q41 0 76.5 -10.5t61.5 -28.5t41 -43.5t15 -55.5q0 -24 -8.5 -45t-23 -36.5t-33.5 -24t-41 -8.5q-14 0 -32.5 4t-35 13t-27.5 23t-11 33q0 8 2 17t10 9q2 0 5.5 -0.5t6.5 -2.5q8 -6 17 -7t14 -1
q17 0 26.5 13t9.5 39q0 32 -21 50.5t-53 18.5q-24 0 -40.5 -10t-27 -26.5t-15.5 -38t-5 -43.5q0 -31 3 -55.5t7.5 -45t8.5 -38.5t7 -36h141q14 0 18.5 -5.5t4.5 -16.5t-4 -19t-19 -8h-137q1 -7 2 -19.5t1 -21.5q0 -49 -23 -101q34 -9 67 -16.5t67 -7.5q41 0 80 12.5t58 44.5
q6 14 12.5 20t11.5 6q9 0 16.5 -3.5t7.5 -13.5zM220 106q-20 11 -40 18t-42 7q-29 0 -45 -16.5t-16 -33.5q0 -26 16 -36.5t39 -10.5q26 0 51 17.5t37 54.5z" />
    <glyph glyph-name="currency" unicode="&#xa4;" horiz-adv-x="661" 
d="M622 133q0 -13 -20 -42q-13 -19 -31.5 -37.5t-43 -33.5t-54 -24t-64.5 -9q-117 0 -192 60.5t-96 186.5h-79q-14 0 -18.5 5.5t-4.5 16.5t4.5 16.5t18.5 5.5h73q-1 13 -1.5 26t-0.5 27v20h-71q-14 0 -18.5 5.5t-4.5 16.5t4.5 16.5t18.5 5.5h75q9 68 36 120t68 88t93.5 54.5
t112.5 18.5q39 0 73.5 -9t60 -24t40 -36t14.5 -45q0 -36 -21.5 -64t-64.5 -28q-23 0 -39.5 6.5t-27 17t-15.5 23t-5 24.5q0 16 3 29.5t6 29.5q0 16 -14 24t-35 8q-52 0 -89 -61.5t-47 -175.5h236q14 0 18 -5.5t4 -16.5t-4 -16.5t-18 -5.5h-239v-28v-22t1 -23h178
q14 0 18 -5.5t4 -16.5t-4 -16.5t-18 -5.5h-172q5 -34 16 -67t30 -59t47 -41.5t67 -15.5q43 0 71.5 14.5t45.5 33.5l18 21t17 23q2 1 7.5 2.5t10.5 1.5q15 0 22 -14z" />
    <glyph glyph-name="yen" unicode="&#xa5;" horiz-adv-x="727" 
d="M709 647q0 -4 -1.5 -11.5t-6.5 -8.5q-32 -5 -62.5 -18.5t-47.5 -46.5l-102 -202h119q12 0 12 -22q0 -11 -2 -16.5t-10 -5.5h-143l-34 -76h177q12 0 12 -22q0 -11 -2 -16.5t-10 -5.5h-171v-92q0 -22 6 -30.5t19 -20.5q8 -7 32 -11.5t46 -8.5q2 -4 3 -9.5t1 -9.5t-1.5 -9.5
t-3.5 -8.5q-15 0 -38.5 0.5t-49.5 1.5t-54 1.5t-52 0.5h-159q-1 3 -2 9t-1 10t1 9.5t4 10.5q8 0 18.5 1l21 2t19 2.5t12.5 4.5q14 9 23 23t9 41v44v22t-2 17h-181q-9 0 -11 5.5t-2 16.5t2.5 16.5t10.5 5.5h179l-38 76h-141q-13 0 -13 22t13 22h118l-114 232q-3 7 -9.5 11
t-16 7t-23 6.5t-31.5 9.5q-6 2 -8 8.5t-2 9.5q0 8 3.5 14.5t8.5 6.5q3 0 17.5 -0.5t34 -0.5t41 -0.5t37.5 -0.5q42 0 77 0.5t52 0.5q33 2 40.5 1.5t10.5 -0.5q6 1 8.5 -4t2.5 -12q0 -2 -1 -9t-3 -9t-7.5 -2.5t-13.5 -1.5q-33 -2 -45 -10.5t-12 -20.5q0 -7 1.5 -15.5
t3.5 -12.5l131 -272l74 148q15 30 29 58.5t21 45.5q4 9 6.5 19.5t2.5 18.5q0 17 -16.5 25.5t-54.5 15.5q-8 2 -9.5 9.5t-1.5 12.5q0 6 2 11t7 5q11 0 39 -1t63 -1q4 0 19.5 0.5t35 0.5t39 0.5t30.5 0.5q8 0 11 -5t3 -13z" />
    <glyph glyph-name="brokenbar" unicode="&#xa6;" horiz-adv-x="528" 
d="M225 358v367h78v-367h-78zM225 -202v377h78v-377h-78z" />
    <glyph glyph-name="section" unicode="&#xa7;" horiz-adv-x="602" 
d="M534 227q0 -53 -30.5 -92.5t-78.5 -66.5q20 -21 31.5 -38.5t17 -32.5t7 -28t1.5 -25q0 -34 -16 -63t-43 -50t-62.5 -32.5t-74.5 -11.5q-36 0 -68.5 6t-57.5 19.5t-40 34.5t-15 52q0 14 4.5 28t13.5 25.5t23 19t34 7.5q35 0 55.5 -19t20.5 -50q0 -13 -1.5 -24.5
t-6.5 -23.5q5 -11 23.5 -20.5t36.5 -9.5q19 0 32 8.5t21.5 20t12 24.5t3.5 22q0 26 -21 55.5t-69 71.5l-76 65q-31 27 -56 51t-42.5 48t-27 49t-9.5 54q0 51 29 89t80 69q-19 20 -30.5 34.5t-17.5 27t-7.5 25.5t-1.5 28q0 34 16 63t43.5 50t64 32.5t77.5 11.5q35 0 67 -7.5
t56 -21.5t38.5 -35t14.5 -48q0 -32 -18.5 -55.5t-56.5 -23.5q-35 0 -56 17.5t-21 49.5q0 14 1.5 23t8.5 26q-5 10 -23 20t-35 10q-21 0 -34.5 -8.5t-22 -20.5t-11.5 -25t-3 -22q0 -14 5 -26t15.5 -25t28 -28.5t41.5 -36.5l77 -65q32 -27 56.5 -51t41.5 -48t26 -49t9 -54z
M431 167q0 26 -10 48t-28 44t-44 46.5t-58 55.5q-14 12 -35.5 32t-40.5 37q-36 -19 -36 -68q0 -26 9.5 -48t27.5 -44t44 -46.5t58 -55.5q14 -13 36 -32.5t41 -36.5q36 19 36 68z" />
    <glyph glyph-name="dieresis" unicode="&#xa8;" 
d="M337 616q0 -29 -20.5 -48t-46.5 -19q-30 0 -49 20t-19 47q0 30 20.5 49t47.5 19q30 0 48.5 -20.5t18.5 -47.5zM126 616q0 -27 -18 -47t-49 -20q-30 0 -48.5 20.5t-18.5 46.5q0 27 18.5 47.5t49.5 20.5q27 0 46.5 -19t19.5 -49z" />
    <glyph glyph-name="copyright" unicode="&#xa9;" horiz-adv-x="942" 
d="M903 251q0 -89 -34 -168t-93 -137.5t-137 -92.5t-167 -34t-168 34t-138 92.5t-93 137.5t-34 168t34 167t93 136.5t138 92.5t168 34t167 -34t137 -92.5t93 -136.5t34 -167zM865 251q0 82 -30.5 154t-84 125.5t-125 84.5t-153.5 31t-154.5 -31t-125.5 -84.5t-84 -125.5
t-31 -154q0 -83 31 -155.5t84 -126.5t125.5 -85t154.5 -31t153.5 31t125 85t84 126.5t30.5 155.5zM662 111q-4 -8 -6.5 -14t-11.5 -17q-22 -31 -63.5 -51t-101.5 -20q-47 0 -85.5 12t-64.5 32q-43 32 -67.5 81t-24.5 112q0 59 18 105t51 78q31 30 71 47.5t91 17.5
q27 0 47.5 -3.5t37 -10t30.5 -15t27 -17.5q6 8 10 14.5t11 11.5q7 -1 15.5 -3.5t11.5 -4.5q0 -10 -2.5 -30t-2.5 -34q0 -6 1 -17t2 -22.5t2 -21t1 -12.5q-2 -2 -7.5 -4.5t-8.5 -2.5q-5 0 -9 1t-7 2q-8 26 -16.5 46.5t-16.5 31.5q-19 25 -44 40.5t-56 15.5q-37 0 -69 -27
t-48 -70q-11 -31 -14.5 -53.5t-3.5 -57.5q0 -37 6 -68.5t13 -46.5q6 -15 17.5 -30t28 -27t37 -19.5t45.5 -7.5q35 0 67 17.5t60 57.5q1 0 2.5 0.5t3.5 0.5q11 0 16 -6.5t7 -10.5z" />
    <glyph glyph-name="ordfeminine" unicode="&#xaa;" horiz-adv-x="484" 
d="M433 374q-7 -12 -19 -20t-25.5 -13t-28 -7.5t-26.5 -2.5q-19 0 -39 4.5t-28 18.5q-3 7 -5 17.5t-2 16.5h-2q-18 -22 -48.5 -39.5t-65.5 -17.5q-37 0 -59 19.5t-22 54.5q0 19 6 36.5t21 31.5q17 15 46 28.5t64 27.5l58 21q0 23 -0.5 41t-0.5 29q-3 11 -12 20t-22 9t-25 -3
t-16 -8q5 -9 8 -17.5t3 -22.5q0 -24 -15 -38t-44 -14q-32 0 -47 16.5t-15 35.5q0 21 10.5 33.5t24.5 20.5q21 11 49 19.5t64 8.5q145 0 145 -92v-186q0 -14 9 -18t17 -4t16 5t13 11q6 -1 9.5 -8.5t3.5 -13.5zM393 185q0 -8 -2.5 -18t-7.5 -10h-283q-5 0 -7.5 9.5t-2.5 17.5
t2.5 16.5t7.5 8.5h283q5 0 7.5 -8t2.5 -16zM260 519q-4 -2 -12.5 -5t-21.5 -9q-31 -14 -43.5 -30.5t-12.5 -33.5t10.5 -28t26.5 -11q13 0 28 6t23 18v49q0 9 1 22t1 22z" />
    <glyph glyph-name="guillemotleft" unicode="&#xab;" horiz-adv-x="547" 
d="M472 394q0 -5 -7 -18l-38 -69l-45 -74l40 -65l40 -73q9 -15 9 -21q0 -8 -6 -11t-14 -3q-6 0 -14.5 3.5t-17.5 11.5l-52 53l-86 81l-23 20v11l23 18l58 55l73 71q14 13 24 18t14 5q8 0 15 -3t7 -10zM280 393q0 -5 -5 -15l-40 -71l-45 -74l40 -65l42 -73q7 -12 7 -20
t-6 -11.5t-13 -3.5q-6 0 -14.5 3t-18.5 12l-62 63l-75 71l-23 20v11l23 18l58 55l72 71q14 13 24 18t14 5q8 0 15 -3t7 -11z" />
    <glyph glyph-name="logicalnot" unicode="&#xac;" horiz-adv-x="780" 
d="M583 -31v258h-493v83h580v-341h-87z" />
    <glyph glyph-name="registered" unicode="&#xae;" horiz-adv-x="630" 
d="M577 465q0 -54 -21 -101.5t-56.5 -83t-83 -56t-101.5 -20.5t-101.5 20.5t-83.5 56t-56.5 83t-20.5 101.5t20.5 101t56.5 82.5t83.5 56t101.5 20.5t101.5 -20.5t83 -56t56.5 -82.5t21 -101zM549 465q0 48 -18.5 91t-50 75.5t-74.5 51t-91 18.5q-49 0 -91.5 -18.5t-74 -51
t-50 -75.5t-18.5 -91q0 -49 18.5 -92t50 -75t74 -51t91.5 -19q48 0 91 19t74.5 51t50 75t18.5 92zM493 337q0 -2 -1 -4.5t-2 -4.5h-84q-14 0 -17 19q-4 20 -11 45t-17 39q-6 8 -15 17.5t-20 13.5q-9 3 -19 3h-18h-7v-76q0 -19 7 -30q5 -7 15 -9t24 -4q4 -4 4 -10q0 -4 -4 -8
h-154q-4 4 -4 9q0 2 1 3.5t2 4.5q4 1 10.5 2l13 2t11.5 2.5t7 3.5q6 8 8 22q1 5 1.5 18.5t0.5 21.5v92q0 26 -1 42.5t-3 22.5q-3 14 -14 19.5t-35 7.5q-4 5 -4 10q0 3 1.5 4.5t3.5 4.5h22t23.5 -0.5t21.5 -0.5h14q17 0 35.5 0.5t41.5 0.5q17 0 32 -1t25 -4q29 -8 42 -28.5
t13 -45.5q0 -26 -17.5 -44.5t-61.5 -23.5v-4q16 -4 26 -8t17 -11q8 -8 15 -18t13 -26q5 -12 8.5 -22.5t8.5 -23.5q2 -6 7 -8q3 -1 15.5 -3.5t16.5 -3.5q2 -4 2 -8zM380 544q0 18 -10 33q-11 15 -25.5 18t-43.5 3q-13 0 -16 -1t-3 -7v-102q5 -1 14 -1q14 0 27 0.5t21 2.5
q17 4 26.5 20t9.5 34z" />
    <glyph glyph-name="macron" unicode="&#xaf;" 
d="M335 609q0 -11 -7 -25t-17 -14h-294q-9 0 -16.5 14t-7.5 25t8 24.5t16 13.5h294q10 0 17 -13.5t7 -24.5z" />
    <glyph glyph-name="degree" unicode="&#xb0;" horiz-adv-x="466" 
d="M404 548q0 -35 -12.5 -66t-35 -54t-53.5 -36t-67 -13q-33 0 -64.5 11t-55.5 32t-39 52.5t-15 72.5q0 36 13 68t35.5 55t53 36.5t66.5 13.5q30 0 61 -10.5t56 -31.5t41 -53.5t16 -76.5zM323 546q0 61 -23 91.5t-67 30.5q-42 0 -66 -32t-24 -85q0 -55 23 -87t68 -32
q36 0 62.5 28.5t26.5 85.5z" />
    <glyph glyph-name="plusminus" unicode="&#xb1;" horiz-adv-x="942" 
d="M935 17q0 -2 -1 -8t-2 -9q-3 0 -16.5 0.5t-31.5 0.5t-36 0.5t-29 0.5q-38 0 -71 -1q-28 -1 -54.5 -1h-35.5q-4 8 -4 17q0 11 4 19q30 0 43 14.5t13 37.5v308h-160v-302q0 -31 15 -44.5t47 -13.5q3 -4 4.5 -9.5t1.5 -9.5q0 -7 -5 -17h-21.5h-35t-41 0.5t-38.5 0.5
q-30 0 -67.5 -1.5t-69.5 -1.5q-2 2 -3 8.5t-1 9.5q0 10 4 18q18 2 29.5 4.5t18.5 8t10 15.5t3 28v306h-162v-302q0 -31 15.5 -44.5t47.5 -13.5q3 -4 4.5 -9.5t1.5 -9.5q0 -7 -5 -17h-21.5h-35.5t-41.5 0.5t-38.5 0.5q-29 0 -68.5 -1.5t-79.5 -1.5q-2 2 -3 8.5t-1 9.5
q0 10 4 18q19 3 32.5 5.5t22.5 7.5t13 15t4 28v306h-88q-2 5 -2.5 12.5t-0.5 12.5q0 4 1 12t3 14h85v30v-30v30q0 34 2 52.5t4 32.5q8 44 32 75t58.5 50.5t77 28.5t87.5 9q34 0 71 -10.5t60 -30.5q36 23 82.5 33t96.5 10q37 0 71.5 -9t56.5 -28l45 34q5 0 16 -7.5t11 -17.5
v-616q0 -14 3 -22t10.5 -12.5t20.5 -7t34 -5.5q2 -5 3 -10.5t1 -8.5zM716 564q-17 7 -28.5 20t-11.5 34q0 11 2 19t7 22q2 4 2 8q0 9 -19 14.5t-38 5.5q-16 0 -32.5 -10t-24.5 -22t-15.5 -42.5t-7.5 -83.5q0 -25 0.5 -48.5t0.5 -33.5h165v117zM410 571q-14 5 -27 15.5
t-13 29.5q0 11 0.5 19t5.5 22q2 4 2 8q0 11 -18 15.5t-40 4.5q-16 0 -33 -11t-25 -23t-15.5 -41.5t-7.5 -82.5q0 -25 0.5 -47.5t0.5 -32.5h163v30q0 33 2.5 56.5t4.5 37.5z" />
    <glyph glyph-name="twosuperior" unicode="&#xb2;" horiz-adv-x="443" 
d="M437 461q0 -2 -2 -17.5t-7 -41.5q-1 -8 -3 -17.5t-3.5 -18t-3.5 -15t-3 -9.5q-2 -6 -4 -7t-8 -2h-22h-301q-2 2 -4.5 5.5t-2.5 6.5v11q9 8 19 15q40 27 72 50.5t55 43.5q57 47 76.5 80t19.5 64q0 29 -23.5 48.5t-61.5 19.5q-18 0 -39.5 -5t-40.5 -19q-29 -22 -29 -46
q0 -7 2 -10.5t6 -7.5t11.5 -6t13.5 -2q3 0 8 2l10 4q11 5 17.5 6.5t9.5 1.5q7 0 14 -3t12 -9q9 -12 9 -22q0 -4 -2 -10.5t-10 -14.5q-6 -7 -13.5 -12t-18.5 -10q-13 -5 -29 -5q-35 0 -54 22q-12 14 -17 29t-5 35q0 55 50 93q28 21 57.5 30.5t64.5 9.5q36 0 67 -8.5t53 -25.5
q23 -18 32.5 -41.5t9.5 -51.5q0 -24 -7 -42.5t-21 -35.5q-11 -13 -33 -29.5t-42 -26.5l-112 -52h63h34.5t35.5 0.5t29.5 1.5t16.5 2q8 2 13 15.5t11 30.5q2 1 7.5 1.5t7.5 0.5q4 0 8.5 -2t6.5 -4z" />
    <glyph glyph-name="threesuperior" unicode="&#xb3;" horiz-adv-x="428" 
d="M409 445q0 -17 -4.5 -30.5t-15.5 -28.5q-12 -16 -32 -27.5t-44 -19t-51 -11t-53 -3.5q-54 0 -98 23q-18 11 -27.5 22t-9.5 29q0 10 3 20t11 18q7 8 20.5 12.5t27.5 4.5q17 0 29.5 -7t17.5 -27q2 -6 3 -22.5t2 -33.5q5 -2 15 -5.5t16 -3.5q47 0 67 43q9 21 9 45
q0 19 -6.5 32.5t-15.5 21.5q-6 5 -13 9t-17 9q-5 2 -8.5 3.5t-6.5 3.5q-6 3 -7 6.5t-1 5.5q0 8 8 12t16.5 6t20.5 10q17 10 22 27t5 35q0 24 -20 40t-53 16q-16 0 -28 -3.5t-24 -11.5q-8 -5 -18.5 -13t-10.5 -17q0 -11 8 -16q2 -1 7.5 -2t7.5 -1q1 0 4 1.5t4 1.5q5 3 12 5.5
t15 2.5q22 0 22 -24q0 -6 -2.5 -13t-10.5 -16q-8 -11 -21 -15t-24 -4q-10 0 -21 3t-20 9.5t-15 18t-6 28.5q0 16 8 30.5t19 29.5q23 28 65 43q19 6 34 8.5t35 2.5q29 0 54 -5.5t42 -18.5q33 -23 33 -61q0 -40 -33 -70q-8 -5 -15 -10l-14 -10q-5 -2 -10 -3.5t-5 -3.5t6 -3
t12 -3q16 -8 28 -13.5t23 -16.5q16 -14 22.5 -29t6.5 -36z" />
    <glyph glyph-name="acute" unicode="&#xb4;" 
d="M301 674q0 -14 -7 -27.5t-36 -31.5q-28 -17 -67.5 -37.5t-96.5 -49.5q-11 -5 -23.5 -2.5t-12.5 10.5q0 2 0.5 6t2.5 6q16 20 31.5 40t29 37.5t24 31t16.5 20.5q7 8 13.5 17.5t15.5 17.5t21 13t30 5q19 0 30.5 -6t18 -14.5t8.5 -18t2 -17.5z" />
    <glyph glyph-name="mu" unicode="&#xb5;" horiz-adv-x="635" 
d="M629 47q-9 -15 -25.5 -26t-35 -18t-38 -10.5t-36.5 -3.5q-25 0 -51.5 7t-37.5 26q-5 8 -7.5 22t-2.5 22h-3q-21 -42 -49.5 -59.5t-55.5 -17.5q-11 0 -24 2t-25 6t-22 11.5t-16 17.5h-4v-25q0 -25 4.5 -48t9.5 -44.5t9.5 -41t4.5 -38.5q0 -20 -6.5 -34t-17.5 -23t-25 -13
t-29 -4q-31 0 -53.5 17t-22.5 52q0 13 2.5 36t5.5 47.5t6.5 47t4.5 34.5q4 30 4.5 70.5t0.5 86.5l-2 292q0 10 9 10h129q6 0 9 -3.5t3 -20.5v-262q0 -23 3 -39t11 -29q12 -18 25.5 -25t30.5 -7q27 0 47 16.5t30 42.5v130v46v58.5t-0.5 53.5t-0.5 30q0 9 9 9h132
q6 0 7.5 -3.5t1.5 -8.5v-352q0 -19 12 -25t23 -6t21 7t18 15q8 -1 12.5 -10t4.5 -18z" />
    <glyph glyph-name="paragraph" unicode="&#xb6;" horiz-adv-x="591" 
d="M320 254q-87 0 -142.5 21.5t-87 55t-43.5 74t-12 79.5q0 36 12 77t39 76t71 58t108 23h55v-464v0zM550 669q-19 1 -30.5 1h-19.5q-32 0 -44 -3q-2 -1 -4 -2.5t-2 -5.5v-847h-167l-9 22l9 27q19 -1 30.5 -1h19.5q16 0 32 0.5t22 2.5q2 1 4 2.5t2 5.5v847h157l9 -22z" />
    <glyph glyph-name="periodcentered" unicode="&#xb7;" horiz-adv-x="345" 
d="M266 339q0 -38 -24 -62.5t-67 -24.5q-45 0 -67.5 24.5t-22.5 62.5q0 41 27 64.5t66 23.5q43 0 65.5 -26t22.5 -62z" />
    <glyph glyph-name="cedilla" unicode="&#xb8;" 
d="M278 -146q0 -24 -10.5 -42.5t-28.5 -31.5t-42.5 -20t-52.5 -7q-24 0 -43 6t-33 14t-22.5 16t-11.5 13q0 25 25 27q17 -12 37.5 -21.5t37.5 -9.5q27 0 44 13.5t17 36.5q0 20 -13.5 31t-33.5 11q-18 0 -38 -10l-10 14l42 106h43l-25 -63q5 2 11.5 2.5t10.5 0.5
q43 0 69.5 -23.5t26.5 -62.5z" />
    <glyph glyph-name="onesuperior" unicode="&#xb9;" horiz-adv-x="374" 
d="M382 335q-30 0 -62 1t-80 1q-46 0 -80.5 -1t-63.5 -1v38q12 0 25 0.5t25 3t22 7.5t15 15q6 12 6 57v127q0 32 -4 42q-2 8 -9 15t-14 11q-11 9 -31.5 14t-33.5 11q-5 3 -6.5 10.5t-1.5 14.5q0 3 1 10t2 9h7q17 -9 33.5 -12.5t38.5 -3.5q11 0 25.5 2t28 5t24.5 7t15 7
q3 1 8.5 1h8.5q7 0 10 -3v-26q0 -8 -1 -33.5t-1 -70.5v-133q0 -25 1.5 -38.5t6.5 -24.5q8 -17 29 -21t56 -6v-35v0z" />
    <glyph glyph-name="ordmasculine" unicode="&#xba;" horiz-adv-x="480" 
d="M423 507q0 -74 -57 -128q-60 -51 -127 -51q-33 0 -65 11t-62 36q-55 54 -55 128q0 36 13 69.5t42 58.5q28 26 61 37.5t67 11.5q23 0 46 -5.5t48 -18.5q43 -25 66 -64.5t23 -84.5zM391 185q0 -8 -2.5 -18t-7.5 -10h-283q-5 0 -7.5 9.5t-2.5 17.5t2.5 16.5t7.5 8.5h283
q5 0 7.5 -8t2.5 -16zM306 504q0 38 -4 66t-15 45q-10 17 -21.5 24.5t-28.5 7.5q-29 0 -46 -32q-11 -18 -15 -45.5t-4 -64.5q0 -35 4 -62.5t15 -45.5q9 -17 20.5 -26t28.5 -9q35 0 50.5 38t15.5 104z" />
    <glyph glyph-name="guillemotright" unicode="&#xbb;" horiz-adv-x="547" 
d="M457 209l-75 -71l-62 -63q-10 -9 -18.5 -12t-14.5 -3q-7 0 -13 3.5t-6 11.5t7 20l42 73l40 65l-45 74l-40 71q-5 10 -5 15q0 8 7 11t15 3q4 0 14 -5t24 -18l72 -71l58 -55l23 -18v-11zM266 209l-86 -81l-52 -53q-9 -8 -17.5 -11.5t-14.5 -3.5q-8 0 -14 3t-6 11q0 6 9 21
l40 73l40 65l-45 74l-38 69q-7 13 -7 18q0 7 7 10t15 3q4 0 14 -5t24 -18l73 -71l58 -55l23 -18v-11z" />
    <glyph glyph-name="onequarter" unicode="&#xbc;" horiz-adv-x="630" 
d="M450 335q-30 0 -62 1t-80 1q-46 0 -80.5 -1t-63.5 -1v38q12 0 25 0.5t25 3t22 7.5t15 15q6 12 6 57v127q0 32 -4 42q-2 8 -9 15t-14 11q-11 9 -31.5 14t-33.5 11q-5 3 -6.5 10.5t-1.5 14.5q0 3 1 10t2 9h7q17 -9 33.5 -12.5t38.5 -3.5q11 0 25.5 2t28 5t24.5 7t15 7
q3 1 8.5 1h8.5q7 0 10 -3v-26q0 -8 -1 -33.5t-1 -70.5v-133q0 -25 1.5 -38.5t6.5 -24.5q8 -17 29 -21t56 -6v-35v0zM24 210v50h560v-50h-560zM483 -199q-4 -1 -8 -3t-6 -2t-4.5 2t-6.5 3l-3 18t-3 14q-5 9 -20 10t-39 1v-25q0 -15 0.5 -23t1 -12t2 -4.5t3.5 -1.5
q3 -2 16 -3.5t19 -1.5q6 -8 6 -14q0 -2 -2 -6.5t-3 -6.5l-19 -2q-6 0 -20 0.5t-29.5 0.5t-30.5 0.5t-24 0.5h-17t-20 -0.5t-18 -0.5h-10q-6 7 -6 15q0 2 1 5.5t2 7.5l21 3t20 4q4 3 5 6.5t1 17.5v40h-174q-6 0 -11 10.5t-5 15.5q6 11 13.5 21t14.5 18l129 160q26 33 45 58.5
t24 31.5q2 1 7 1.5t10.5 1t11 0.5h6.5q4 0 17 -1t17 -3q-1 -10 -1.5 -26t-1 -31.5t-1 -28.5t-0.5 -17v-175h19q14 0 22.5 1.5t15.5 6.5q4 4 5 16.5t3 21.5q5 4 12 4q2 0 6.5 -1t6.5 -2v-126v0zM288 44l-127 -162h131v116l2 56z" />
    <glyph glyph-name="onehalf" unicode="&#xbd;" horiz-adv-x="630" 
d="M450 335q-30 0 -62 1t-80 1q-46 0 -80.5 -1t-63.5 -1v38q12 0 25 0.5t25 3t22 7.5t15 15q6 12 6 57v127q0 32 -4 42q-2 8 -9 15t-14 11q-11 9 -31.5 14t-33.5 11q-5 3 -6.5 10.5t-1.5 14.5q0 3 1 10t2 9h7q17 -9 33.5 -12.5t38.5 -3.5q11 0 25.5 2t28 5t24.5 7t15 7
q3 1 8.5 1h8.5q7 0 10 -3v-26q0 -8 -1 -33.5t-1 -70.5v-133q0 -25 1.5 -38.5t6.5 -24.5q8 -17 29 -21t56 -6v-35v0zM24 210v50h560v-50h-560zM490 -130q0 -2 -2 -17.5t-7 -41.5q-1 -8 -3 -17.5t-3.5 -18t-3.5 -15t-3 -9.5q-2 -6 -4 -7t-8 -2h-22h-301q-2 2 -4.5 5.5
t-2.5 6.5v11q9 7 19 15q40 27 72 50.5t55 43.5q29 24 47.5 43.5t29 36.5t15 32.5t4.5 31.5q0 29 -23.5 48.5t-61.5 19.5q-18 0 -39.5 -5t-40.5 -19q-29 -22 -29 -46q0 -7 2 -10.5t6 -7.5t11.5 -6t13.5 -2q3 0 8 2l10 4q11 5 17.5 6.5t9.5 1.5q7 0 14 -3t12 -9q9 -12 9 -22
q0 -4 -2 -10.5t-10 -14.5q-6 -7 -13.5 -12t-18.5 -10q-13 -5 -29 -5q-35 0 -54 22q-22 25 -22 64q0 55 50 93q28 21 57.5 30.5t64.5 9.5q36 0 67 -8.5t53 -25.5q23 -18 32.5 -41.5t9.5 -51.5q0 -24 -7 -42.5t-21 -35.5q-11 -13 -33 -29.5t-42 -26.5l-112 -52h63h34.5
t35.5 0.5t29.5 1.5t16.5 2q8 2 13 15.5t11 30.5q2 1 7.5 1.5t7.5 0.5q4 0 8.5 -2t6.5 -4z" />
    <glyph glyph-name="threequarters" unicode="&#xbe;" horiz-adv-x="630" 
d="M461 445q0 -17 -4.5 -30.5t-15.5 -28.5q-12 -16 -32 -27t-44 -18.5t-51 -11t-53 -3.5q-55 0 -98 22q-18 11 -27.5 22t-9.5 29q0 10 3 20t11 18q7 8 20.5 12.5t27.5 4.5q17 0 29.5 -7t17.5 -27q2 -6 3 -22.5t2 -33.5q5 -2 15 -5t16 -3q48 0 67 42q9 21 9 45
q0 19 -6.5 32.5t-15.5 21.5q-6 5 -13 9t-17 9q-5 2 -8.5 3.5t-6.5 3.5q-6 3 -7 6.5t-1 5.5q0 8 8 12t16.5 6t20.5 10q17 10 22 27t5 35q0 24 -20 40t-53 16q-16 0 -28 -3.5t-24 -11.5q-8 -5 -18.5 -13t-10.5 -17q0 -11 8 -16q2 -1 7.5 -2t7.5 -1q1 0 4 1.5t4 1.5q5 3 12 5.5
t15 2.5q22 0 22 -24q0 -6 -2.5 -13t-10.5 -16q-8 -11 -21 -15t-24 -4q-10 0 -21 3t-20 9.5t-15 18t-6 28.5q0 16 8 30.5t19 29.5q23 28 65 43q19 6 34 8.5t35 2.5q29 0 54 -5.5t42 -18.5q33 -23 33 -61q0 -40 -33 -70q-8 -5 -15 -10l-14 -10q-5 -2 -10 -3.5t-5 -3.5t6 -3
t12 -3q16 -8 28 -13.5t23 -16.5q16 -14 22.5 -29t6.5 -36zM24 210v50h560v-50h-560zM483 -199q-4 -1 -8 -3t-6 -2t-4.5 2t-6.5 3l-3 18t-3 14q-5 9 -20 10t-39 1v-25q0 -15 0.5 -23t1 -12t2 -4.5t3.5 -1.5q3 -2 16 -3.5t19 -1.5q6 -8 6 -14q0 -2 -2 -6.5t-3 -6.5l-19 -2
q-13 0 -34.5 1t-39.5 1h-21.5t-30.5 -0.5t-28.5 -0.5h-14.5q-6 7 -6 15q0 2 1 5.5t2 7.5l21 3t20 4q4 3 5 6.5t1 17.5v40h-174q-6 0 -11 10.5t-5 15.5q6 11 13.5 21t14.5 18l129 160q26 33 45 58.5t24 31.5q2 1 7 1.5t10.5 1t11 0.5h6.5q4 0 17 -1t17 -3q-1 -10 -1.5 -26
t-1 -31.5t-1 -28.5t-0.5 -17v-175h19q14 0 22.5 1.5t15.5 6.5q4 4 5 16.5t3 21.5q5 4 12 4q2 0 6.5 -1t6.5 -2v-126v0zM288 44l-127 -162h131v116l2 56z" />
    <glyph glyph-name="questiondown" unicode="&#xbf;" horiz-adv-x="526" 
d="M358 419q0 -35 -20.5 -58t-61.5 -23q-36 0 -56 21.5t-20 55.5q0 38 20.5 61t58.5 23q39 0 59 -23t20 -57zM450 -83q0 -35 -15 -63t-40.5 -48t-60.5 -31t-75 -11q-45 0 -85 11t-69 33.5t-46 57t-17 80.5q0 29 9 61t26 56q22 31 44.5 50.5t45.5 33.5q26 15 49 27t44 26
q14 9 14 26q0 11 -10.5 19t-37.5 18q-1 2 -2 8t-1 9q0 15 14 22q15 0 39 -2t47 -11t39.5 -27.5t16.5 -51.5q0 -22 -8 -37t-18 -26q-9 -10 -24.5 -23t-32.5 -27.5t-33.5 -29t-28.5 -27.5q-16 -17 -28 -41t-12 -53q0 -63 32.5 -93t83.5 -30q47 0 71 25.5t24 61.5q0 4 -1 7
l-2 6q-7 -2 -19 -4t-23 -2q-29 0 -47.5 16t-18.5 47q0 15 6 26t15.5 18t21 10.5t23.5 3.5q15 0 31 -6.5t29 -21t21.5 -37.5t8.5 -56z" />
    <glyph glyph-name="Agrave" unicode="&#xc0;" horiz-adv-x="802" 
d="M814 15q0 -3 -2 -8.5t-4 -7.5q-49 0 -104.5 1.5t-102.5 1.5q-29 0 -57.5 -1t-41.5 -1h-75q-4 3 -5 9t-2 9q0 3 1 8t5 10q29 2 46 5t28 8q7 8 10.5 21t3.5 28q-5 20 -26 79q-6 18 -12 33t-11 28q-3 5 -9 14.5t-12 14.5h-43h-58.5t-64 -0.5t-58.5 -1.5q-8 -15 -15 -37
l-38 -117q3 -25 10.5 -41.5t18.5 -26.5q7 -3 24.5 -5.5t36.5 -4.5q2 -4 3.5 -9t0.5 -8q0 -3 -1 -8t-3 -10h-27q-27 0 -55.5 2t-57.5 2q-13 0 -30 -0.5t-33.5 -0.5t-31 -0.5t-22.5 -0.5q-4 7 -4 16q1 3 2 9t2 10q16 5 32 9.5t30.5 11t25.5 16t17 22.5q11 27 17 41t12 29
t15 39l27 72q37 98 63.5 166t43.5 107q21 48 32 75t13 32q8 20 16 36t15 22q5 5 17 9.5t18 4.5q4 0 12.5 -1.5t17.5 -3.5t17 -5t10 -6q4 -6 9 -19l44 -109l150 -374q7 -17 12.5 -30.5t10.5 -25.5t10.5 -24t11.5 -27t13.5 -29.5t12.5 -18.5q2 -1 11.5 -4.5t22 -6.5t26 -6
t23.5 -5q2 -3 3.5 -8.5t2.5 -8.5zM431 311q-5 16 -8.5 27.5t-10.5 28.5q-6 17 -15 39.5t-18.5 47t-19 47.5t-16.5 40q-2 5 -4.5 10t-4.5 10q-8 -20 -18.5 -44.5t-24.5 -59.5q-21 -54 -36.5 -96.5t-18.5 -53.5h121q21 0 40.5 0.5t33.5 3.5zM503 776q0 -8 -12.5 -10.5
t-23.5 2.5q-57 29 -96.5 49.5t-67.5 37.5q-29 18 -36 31.5t-7 27.5q0 8 2 17.5t8.5 18t18 14.5t30.5 6q18 0 30 -5t21 -13t15.5 -17.5t13.5 -17.5q6 -7 16.5 -20.5t24 -31t29 -37.5t31.5 -40q2 -2 2.5 -6t0.5 -6z" />
    <glyph glyph-name="Aacute" unicode="&#xc1;" horiz-adv-x="802" 
d="M814 15q0 -3 -2 -8.5t-4 -7.5q-49 0 -104.5 1.5t-102.5 1.5q-29 0 -57.5 -1t-41.5 -1h-75q-4 3 -5 9t-2 9q0 3 1 8t5 10q29 2 46 5t28 8q7 8 10.5 21t3.5 28q-5 20 -26 79q-6 18 -12 33t-11 28q-3 5 -9 14.5t-12 14.5h-43h-58.5t-64 -0.5t-58.5 -1.5q-8 -15 -15 -37
l-38 -117q3 -25 10.5 -41.5t18.5 -26.5q7 -3 24.5 -5.5t36.5 -4.5q2 -4 3.5 -9t0.5 -8q0 -3 -1 -8t-3 -10h-27q-27 0 -55.5 2t-57.5 2q-13 0 -30 -0.5t-33.5 -0.5t-31 -0.5t-22.5 -0.5q-4 7 -4 16q1 3 2 9t2 10q16 5 32 9.5t30.5 11t25.5 16t17 22.5q11 27 17 41t12 29
t15 39l27 72q37 98 63.5 166t43.5 107q21 48 32 75t13 32q8 20 16 36t15 22q5 5 17 9.5t18 4.5q4 0 12.5 -1.5t17.5 -3.5t17 -5t10 -6q4 -6 9 -19l44 -109l150 -374q7 -17 12.5 -30.5t10.5 -25.5t10.5 -24t11.5 -27t13.5 -29.5t12.5 -18.5q2 -1 11.5 -4.5t22 -6.5t26 -6
t23.5 -5q2 -3 3.5 -8.5t2.5 -8.5zM431 311q-5 16 -8.5 27.5t-10.5 28.5q-6 17 -15 39.5t-18.5 47t-19 47.5t-16.5 40q-2 5 -4.5 10t-4.5 10q-8 -20 -18.5 -44.5t-24.5 -59.5q-21 -54 -36.5 -96.5t-18.5 -53.5h121q21 0 40.5 0.5t33.5 3.5zM536 914q0 -14 -7 -27.5t-36 -31.5
q-28 -17 -67.5 -37.5t-96.5 -49.5q-11 -5 -23.5 -2.5t-12.5 10.5q0 2 0.5 6t2.5 6q16 20 31.5 40t29 37.5t24 31t16.5 20.5q7 8 13.5 17.5t15.5 17.5t21 13t30 5q19 0 30.5 -6t18 -14.5t8.5 -18t2 -17.5z" />
    <glyph glyph-name="Acircumflex" unicode="&#xc2;" horiz-adv-x="802" 
d="M814 15q0 -3 -2 -8.5t-4 -7.5q-49 0 -104.5 1.5t-102.5 1.5q-29 0 -57.5 -1t-41.5 -1h-75q-4 3 -5 9t-2 9q0 3 1 8t5 10q29 2 46 5t28 8q7 8 10.5 21t3.5 28q-5 20 -26 79q-6 18 -12 33t-11 28q-3 5 -9 14.5t-12 14.5h-43h-58.5t-64 -0.5t-58.5 -1.5q-8 -15 -15 -37
l-38 -117q3 -25 10.5 -41.5t18.5 -26.5q7 -3 24.5 -5.5t36.5 -4.5q2 -4 3.5 -9t0.5 -8q0 -3 -1 -8t-3 -10h-27q-27 0 -55.5 2t-57.5 2q-13 0 -30 -0.5t-33.5 -0.5t-31 -0.5t-22.5 -0.5q-4 7 -4 16q1 3 2 9t2 10q16 5 32 9.5t30.5 11t25.5 16t17 22.5q11 27 17 41t12 29
t15 39l27 72q37 98 63.5 166t43.5 107q21 48 32 75t13 32q8 20 16 36t15 22q5 5 17 9.5t18 4.5q4 0 12.5 -1.5t17.5 -3.5t17 -5t10 -6q4 -6 9 -19l44 -109l150 -374q7 -17 12.5 -30.5t10.5 -25.5t10.5 -24t11.5 -27t13.5 -29.5t12.5 -18.5q2 -1 11.5 -4.5t22 -6.5t26 -6
t23.5 -5q2 -3 3.5 -8.5t2.5 -8.5zM431 311q-5 16 -8.5 27.5t-10.5 28.5q-6 17 -15 39.5t-18.5 47t-19 47.5t-16.5 40q-2 5 -4.5 10t-4.5 10q-8 -20 -18.5 -44.5t-24.5 -59.5q-21 -54 -36.5 -96.5t-18.5 -53.5h121q21 0 40.5 0.5t33.5 3.5zM571 781q3 -4 0.5 -9.5t-8 -8.5
t-12.5 -3.5t-13 3.5l-142 103l-143 -103q-6 -4 -13 -3.5t-12.5 4t-8 8.5t0.5 9l112 147q13 19 30.5 27.5t33.5 8.5q19 0 35.5 -8.5t29.5 -27.5l110 -147v0z" />
    <glyph glyph-name="Atilde" unicode="&#xc3;" horiz-adv-x="802" 
d="M814 15q0 -3 -2 -8.5t-4 -7.5q-49 0 -104.5 1.5t-102.5 1.5q-29 0 -57.5 -1t-41.5 -1h-75q-4 3 -5 9t-2 9q0 3 1 8t5 10q29 2 46 5t28 8q7 8 10.5 21t3.5 28q-5 20 -26 79q-6 18 -12 33t-11 28q-3 5 -9 14.5t-12 14.5h-43h-58.5t-64 -0.5t-58.5 -1.5q-8 -15 -15 -37
l-38 -117q3 -25 10.5 -41.5t18.5 -26.5q7 -3 24.5 -5.5t36.5 -4.5q2 -4 3.5 -9t0.5 -8q0 -3 -1 -8t-3 -10h-27q-27 0 -55.5 2t-57.5 2q-13 0 -30 -0.5t-33.5 -0.5t-31 -0.5t-22.5 -0.5q-4 7 -4 16q1 3 2 9t2 10q16 5 32 9.5t30.5 11t25.5 16t17 22.5q11 27 17 41t12 29
t15 39l27 72q37 98 63.5 166t43.5 107q21 48 32 75t13 32q8 20 16 36t15 22q5 5 17 9.5t18 4.5q4 0 12.5 -1.5t17.5 -3.5t17 -5t10 -6q4 -6 9 -19l44 -109l150 -374q7 -17 12.5 -30.5t10.5 -25.5t10.5 -24t11.5 -27t13.5 -29.5t12.5 -18.5q2 -1 11.5 -4.5t22 -6.5t26 -6
t23.5 -5q2 -3 3.5 -8.5t2.5 -8.5zM431 311q-5 16 -8.5 27.5t-10.5 28.5q-6 17 -15 39.5t-18.5 47t-19 47.5t-16.5 40q-2 5 -4.5 10t-4.5 10q-8 -20 -18.5 -44.5t-24.5 -59.5q-21 -54 -36.5 -96.5t-18.5 -53.5h121q21 0 40.5 0.5t33.5 3.5zM566 913q-4 -24 -14.5 -45.5
t-26.5 -37.5t-35 -25.5t-40 -9.5q-14 0 -31 5t-46 20q-41 22 -59 22q-22 0 -35.5 -12t-18.5 -28q-5 -21 -20 -21q-24 0 -20 30q4 24 14.5 45.5t26.5 37t35 25t40 9.5q14 0 34 -6.5t43 -17.5q45 -22 59 -22q21 0 35 12.5t19 28.5q5 20 20 20q24 0 20 -30z" />
    <glyph glyph-name="Adieresis" unicode="&#xc4;" horiz-adv-x="802" 
d="M573 850q0 -29 -20.5 -48t-46.5 -19q-30 0 -49 20t-19 47q0 30 20.5 49t47.5 19q30 0 48.5 -20.5t18.5 -47.5zM342 850q0 -27 -18 -47t-49 -20q-30 0 -48.5 20.5t-18.5 46.5q0 27 18.5 47.5t49.5 20.5q27 0 46.5 -19t19.5 -49zM814 15q0 -3 -2 -8.5t-4 -7.5
q-49 0 -104.5 1.5t-102.5 1.5q-29 0 -57.5 -1t-41.5 -1h-75q-4 3 -5 9t-2 9q0 3 1 8t5 10q29 2 46 5t28 8q7 8 10.5 21t3.5 28q-5 20 -26 79q-6 18 -12 33t-11 28q-3 5 -9 14.5t-12 14.5h-43h-58.5t-64 -0.5t-58.5 -1.5q-8 -15 -15 -37l-38 -117q3 -25 10.5 -41.5
t18.5 -26.5q7 -3 24.5 -5.5t36.5 -4.5q2 -4 3.5 -9t0.5 -8q0 -3 -1 -8t-3 -10h-27q-27 0 -55.5 2t-57.5 2q-13 0 -30 -0.5t-33.5 -0.5t-31 -0.5t-22.5 -0.5q-4 7 -4 16q1 3 2 9t2 10q16 5 32 9.5t30.5 11t25.5 16t17 22.5q11 27 17 41t12 29t15 39l27 72q37 98 63.5 166
t43.5 107q21 48 32 75t13 32q8 20 16 36t15 22q5 5 17 9.5t18 4.5q4 0 12.5 -1.5t17.5 -3.5t17 -5t10 -6q4 -6 9 -19l44 -109l150 -374q7 -17 12.5 -30.5t10.5 -25.5t10.5 -24t11.5 -27t13.5 -29.5t12.5 -18.5q2 -1 11.5 -4.5t22 -6.5t26 -6t23.5 -5q2 -3 3.5 -8.5t2.5 -8.5
zM431 311q-5 16 -8.5 27.5t-10.5 28.5q-6 17 -15 39.5t-18.5 47t-19 47.5t-16.5 40q-2 5 -4.5 10t-4.5 10q-8 -20 -18.5 -44.5t-24.5 -59.5q-21 -54 -36.5 -96.5t-18.5 -53.5h121q21 0 40.5 0.5t33.5 3.5z" />
    <glyph glyph-name="Aring" unicode="&#xc5;" horiz-adv-x="802" 
d="M814 15q0 -3 -2 -8.5t-4 -7.5q-49 0 -104.5 1.5t-102.5 1.5q-29 0 -57.5 -1t-41.5 -1h-75q-4 3 -5 9t-2 9q0 3 1 8t5 10q29 2 46 5t28 8q7 8 10.5 21t3.5 28q-5 20 -26 79q-6 18 -12 33t-11 28q-3 5 -9 14.5t-12 14.5h-43h-58.5t-64 -0.5t-58.5 -1.5q-8 -15 -15 -37
l-38 -117q3 -25 10.5 -41.5t18.5 -26.5q7 -3 24.5 -5.5t36.5 -4.5q2 -4 3.5 -9t0.5 -8q0 -3 -1 -8t-3 -10h-27q-27 0 -55.5 2t-57.5 2q-13 0 -30 -0.5t-33.5 -0.5t-31 -0.5t-22.5 -0.5q-4 7 -4 16q1 3 2 9t2 10q16 5 32 9.5t30.5 11t25.5 16t17 22.5q11 27 17 41t12 29
t15 39l27 72q37 98 63.5 166t43.5 107q21 48 32 75t13 32q8 20 16 36t15 22q5 5 17 9.5t18 4.5q4 0 12.5 -1.5t17.5 -3.5t17 -5t10 -6q4 -6 9 -19l44 -109l150 -374q7 -17 12.5 -30.5t10.5 -25.5t10.5 -24t11.5 -27t13.5 -29.5t12.5 -18.5q2 -1 11.5 -4.5t22 -6.5t26 -6
t23.5 -5q2 -3 3.5 -8.5t2.5 -8.5zM431 311q-5 16 -8.5 27.5t-10.5 28.5q-6 17 -15 39.5t-18.5 47t-19 47.5t-16.5 40q-2 5 -4.5 10t-4.5 10q-8 -20 -18.5 -44.5t-24.5 -59.5q-21 -54 -36.5 -96.5t-18.5 -53.5h121q21 0 40.5 0.5t33.5 3.5zM527 860q0 -22 -10 -45t-30 -40
q-22 -18 -43 -24t-45 -6q-22 0 -46 6.5t-41 21.5q-20 19 -29.5 40.5t-9.5 44.5q0 22 10 45t31 39q24 18 43.5 24t42.5 6q16 0 31 -3.5t32 -11.5q31 -15 47.5 -41.5t16.5 -55.5zM448 859q0 42 -17 64q-6 8 -14 12t-20 4q-17 0 -30 -16q-8 -10 -12.5 -26t-4.5 -38
q0 -21 5 -37.5t11 -24.5q8 -9 14.5 -13.5t18.5 -4.5q25 0 37 21t12 59z" />
    <glyph glyph-name="AE" unicode="&#xc6;" horiz-adv-x="1103" 
d="M1090 176v-104t-2 -58q-1 -7 -1.5 -9.5t-2.5 -6.5q-8 -2 -14.5 -2h-12.5q-76 0 -131 1t-93 2t-61.5 2t-35.5 1q-44 0 -78 1t-53 1q-10 0 -34.5 -0.5t-52 -1t-53 -1t-37.5 -0.5h-33q-5 8 -5 18q0 11 5 21q30 2 56.5 6.5t33.5 9.5q8 12 14 39t8 56q0 9 0.5 28.5t1 43.5
t0.5 50v50h-72h-47t-45.5 -0.5t-39 -0.5h-28.5q-10 -14 -33 -52.5t-54 -104.5q-4 -8 -8.5 -18t-9 -19t-7.5 -16t-4 -10l-4 -12t-2 -11q0 -11 3 -16.5t15 -12.5q7 -4 27.5 -8t49.5 -6q2 -2 2.5 -8.5t0.5 -10.5q0 -3 -1.5 -8.5t-3.5 -8.5q-2 0 -22 1t-45.5 1.5t-50 1.5
t-33.5 1t-22 -0.5t-27.5 -1t-28.5 -1t-24 -0.5h-28q-2 2 -2.5 7t-0.5 8q0 13 4 20q6 1 18 4t25 6.5t24 7.5t15 7q11 8 24.5 19.5t27.5 34.5q20 32 36.5 59t35.5 59l204 350q11 18 16 35.5t5 23.5q0 18 -22 27q-4 2 -14.5 4t-22.5 3.5l-24 3t-21 2.5q-3 3 -4 9t-1 10
q0 10 6 17q63 0 131 -1.5t131 -1.5q13 0 38.5 0.5t54.5 0.5t56.5 0.5t45.5 0.5q33 0 54 0.5t38 0.5t33 0.5t37 0.5h86q15 0 18.5 -2.5t4.5 -10.5q1 -9 2 -27.5t2 -41.5t1.5 -48t0.5 -48q-6 -3 -8 -4.5t-7 -1.5h-10t-11 2q-22 37 -44.5 69.5t-51.5 54.5q-21 17 -64 20
q-7 0 -26 0.5t-63 0.5h-27.5t-16.5 -0.5t-9.5 -1t-6.5 -0.5q-1 -7 -2 -16l-2 -18q0 -7 -0.5 -17t-1 -26.5t-1 -41t-0.5 -60.5v-93h21q11 0 27.5 2t30.5 6q20 6 38.5 19.5t29.5 32.5q1 1 3 8.5t4.5 17l5 19t3.5 14.5q5 2 13 2.5t13 0.5q8 0 12.5 -1t7.5 -3q-1 -13 -3 -32
t-3.5 -40t-2.5 -42.5t-1 -40.5q0 -15 1 -35l2 -40t2 -37.5t1 -27.5q-9 -5 -20 -5q-6 0 -14 1t-12 3q-1 5 -2.5 17t-3.5 24.5t-5 24.5t-6 17q-8 12 -17 23t-28 19q-20 9 -36.5 11.5t-24.5 2.5h-37v-219q0 -17 0.5 -27t1.5 -16t2.5 -10.5t4.5 -10.5q5 -12 17 -26t23 -16
q7 -2 24.5 -3.5t41.5 -1.5h75q9 0 20.5 0.5t22 2t19.5 3.5t13 5q25 14 54.5 55.5t55.5 99.5q5 2 11 2h11q6 0 8.5 -0.5t6.5 -2.5q1 -7 1 -12.5v-16.5zM513 451q0 17 -0.5 47.5t-0.5 54.5q0 30 -1 57t-3 51q0 6 -4 12t-11 6q-6 0 -10.5 -4.5t-11.5 -16.5l-171 -292
q11 -2 27.5 -3t33.5 -1q55 0 96.5 1t54.5 3v16.5t0.5 22.5t0.5 24.5v21.5z" />
    <glyph glyph-name="Ccedilla" unicode="&#xc7;" horiz-adv-x="719" 
d="M693 139q-6 -13 -10 -21t-18 -26q-33 -45 -96 -75t-153 -32l-20 -52q4 2 11 2.5t11 0.5q45 0 72.5 -23.5t27.5 -62.5q0 -48 -39 -74.5t-100 -26.5q-25 0 -45.5 6t-35 14t-23 16t-11.5 13q0 25 25 27q17 -12 39.5 -21.5t40.5 -9.5q28 0 45.5 13t17.5 37q0 21 -14.5 31.5
t-34.5 10.5q-19 0 -39 -10l-12 12l43 98q-62 5 -112.5 22.5t-86.5 43.5q-66 50 -103.5 126t-37.5 173q0 91 27.5 162t79.5 122q48 48 110 73t141 25q43 0 75 -5.5t57.5 -15t47 -22.5t42.5 -28q11 13 17 23t17 18q10 -1 22 -3.5t17 -7.5q0 -7 -1 -19t-2.5 -26l-3 -28
t-1.5 -25q0 -9 1.5 -26t3.5 -35t4 -33t2 -19q-3 -3 -11 -6t-13 -3q-7 0 -13 1t-9 2q-12 40 -25 72.5t-26 49.5q-31 40 -71 65t-89 25q-29 0 -55.5 -7.5t-50 -25.5t-43.5 -47t-37 -73q-14 -32 -22 -76t-8 -99q0 -58 10.5 -107.5t20.5 -74.5q9 -23 27 -46.5t44 -42.5t59 -31
t72 -12q57 0 106.5 26.5t94.5 90.5q2 0 3.5 0.5t3.5 0.5q17 0 24.5 -8.5t9.5 -15.5z" />
    <glyph glyph-name="Egrave" unicode="&#xc8;" horiz-adv-x="738" 
d="M725 176v-104t-2 -58q-1 -7 -1.5 -9.5t-2.5 -6.5q-8 -2 -14.5 -2h-12.5q-76 0 -132 1t-95 2t-63 2t-36 1q-44 0 -78 1t-53 1q-10 0 -34.5 -0.5t-52 -1t-53 -1t-37.5 -0.5h-33q-5 8 -5 18q0 5 1.5 11t3.5 11q30 2 56.5 6t33.5 9q2 3 5.5 13t7 23.5t6 28.5t3.5 30
q0 9 0.5 24.5t1 33t0.5 36v34.5v206v36t-0.5 36t-1 31t-1.5 22q-3 18 -7.5 28.5t-9 17.5t-9.5 11l-10 8q-5 3 -15.5 4.5t-21.5 2.5t-21 2t-15 2q-2 3 -3.5 9.5t-1.5 10.5q0 3 1.5 8t3.5 8h34q20 0 56 -1t81 -1h39.5t51 0.5t51.5 0.5h43h55t40 0.5t34.5 0.5h37.5q30 0 55 -1
t31 -1q15 0 18.5 -2.5t4.5 -10.5q1 -9 2 -27.5t2 -41.5t1.5 -48t0.5 -48q-6 -3 -8 -4.5t-7 -1.5h-10t-11 2q-22 37 -44.5 69.5t-51.5 54.5q-21 17 -64 20q-7 0 -28.5 0.5t-65.5 0.5h-27.5t-16.5 -0.5t-9.5 -1t-6.5 -0.5q-1 -7 -2 -16l-2 -18q0 -7 -0.5 -17t-1 -26.5t-1 -41
t-0.5 -60.5v-93h21q11 0 27.5 2t30.5 6q20 6 38.5 19.5t29.5 32.5q1 1 3 8.5t4.5 17l5 19t3.5 14.5q5 2 13 2.5t13 0.5q8 0 12.5 -1t7.5 -3q-1 -13 -3 -32t-3.5 -40t-2.5 -42.5t-1 -40.5q0 -15 1 -35l2 -40t2 -37.5t1 -27.5q-9 -5 -20 -5q-6 0 -14 1t-12 3q-1 5 -2.5 17
t-3.5 24.5t-5 24.5t-6 17q-8 12 -17 23t-28 19q-20 9 -36.5 11.5t-24.5 2.5h-37v-219q0 -17 0.5 -26.5t2 -15.5t3.5 -10.5t5 -10.5q5 -12 16 -26.5t22 -16.5q7 -2 24.5 -3.5t41.5 -1.5h80q28 0 46 2t29 9q10 6 23.5 20t28.5 34.5t30 46t28 54.5q5 2 11 2h11q6 0 8.5 -0.5
t6.5 -2.5q1 -7 1 -12.5v-16.5zM481 776q0 -8 -12.5 -10.5t-23.5 2.5q-57 29 -96.5 49.5t-67.5 37.5q-29 18 -36 31.5t-7 27.5q0 8 2 17.5t8.5 18t18 14.5t30.5 6q18 0 30 -5t21 -13t15.5 -17.5t13.5 -17.5q6 -7 16.5 -20.5t24 -31t29 -37.5t31.5 -40q2 -2 2.5 -6t0.5 -6z
" />
    <glyph glyph-name="Eacute" unicode="&#xc9;" horiz-adv-x="738" 
d="M725 176v-104t-2 -58q-1 -7 -1.5 -9.5t-2.5 -6.5q-8 -2 -14.5 -2h-12.5q-76 0 -132 1t-95 2t-63 2t-36 1q-44 0 -78 1t-53 1q-10 0 -34.5 -0.5t-52 -1t-53 -1t-37.5 -0.5h-33q-5 8 -5 18q0 5 1.5 11t3.5 11q30 2 56.5 6t33.5 9q2 3 5.5 13t7 23.5t6 28.5t3.5 30
q0 9 0.5 24.5t1 33t0.5 36v34.5v206v36t-0.5 36t-1 31t-1.5 22q-3 18 -7.5 28.5t-9 17.5t-9.5 11l-10 8q-5 3 -15.5 4.5t-21.5 2.5t-21 2t-15 2q-2 3 -3.5 9.5t-1.5 10.5q0 3 1.5 8t3.5 8h34q20 0 56 -1t81 -1h39.5t51 0.5t51.5 0.5h43h55t40 0.5t34.5 0.5h37.5q30 0 55 -1
t31 -1q15 0 18.5 -2.5t4.5 -10.5q1 -9 2 -27.5t2 -41.5t1.5 -48t0.5 -48q-6 -3 -8 -4.5t-7 -1.5h-10t-11 2q-22 37 -44.5 69.5t-51.5 54.5q-21 17 -64 20q-7 0 -28.5 0.5t-65.5 0.5h-27.5t-16.5 -0.5t-9.5 -1t-6.5 -0.5q-1 -7 -2 -16l-2 -18q0 -7 -0.5 -17t-1 -26.5t-1 -41
t-0.5 -60.5v-93h21q11 0 27.5 2t30.5 6q20 6 38.5 19.5t29.5 32.5q1 1 3 8.5t4.5 17l5 19t3.5 14.5q5 2 13 2.5t13 0.5q8 0 12.5 -1t7.5 -3q-1 -13 -3 -32t-3.5 -40t-2.5 -42.5t-1 -40.5q0 -15 1 -35l2 -40t2 -37.5t1 -27.5q-9 -5 -20 -5q-6 0 -14 1t-12 3q-1 5 -2.5 17
t-3.5 24.5t-5 24.5t-6 17q-8 12 -17 23t-28 19q-20 9 -36.5 11.5t-24.5 2.5h-37v-219q0 -17 0.5 -26.5t2 -15.5t3.5 -10.5t5 -10.5q5 -12 16 -26.5t22 -16.5q7 -2 24.5 -3.5t41.5 -1.5h80q28 0 46 2t29 9q10 6 23.5 20t28.5 34.5t30 46t28 54.5q5 2 11 2h11q6 0 8.5 -0.5
t6.5 -2.5q1 -7 1 -12.5v-16.5zM529 914q0 -14 -7 -27.5t-36 -31.5q-28 -17 -67.5 -37.5t-96.5 -49.5q-11 -5 -23.5 -2.5t-12.5 10.5q0 2 0.5 6t2.5 6q16 20 31.5 40t29 37.5t24 31t16.5 20.5q7 8 13.5 17.5t15.5 17.5t21 13t30 5q19 0 30.5 -6t18 -14.5t8.5 -18t2 -17.5z
" />
    <glyph glyph-name="Ecircumflex" unicode="&#xca;" horiz-adv-x="738" 
d="M725 176v-104t-2 -58q-1 -7 -1.5 -9.5t-2.5 -6.5q-8 -2 -14.5 -2h-12.5q-76 0 -132 1t-95 2t-63 2t-36 1q-44 0 -78 1t-53 1q-10 0 -34.5 -0.5t-52 -1t-53 -1t-37.5 -0.5h-33q-5 8 -5 18q0 5 1.5 11t3.5 11q30 2 56.5 6t33.5 9q2 3 5.5 13t7 23.5t6 28.5t3.5 30
q0 9 0.5 24.5t1 33t0.5 36v34.5v206v36t-0.5 36t-1 31t-1.5 22q-3 18 -7.5 28.5t-9 17.5t-9.5 11l-10 8q-5 3 -15.5 4.5t-21.5 2.5t-21 2t-15 2q-2 3 -3.5 9.5t-1.5 10.5q0 3 1.5 8t3.5 8h34q20 0 56 -1t81 -1h39.5t51 0.5t51.5 0.5h43h55t40 0.5t34.5 0.5h37.5q30 0 55 -1
t31 -1q15 0 18.5 -2.5t4.5 -10.5q1 -9 2 -27.5t2 -41.5t1.5 -48t0.5 -48q-6 -3 -8 -4.5t-7 -1.5h-10t-11 2q-22 37 -44.5 69.5t-51.5 54.5q-21 17 -64 20q-7 0 -28.5 0.5t-65.5 0.5h-27.5t-16.5 -0.5t-9.5 -1t-6.5 -0.5q-1 -7 -2 -16l-2 -18q0 -7 -0.5 -17t-1 -26.5t-1 -41
t-0.5 -60.5v-93h21q11 0 27.5 2t30.5 6q20 6 38.5 19.5t29.5 32.5q1 1 3 8.5t4.5 17l5 19t3.5 14.5q5 2 13 2.5t13 0.5q8 0 12.5 -1t7.5 -3q-1 -13 -3 -32t-3.5 -40t-2.5 -42.5t-1 -40.5q0 -15 1 -35l2 -40t2 -37.5t1 -27.5q-9 -5 -20 -5q-6 0 -14 1t-12 3q-1 5 -2.5 17
t-3.5 24.5t-5 24.5t-6 17q-8 12 -17 23t-28 19q-20 9 -36.5 11.5t-24.5 2.5h-37v-219q0 -17 0.5 -26.5t2 -15.5t3.5 -10.5t5 -10.5q5 -12 16 -26.5t22 -16.5q7 -2 24.5 -3.5t41.5 -1.5h80q28 0 46 2t29 9q10 6 23.5 20t28.5 34.5t30 46t28 54.5q5 2 11 2h11q6 0 8.5 -0.5
t6.5 -2.5q1 -7 1 -12.5v-16.5zM549 787q3 -4 0.5 -9.5t-8 -8.5t-12.5 -3.5t-13 3.5l-142 103l-143 -103q-6 -4 -13 -3.5t-12.5 4t-8 8.5t0.5 9l112 147q13 19 30.5 27.5t33.5 8.5q19 0 35.5 -8.5t29.5 -27.5l110 -147v0z" />
    <glyph glyph-name="Edieresis" unicode="&#xcb;" horiz-adv-x="738" 
d="M560 856q0 -29 -20.5 -48t-46.5 -19q-30 0 -49 20t-19 47q0 30 20.5 49t47.5 19q30 0 48.5 -20.5t18.5 -47.5zM329 856q0 -27 -18 -47t-49 -20q-30 0 -48.5 20.5t-18.5 46.5q0 27 18.5 47.5t49.5 20.5q27 0 46.5 -19t19.5 -49zM725 176v-104t-2 -58q-1 -7 -1.5 -9.5
t-2.5 -6.5q-8 -2 -14.5 -2h-12.5q-76 0 -132 1t-95 2t-63 2t-36 1q-44 0 -78 1t-53 1q-10 0 -34.5 -0.5t-52 -1t-53 -1t-37.5 -0.5h-33q-5 8 -5 18q0 5 1.5 11t3.5 11q30 2 56.5 6t33.5 9q2 3 5.5 13t7 23.5t6 28.5t3.5 30q0 9 0.5 24.5t1 33t0.5 36v34.5v206v36t-0.5 36
t-1 31t-1.5 22q-3 18 -7.5 28.5t-9 17.5t-9.5 11l-10 8q-5 3 -15.5 4.5t-21.5 2.5t-21 2t-15 2q-2 3 -3.5 9.5t-1.5 10.5q0 3 1.5 8t3.5 8h34q20 0 56 -1t81 -1h39.5t51 0.5t51.5 0.5h43h55t40 0.5t34.5 0.5h37.5q30 0 55 -1t31 -1q15 0 18.5 -2.5t4.5 -10.5q1 -9 2 -27.5
t2 -41.5t1.5 -48t0.5 -48q-6 -3 -8 -4.5t-7 -1.5h-10t-11 2q-22 37 -44.5 69.5t-51.5 54.5q-21 17 -64 20q-7 0 -28.5 0.5t-65.5 0.5h-27.5t-16.5 -0.5t-9.5 -1t-6.5 -0.5q-1 -7 -2 -16l-2 -18q0 -7 -0.5 -17t-1 -26.5t-1 -41t-0.5 -60.5v-93h21q11 0 27.5 2t30.5 6
q20 6 38.5 19.5t29.5 32.5q1 1 3 8.5t4.5 17l5 19t3.5 14.5q5 2 13 2.5t13 0.5q8 0 12.5 -1t7.5 -3q-1 -13 -3 -32t-3.5 -40t-2.5 -42.5t-1 -40.5q0 -15 1 -35l2 -40t2 -37.5t1 -27.5q-9 -5 -20 -5q-6 0 -14 1t-12 3q-1 5 -2.5 17t-3.5 24.5t-5 24.5t-6 17q-8 12 -17 23
t-28 19q-20 9 -36.5 11.5t-24.5 2.5h-37v-219q0 -17 0.5 -26.5t2 -15.5t3.5 -10.5t5 -10.5q5 -12 16 -26.5t22 -16.5q7 -2 24.5 -3.5t41.5 -1.5h80q28 0 46 2t29 9q10 6 23.5 20t28.5 34.5t30 46t28 54.5q5 2 11 2h11q6 0 8.5 -0.5t6.5 -2.5q1 -7 1 -12.5v-16.5z" />
    <glyph glyph-name="Igrave" unicode="&#xcc;" horiz-adv-x="445" 
d="M422 17q0 -3 -1 -8t-3 -9h-33q-12 0 -35.5 0.5t-47.5 1t-43.5 1t-25.5 0.5q-19 0 -46 -1t-54.5 -1.5t-52 -1.5t-39.5 -1h-17q0 4 -1 7.5t-1 9.5q0 3 0.5 10.5t2.5 10.5q27 2 44 6t27.5 8.5t16 9.5t9.5 9q5 10 8.5 26t5.5 34q0 13 0.5 31l1 36t1 34.5t0.5 27.5
q0 44 -0.5 92t-1.5 86l-1.5 103.5t-1.5 48.5q-3 41 -13.5 59.5t-19.5 25.5q-5 4 -23 7.5t-55 6.5q-1 4 -1.5 10t-0.5 9q0 7 1.5 10.5t3.5 6.5h22q17 0 41.5 -1t49 -1.5t44.5 -1t28 -0.5q13 0 36 1t48.5 1.5t49.5 1.5t40 1h29q2 -2 3.5 -6.5t1.5 -9.5q0 -3 -0.5 -9.5
t-2.5 -9.5q-24 -3 -49.5 -7.5t-39.5 -18.5q-5 -5 -11.5 -19.5t-6.5 -34.5v-246v-70t0.5 -67t1 -58.5t0.5 -44.5q5 -27 13.5 -45t20.5 -32q7 -1 17 -2.5t21 -3t20.5 -2.5t15.5 -1q2 -3 2.5 -9.5t0.5 -10.5zM329 776q0 -8 -12.5 -10.5t-23.5 2.5q-57 29 -96.5 49.5t-67.5 37.5
q-29 18 -36 31.5t-7 27.5q0 8 2 17.5t8.5 18t18 14.5t30.5 6q18 0 30 -5t21 -13t15.5 -17.5t13.5 -17.5q6 -7 16.5 -20.5t24 -31t29 -37.5t31.5 -40q2 -2 2.5 -6t0.5 -6z" />
    <glyph glyph-name="Iacute" unicode="&#xcd;" horiz-adv-x="445" 
d="M422 17q0 -3 -1 -8t-3 -9h-33q-12 0 -35.5 0.5t-47.5 1t-43.5 1t-25.5 0.5q-19 0 -46 -1t-54.5 -1.5t-52 -1.5t-39.5 -1h-17q0 4 -1 7.5t-1 9.5q0 3 0.5 10.5t2.5 10.5q27 2 44 6t27.5 8.5t16 9.5t9.5 9q5 10 8.5 26t5.5 34q0 13 0.5 31l1 36t1 34.5t0.5 27.5
q0 44 -0.5 92t-1.5 86l-1.5 103.5t-1.5 48.5q-3 41 -13.5 59.5t-19.5 25.5q-5 4 -23 7.5t-55 6.5q-1 4 -1.5 10t-0.5 9q0 7 1.5 10.5t3.5 6.5h22q17 0 41.5 -1t49 -1.5t44.5 -1t28 -0.5q13 0 36 1t48.5 1.5t49.5 1.5t40 1h29q2 -2 3.5 -6.5t1.5 -9.5q0 -3 -0.5 -9.5
t-2.5 -9.5q-24 -3 -49.5 -7.5t-39.5 -18.5q-5 -5 -11.5 -19.5t-6.5 -34.5v-246v-70t0.5 -67t1 -58.5t0.5 -44.5q5 -27 13.5 -45t20.5 -32q7 -1 17 -2.5t21 -3t20.5 -2.5t15.5 -1q2 -3 2.5 -9.5t0.5 -10.5zM356 914q0 -14 -7 -27.5t-36 -31.5q-28 -17 -67.5 -37.5
t-96.5 -49.5q-11 -5 -23.5 -2.5t-12.5 10.5q0 2 0.5 6t2.5 6q16 20 31.5 40t29 37.5t24 31t16.5 20.5q7 8 13.5 17.5t15.5 17.5t21 13t30 5q19 0 30.5 -6t18 -14.5t8.5 -18t2 -17.5z" />
    <glyph glyph-name="Icircumflex" unicode="&#xce;" horiz-adv-x="445" 
d="M422 17q0 -3 -1 -8t-3 -9h-33q-12 0 -35.5 0.5t-47.5 1t-43.5 1t-25.5 0.5q-19 0 -46 -1t-54.5 -1.5t-52 -1.5t-39.5 -1h-17q0 4 -1 7.5t-1 9.5q0 3 0.5 10.5t2.5 10.5q27 2 44 6t27.5 8.5t16 9.5t9.5 9q5 10 8.5 26t5.5 34q0 13 0.5 31l1 36t1 34.5t0.5 27.5
q0 44 -0.5 92t-1.5 86l-1.5 103.5t-1.5 48.5q-3 41 -13.5 59.5t-19.5 25.5q-5 4 -23 7.5t-55 6.5q-1 4 -1.5 10t-0.5 9q0 7 1.5 10.5t3.5 6.5h22q17 0 41.5 -1t49 -1.5t44.5 -1t28 -0.5q13 0 36 1t48.5 1.5t49.5 1.5t40 1h29q2 -2 3.5 -6.5t1.5 -9.5q0 -3 -0.5 -9.5
t-2.5 -9.5q-24 -3 -49.5 -7.5t-39.5 -18.5q-5 -5 -11.5 -19.5t-6.5 -34.5v-246v-70t0.5 -67t1 -58.5t0.5 -44.5q5 -27 13.5 -45t20.5 -32q7 -1 17 -2.5t21 -3t20.5 -2.5t15.5 -1q2 -3 2.5 -9.5t0.5 -10.5zM398 787q3 -4 0.5 -9.5t-8 -8.5t-12.5 -3.5t-13 3.5l-142 103
l-143 -103q-6 -4 -13 -3.5t-12.5 4t-8 8.5t0.5 9l112 147q13 19 30.5 27.5t33.5 8.5q19 0 35.5 -8.5t29.5 -27.5l110 -147v0z" />
    <glyph glyph-name="Idieresis" unicode="&#xcf;" horiz-adv-x="445" 
d="M405 856q0 -29 -20.5 -48t-46.5 -19q-30 0 -49 20t-19 47q0 30 20.5 49t47.5 19q30 0 48.5 -20.5t18.5 -47.5zM174 856q0 -27 -18 -47t-49 -20q-30 0 -48.5 20.5t-18.5 46.5q0 27 18.5 47.5t49.5 20.5q27 0 46.5 -19t19.5 -49zM422 17q0 -3 -1 -8t-3 -9h-33
q-12 0 -35.5 0.5t-47.5 1t-43.5 1t-25.5 0.5q-19 0 -46 -1t-54.5 -1.5t-52 -1.5t-39.5 -1h-17q0 4 -1 7.5t-1 9.5q0 3 0.5 10.5t2.5 10.5q27 2 44 6t27.5 8.5t16 9.5t9.5 9q5 10 8.5 26t5.5 34q0 13 0.5 31l1 36t1 34.5t0.5 27.5q0 44 -0.5 92t-1.5 86l-1.5 103.5t-1.5 48.5
q-3 41 -13.5 59.5t-19.5 25.5q-5 4 -23 7.5t-55 6.5q-1 4 -1.5 10t-0.5 9q0 7 1.5 10.5t3.5 6.5h22q17 0 41.5 -1t49 -1.5t44.5 -1t28 -0.5q13 0 36 1t48.5 1.5t49.5 1.5t40 1h29q2 -2 3.5 -6.5t1.5 -9.5q0 -3 -0.5 -9.5t-2.5 -9.5q-24 -3 -49.5 -7.5t-39.5 -18.5
q-5 -5 -11.5 -19.5t-6.5 -34.5v-246v-70t0.5 -67t1 -58.5t0.5 -44.5q5 -27 13.5 -45t20.5 -32q7 -1 17 -2.5t21 -3t20.5 -2.5t15.5 -1q2 -3 2.5 -9.5t0.5 -10.5z" />
    <glyph glyph-name="Eth" unicode="&#xd0;" horiz-adv-x="877" 
d="M841 340q0 -106 -60 -198q-26 -39 -58 -66.5t-73.5 -45t-92.5 -25t-115 -7.5q-13 0 -35.5 0.5t-47.5 0.5t-49 0.5t-40 0.5q-15 0 -45 -0.5t-61.5 -0.5t-58 -0.5t-36.5 -0.5q-5 0 -20 -0.5t-26 -0.5q-2 2 -3.5 7.5t-1.5 9.5q0 11 4 19q32 2 50 5t29 11q10 9 21.5 23
t18.5 51q0 22 0.5 50t1.5 58.5t1.5 60.5t0.5 57h-92q-13 0 -18 6.5t-5 16.5q0 11 4.5 17.5t18.5 6.5h92q0 86 -2 132t-3 54q-2 20 -5.5 37t-15 30t-33 20t-59.5 7q-2 2 -3.5 8t-1.5 11q0 3 1.5 8t3.5 9h40q23 0 45.5 -1t39.5 -1h14t22.5 0.5t25.5 1t23 0.5q53 4 102.5 5.5
t93.5 1.5q72 0 130 -11.5t99 -33.5q44 -24 77 -61.5t56 -82t34.5 -93.5t11.5 -97zM650 357q0 173 -96 261q-35 32 -79 46.5t-98 14.5q-17 0 -31.5 -1t-28.5 -4l-1 -11v-267h171q14 0 18.5 -5.5t4.5 -15.5q0 -11 -4.5 -18.5t-18.5 -7.5h-171v-197q0 -60 18 -84
q13 -18 28.5 -24.5t45.5 -6.5q109 0 173 86q69 93 69 234z" />
    <glyph glyph-name="Ntilde" unicode="&#xd1;" horiz-adv-x="845" 
d="M846 710q0 -4 -1 -9.5t-3 -9.5q-26 -1 -49 -9t-40.5 -26.5t-28 -49.5t-10.5 -78v-417q0 -11 0.5 -31.5t0.5 -42.5q0 -18 -3.5 -29.5t-5.5 -15.5q-4 -2 -12 -2q-4 0 -14 1t-14 5l-462 519q-4 5 -8.5 11t-9.5 11q-1 -26 -1.5 -74.5t-0.5 -108.5q0 -45 0.5 -78t0.5 -57
q0 -13 1 -32t3 -37.5t4 -33.5t5 -21q13 -17 28.5 -27.5t31.5 -17t31.5 -10.5t28.5 -7q2 -3 2.5 -8t0.5 -8t-1 -9.5t-4 -7.5h-60q-31 0 -56.5 1.5t-58.5 1.5q-11 0 -24.5 -0.5l-27 -1t-25 -1t-19.5 -0.5h-19q-2 1 -2.5 6.5t-0.5 7.5q0 8 4 18q39 10 64 22t41 29q2 13 4 32
t2 44v203q0 53 1.5 104.5t1.5 90.5q0 23 -4 32q-7 15 -24 32t-29 31q-20 22 -42 28.5t-33 9.5q-1 2 -2 9.5t-1 9.5q0 6 4 14q6 0 29 -0.5t52 -1t60.5 -1t55.5 -0.5q6 0 15 -0.5t15 -0.5q11 -7 15 -13l334 -370q30 -34 49 -59t32 -41q1 8 1.5 16.5t0.5 26.5v209
q0 31 -0.5 45.5t-1.5 25.5q-2 29 -8.5 57.5t-20.5 44.5q-10 6 -25 11t-30.5 8t-28.5 5.5t-19 4.5q-3 3 -4 8t-1 9q0 3 1 9t3 8h26q4 0 14 -0.5t22.5 -0.5t26 -0.5t25.5 -0.5q34 0 58 0.5t43 0.5t35.5 0.5t35.5 0.5h23q2 -2 2.5 -6.5t0.5 -7.5zM624 917q-4 -24 -14.5 -45.5
t-26.5 -37.5t-35 -25.5t-40 -9.5q-14 0 -31 5t-46 20q-41 22 -59 22q-22 0 -35.5 -12t-18.5 -28q-5 -21 -20 -21q-24 0 -20 30q4 24 14.5 45.5t26.5 37t35 25t40 9.5q14 0 34 -6.5t43 -17.5q45 -22 59 -22q21 0 35 12.5t19 28.5q5 20 20 20q24 0 20 -30z" />
    <glyph glyph-name="Ograve" unicode="&#xd2;" horiz-adv-x="829" 
d="M796 373q0 -79 -26 -146t-75 -121q-28 -31 -62.5 -55t-76.5 -40q-75 -29 -152 -29q-129 0 -228 72q-33 24 -59 57t-45 71t-29 80t-10 85q0 108 58 203q22 37 57 71t79 59.5t95 40.5t106 15q97 0 190 -51q88 -48 133 -127t45 -185zM615 392q0 154 -57 232q-23 32 -59 50.5
t-77 18.5q-26 0 -52 -9t-52 -30q-48 -40 -74 -118.5t-26 -183.5q0 -35 4 -72t11.5 -71.5t18.5 -64.5t25 -52q21 -34 56 -50.5t77 -16.5q63 0 106 36q21 18 39.5 50.5t31.5 76t20.5 95.5t7.5 109zM529 776q0 -8 -12.5 -10.5t-23.5 2.5q-57 29 -96.5 49.5t-67.5 37.5
q-29 18 -36 31.5t-7 27.5q0 8 2 17.5t8.5 18t18 14.5t30.5 6q18 0 30 -5t21 -13t15.5 -17.5t13.5 -17.5q6 -7 16.5 -20.5t24 -31t29 -37.5t31.5 -40q2 -2 2.5 -6t0.5 -6z" />
    <glyph glyph-name="Oacute" unicode="&#xd3;" horiz-adv-x="829" 
d="M796 373q0 -79 -26 -146t-75 -121q-28 -31 -62.5 -55t-76.5 -40q-75 -29 -152 -29q-129 0 -228 72q-33 24 -59 57t-45 71t-29 80t-10 85q0 108 58 203q22 37 57 71t79 59.5t95 40.5t106 15q97 0 190 -51q88 -48 133 -127t45 -185zM615 392q0 154 -57 232q-23 32 -59 50.5
t-77 18.5q-26 0 -52 -9t-52 -30q-48 -40 -74 -118.5t-26 -183.5q0 -35 4 -72t11.5 -71.5t18.5 -64.5t25 -52q21 -34 56 -50.5t77 -16.5q63 0 106 36q21 18 39.5 50.5t31.5 76t20.5 95.5t7.5 109zM558 914q0 -14 -7 -27.5t-36 -31.5q-28 -17 -67.5 -37.5t-96.5 -49.5
q-11 -5 -23.5 -2.5t-12.5 10.5q0 2 0.5 6t2.5 6q16 20 31.5 40t29 37.5t24 31t16.5 20.5q7 8 13.5 17.5t15.5 17.5t21 13t30 5q19 0 30.5 -6t18 -14.5t8.5 -18t2 -17.5z" />
    <glyph glyph-name="Ocircumflex" unicode="&#xd4;" horiz-adv-x="829" 
d="M796 373q0 -79 -26 -146t-75 -121q-28 -31 -62.5 -55t-76.5 -40q-75 -29 -152 -29q-129 0 -228 72q-33 24 -59 57t-45 71t-29 80t-10 85q0 108 58 203q22 37 57 71t79 59.5t95 40.5t106 15q97 0 190 -51q88 -48 133 -127t45 -185zM615 392q0 154 -57 232q-23 32 -59 50.5
t-77 18.5q-26 0 -52 -9t-52 -30q-48 -40 -74 -118.5t-26 -183.5q0 -35 4 -72t11.5 -71.5t18.5 -64.5t25 -52q21 -34 56 -50.5t77 -16.5q63 0 106 36q21 18 39.5 50.5t31.5 76t20.5 95.5t7.5 109zM591 787q3 -4 0.5 -9.5t-8 -8.5t-12.5 -3.5t-13 3.5l-142 103l-143 -103
q-6 -4 -13 -3.5t-12.5 4t-8 8.5t0.5 9l112 147q13 19 30.5 27.5t33.5 8.5q19 0 35.5 -8.5t29.5 -27.5l110 -147v0z" />
    <glyph glyph-name="Otilde" unicode="&#xd5;" horiz-adv-x="829" 
d="M796 373q0 -79 -26 -146t-75 -121q-28 -31 -62.5 -55t-76.5 -40q-75 -29 -152 -29q-129 0 -228 72q-33 24 -59 57t-45 71t-29 80t-10 85q0 108 58 203q22 37 57 71t79 59.5t95 40.5t106 15q97 0 190 -51q88 -48 133 -127t45 -185zM615 392q0 154 -57 232q-23 32 -59 50.5
t-77 18.5q-26 0 -52 -9t-52 -30q-48 -40 -74 -118.5t-26 -183.5q0 -35 4 -72t11.5 -71.5t18.5 -64.5t25 -52q21 -34 56 -50.5t77 -16.5q63 0 106 36q21 18 39.5 50.5t31.5 76t20.5 95.5t7.5 109zM584 917q-4 -24 -14.5 -45.5t-26.5 -37.5t-35 -25.5t-40 -9.5q-14 0 -31 5
t-46 20q-41 22 -59 22q-22 0 -35.5 -12t-18.5 -28q-5 -21 -20 -21q-24 0 -20 30q4 24 14.5 45.5t26.5 37t35 25t40 9.5q14 0 34 -6.5t43 -17.5q45 -22 59 -22q21 0 35 12.5t19 28.5q5 20 20 20q24 0 20 -30z" />
    <glyph glyph-name="Odieresis" unicode="&#xd6;" horiz-adv-x="829" 
d="M597 856q0 -29 -20.5 -48t-46.5 -19q-30 0 -49 20t-19 47q0 30 20.5 49t47.5 19q30 0 48.5 -20.5t18.5 -47.5zM366 856q0 -27 -18 -47t-49 -20q-30 0 -48.5 20.5t-18.5 46.5q0 27 18.5 47.5t49.5 20.5q27 0 46.5 -19t19.5 -49zM796 373q0 -79 -26 -146t-75 -121
q-28 -31 -62.5 -55t-76.5 -40q-75 -29 -152 -29q-129 0 -228 72q-33 24 -59 57t-45 71t-29 80t-10 85q0 108 58 203q22 37 57 71t79 59.5t95 40.5t106 15q97 0 190 -51q88 -48 133 -127t45 -185zM615 392q0 154 -57 232q-23 32 -59 50.5t-77 18.5q-26 0 -52 -9t-52 -30
q-48 -40 -74 -118.5t-26 -183.5q0 -35 4 -72t11.5 -71.5t18.5 -64.5t25 -52q21 -34 56 -50.5t77 -16.5q63 0 106 36q21 18 39.5 50.5t31.5 76t20.5 95.5t7.5 109z" />
    <glyph glyph-name="multiply" unicode="&#xd7;" horiz-adv-x="780" 
d="M439 249l235 -233l-50 -54l-235 236l-234 -236l-50 54l234 233l-235 234l52 52l233 -237l236 238l50 -53z" />
    <glyph glyph-name="Oslash" unicode="&#xd8;" horiz-adv-x="831" 
d="M796 373q0 -79 -26 -146t-75 -121q-28 -31 -62.5 -55t-76.5 -40q-75 -29 -152 -29q-54 0 -101.5 13t-90.5 39l-68 -99q-3 -5 -12 -4t-14 3t-11 9t-1 15l69 100q-32 24 -58 56.5t-45 70t-29 78.5t-10 84q0 108 58 203q22 37 57 71t79 59.5t95 40.5t106 15q48 0 92 -13
t89 -36l56 80q2 3 11 4t16 -2q6 -2 10.5 -9.5t1.5 -12.5l-57 -83q72 -49 110.5 -122t38.5 -169zM565 622q-21 32 -60.5 51.5t-82.5 19.5q-27 0 -54 -9t-53 -30q-50 -40 -76 -118.5t-26 -183.5q0 -50 7 -103t22 -97l323 470v0zM620 392q0 59 -7.5 107t-23.5 84l-327 -476
q23 -43 61.5 -62.5t86.5 -19.5q64 0 109 36q22 18 40.5 50.5t32 76t21 95.5t7.5 109z" />
    <glyph glyph-name="Ugrave" unicode="&#xd9;" horiz-adv-x="861" 
d="M857 704q0 -9 -4 -17q-20 -2 -33 -4t-22 -3.5t-15.5 -3t-12.5 -3.5q-11 -18 -20 -43.5t-10 -66.5q0 -14 -1 -43t-1 -56v-184q0 -62 -17 -119q-29 -94 -108 -135q-77 -41 -184 -41q-118 0 -199 48q-72 44 -93 123q-6 21 -8.5 55t-2.5 81v232q0 48 -1 73t-2 35
q-5 13 -13.5 24.5t-21.5 19.5q-11 2 -27 4.5t-40 5.5q-2 2 -3 7.5t-1 9.5t1 10.5t4 8.5h42h29.5t40 -0.5t43.5 -0.5h40h31t40 0.5t41.5 1t34.5 0.5l38 1q3 -2 5 -8t2 -10q0 -9 -5 -19q-9 -1 -21.5 -2t-23.5 -2.5t-20 -2.5t-12 -3q-8 -9 -19.5 -24t-11.5 -32l1 -112l4 -279
q0 -12 5.5 -29.5t16.5 -36t27.5 -35.5t38.5 -29q23 -12 49 -20t56 -8q140 0 178 133q7 25 11 61t6 78q0 11 0.5 24t0.5 30v40v55q0 45 -3 68.5t-5 31.5q-1 8 -6 18.5t-11 21t-12 19.5l-10 15q-5 7 -19 10.5t-29.5 5.5t-27.5 2.5t-14 0.5q-2 4 -2.5 9.5t-0.5 8.5q0 10 4 18
h36q22 0 53 -1t61 -1q27 0 61.5 1t57.5 1h29q2 -2 3.5 -8.5t1.5 -9.5zM564 776q0 -8 -12.5 -10.5t-23.5 2.5q-57 29 -96.5 49.5t-67.5 37.5q-29 18 -36 31.5t-7 27.5q0 8 2 17.5t8.5 18t18 14.5t30.5 6q18 0 30 -5t21 -13t15.5 -17.5t13.5 -17.5q6 -7 16.5 -20.5t24 -31
t29 -37.5t31.5 -40q2 -2 2.5 -6t0.5 -6z" />
    <glyph glyph-name="Uacute" unicode="&#xda;" horiz-adv-x="861" 
d="M857 704q0 -9 -4 -17q-20 -2 -33 -4t-22 -3.5t-15.5 -3t-12.5 -3.5q-11 -18 -20 -43.5t-10 -66.5q0 -14 -1 -43t-1 -56v-184q0 -62 -17 -119q-29 -94 -108 -135q-77 -41 -184 -41q-118 0 -199 48q-72 44 -93 123q-6 21 -8.5 55t-2.5 81v232q0 48 -1 73t-2 35
q-5 13 -13.5 24.5t-21.5 19.5q-11 2 -27 4.5t-40 5.5q-2 2 -3 7.5t-1 9.5t1 10.5t4 8.5h42h29.5t40 -0.5t43.5 -0.5h40h31t40 0.5t41.5 1t34.5 0.5l38 1q3 -2 5 -8t2 -10q0 -9 -5 -19q-9 -1 -21.5 -2t-23.5 -2.5t-20 -2.5t-12 -3q-8 -9 -19.5 -24t-11.5 -32l1 -112l4 -279
q0 -12 5.5 -29.5t16.5 -36t27.5 -35.5t38.5 -29q23 -12 49 -20t56 -8q140 0 178 133q7 25 11 61t6 78q0 11 0.5 24t0.5 30v40v55q0 45 -3 68.5t-5 31.5q-1 8 -6 18.5t-11 21t-12 19.5l-10 15q-5 7 -19 10.5t-29.5 5.5t-27.5 2.5t-14 0.5q-2 4 -2.5 9.5t-0.5 8.5q0 10 4 18
h36q22 0 53 -1t61 -1q27 0 61.5 1t57.5 1h29q2 -2 3.5 -8.5t1.5 -9.5zM599 914q0 -14 -7 -27.5t-36 -31.5q-28 -17 -67.5 -37.5t-96.5 -49.5q-11 -5 -23.5 -2.5t-12.5 10.5q0 2 0.5 6t2.5 6q16 20 31.5 40t29 37.5t24 31t16.5 20.5q7 8 13.5 17.5t15.5 17.5t21 13t30 5
q19 0 30.5 -6t18 -14.5t8.5 -18t2 -17.5z" />
    <glyph glyph-name="Ucircumflex" unicode="&#xdb;" horiz-adv-x="861" 
d="M857 704q0 -9 -4 -17q-20 -2 -33 -4t-22 -3.5t-15.5 -3t-12.5 -3.5q-11 -18 -20 -43.5t-10 -66.5q0 -14 -1 -43t-1 -56v-184q0 -62 -17 -119q-29 -94 -108 -135q-77 -41 -184 -41q-118 0 -199 48q-72 44 -93 123q-6 21 -8.5 55t-2.5 81v232q0 48 -1 73t-2 35
q-5 13 -13.5 24.5t-21.5 19.5q-11 2 -27 4.5t-40 5.5q-2 2 -3 7.5t-1 9.5t1 10.5t4 8.5h42h29.5t40 -0.5t43.5 -0.5h40h31t40 0.5t41.5 1t34.5 0.5l38 1q3 -2 5 -8t2 -10q0 -9 -5 -19q-9 -1 -21.5 -2t-23.5 -2.5t-20 -2.5t-12 -3q-8 -9 -19.5 -24t-11.5 -32l1 -112l4 -279
q0 -12 5.5 -29.5t16.5 -36t27.5 -35.5t38.5 -29q23 -12 49 -20t56 -8q140 0 178 133q7 25 11 61t6 78q0 11 0.5 24t0.5 30v40v55q0 45 -3 68.5t-5 31.5q-1 8 -6 18.5t-11 21t-12 19.5l-10 15q-5 7 -19 10.5t-29.5 5.5t-27.5 2.5t-14 0.5q-2 4 -2.5 9.5t-0.5 8.5q0 10 4 18
h36q22 0 53 -1t61 -1q27 0 61.5 1t57.5 1h29q2 -2 3.5 -8.5t1.5 -9.5zM636 787q3 -4 0.5 -9.5t-8 -8.5t-12.5 -3.5t-13 3.5l-142 103l-143 -103q-6 -4 -13 -3.5t-12.5 4t-8 8.5t0.5 9l112 147q13 19 30.5 27.5t33.5 8.5q19 0 35.5 -8.5t29.5 -27.5l110 -147v0z" />
    <glyph glyph-name="Udieresis" unicode="&#xdc;" horiz-adv-x="861" 
d="M634 856q0 -29 -20.5 -48t-46.5 -19q-30 0 -49 20t-19 47q0 30 20.5 49t47.5 19q30 0 48.5 -20.5t18.5 -47.5zM403 856q0 -27 -18 -47t-49 -20q-30 0 -48.5 20.5t-18.5 46.5q0 27 18.5 47.5t49.5 20.5q27 0 46.5 -19t19.5 -49zM857 704q0 -9 -4 -17q-20 -2 -33 -4
t-22 -3.5t-15.5 -3t-12.5 -3.5q-11 -18 -20 -43.5t-10 -66.5q0 -14 -1 -43t-1 -56v-184q0 -62 -17 -119q-29 -94 -108 -135q-77 -41 -184 -41q-118 0 -199 48q-72 44 -93 123q-6 21 -8.5 55t-2.5 81v232q0 48 -1 73t-2 35q-5 13 -13.5 24.5t-21.5 19.5q-11 2 -27 4.5
t-40 5.5q-2 2 -3 7.5t-1 9.5t1 10.5t4 8.5h42h29.5t40 -0.5t43.5 -0.5h40h31t40 0.5t41.5 1t34.5 0.5l38 1q3 -2 5 -8t2 -10q0 -9 -5 -19q-9 -1 -21.5 -2t-23.5 -2.5t-20 -2.5t-12 -3q-8 -9 -19.5 -24t-11.5 -32l1 -112l4 -279q0 -12 5.5 -29.5t16.5 -36t27.5 -35.5
t38.5 -29q23 -12 49 -20t56 -8q140 0 178 133q7 25 11 61t6 78q0 11 0.5 24t0.5 30v40v55q0 45 -3 68.5t-5 31.5q-1 8 -6 18.5t-11 21t-12 19.5l-10 15q-5 7 -19 10.5t-29.5 5.5t-27.5 2.5t-14 0.5q-2 4 -2.5 9.5t-0.5 8.5q0 10 4 18h36q22 0 53 -1t61 -1q27 0 61.5 1
t57.5 1h29q2 -2 3.5 -8.5t1.5 -9.5z" />
    <glyph glyph-name="Yacute" unicode="&#xdd;" horiz-adv-x="774" 
d="M784 710q0 -3 -1.5 -8.5t-3.5 -9.5q-7 -2 -17.5 -4t-21 -4.5t-19.5 -5.5t-14 -6q-15 -9 -32 -25t-28 -36l-157 -302q-7 -11 -7 -27q0 -1 -0.5 -8.5t0.5 -16.5l9 -141q1 -15 3 -24t5 -16t7.5 -12.5t10.5 -11.5q4 -4 13.5 -7t22 -5.5t26 -4t25.5 -3.5q2 -4 3 -9t1 -9
t-1.5 -9.5t-3.5 -8.5q-14 0 -33 0.5t-45 1.5q-22 0 -45.5 0.5t-44 1t-36.5 0.5h-24h-32t-46 -0.5t-50 -0.5h-44q-1 3 -2 8t-1 9q0 10 5 19q9 1 21.5 2.5t24.5 3.5t21.5 4t12.5 3q13 8 22.5 26.5t9.5 50.5q0 38 -2 64t-7 47q-4 14 -11 32.5t-21 42.5l-177 334
q-5 10 -26.5 19.5t-72.5 21.5q-2 4 -3.5 9t-1.5 8q0 10 6 20q3 0 20.5 -0.5t41 -1t49 -1t43.5 -0.5q43 0 70.5 0.5t48 1t39 1t43.5 0.5h18q2 -4 4 -7t2 -8v-9.5t-2 -10.5q-32 -4 -53.5 -8t-28.5 -17q-2 -3 -3 -9.5t0 -16.5q0 -7 3.5 -15t5.5 -13l54 -112q5 -10 15.5 -31.5
t24 -47t27.5 -51.5t24 -44q12 19 32 57t52 101q21 42 35.5 71.5t22.5 48.5q4 10 5 19t1 18q0 5 -1.5 13t-6.5 16q-3 5 -11.5 9t-20 7.5t-24 6t-23.5 4.5q-1 2 -1 7.5v9.5q0 9 4 17q20 0 51 -2t69 -2q8 0 26 0.5t39.5 1t43.5 1t37 0.5q2 -3 4 -7.5t2 -9.5zM540 914
q0 -14 -7 -27.5t-36 -31.5q-28 -17 -67.5 -37.5t-96.5 -49.5q-11 -5 -23.5 -2.5t-12.5 10.5q0 2 0.5 6t2.5 6q16 20 31.5 40t29 37.5t24 31t16.5 20.5q7 8 13.5 17.5t15.5 17.5t21 13t30 5q19 0 30.5 -6t18 -14.5t8.5 -18t2 -17.5z" />
    <glyph glyph-name="Thorn" unicode="&#xde;" horiz-adv-x="729" 
d="M701 382q0 -29 -8 -56.5t-23 -51.5t-36 -42.5t-48 -28.5q-23 -8 -52 -13t-64 -5q-26 0 -69 1.5t-88 4.5l1 -67q0 -23 6 -36.5t14 -22.5q7 -8 18.5 -13.5t24.5 -9t26.5 -5.5t24.5 -4q2 -3 2 -8v-10q0 -4 -0.5 -8.5t-2.5 -7.5h-25q-14 0 -37 0.5t-52 1.5t-62 1.5t-66 0.5
q-13 0 -35.5 -0.5t-46.5 -1.5t-46 -1.5t-34 -0.5q-2 4 -2.5 6t-0.5 8q0 11 2 21q16 2 31.5 5t26.5 5q25 8 39.5 28t17.5 43q2 18 3 102.5t1 243.5q0 57 -1.5 91.5t-3.5 60.5q-5 22 -9.5 34t-17.5 23q-15 4 -35.5 7.5t-34.5 8.5q-2 4 -2.5 10.5t-0.5 9.5q0 8 5 16q23 0 66 -2
t108 -2q31 0 61 0.5t55.5 1t45.5 1t32 0.5q5 -8 5 -16q0 -3 -0.5 -9.5t-2.5 -10.5q-14 -5 -36 -8t-37 -7l-10 -10t-6 -9.5t-4 -12.5t-4 -18q-1 -9 -1.5 -19t-1.5 -23q28 1 54.5 1.5t49.5 0.5q66 0 110 -6t69 -17q48 -22 77.5 -70t29.5 -105zM518 386q0 55 -22 97
q-15 32 -45 45.5t-81 13.5q-22 0 -36 -2t-23 -3l1 -299q0 -5 13 -7q5 -1 16.5 -1.5t27.5 -0.5q38 0 60 7t38 20q25 22 38 57t13 73z" />
    <glyph glyph-name="germandbls" unicode="&#xdf;" horiz-adv-x="607" 
d="M583 207q0 -47 -16 -86t-51 -72q-27 -26 -65.5 -41.5t-92.5 -15.5q-52 0 -79 26t-27 63q0 29 16 44.5t41 15.5q23 0 39 -13t16 -36q0 -8 -3 -17.5t-7 -14.5q-3 -5 -5 -8.5t-2 -8.5q0 -11 7.5 -14.5t15.5 -3.5t18 6t19 23q12 23 15.5 59t3.5 90q0 60 -11 93t-29 55
q-17 21 -46.5 27.5t-58.5 9.5q-2 5 -4.5 8.5t-2.5 9.5t1.5 10t3.5 9q4 0 13 1t19 2.5t19 3.5t13 4q23 13 36 42.5t13 79.5q0 60 -19.5 92.5t-57.5 32.5q-13 0 -25 -4t-22 -14t-18 -27t-13 -43q-3 -14 -4.5 -33t-1.5 -38v-524q-8 0 -22 -0.5t-29 -0.5h-28.5h-20.5
q-35 0 -69.5 0.5t-51.5 1.5q-2 3 -2.5 9t-0.5 8q0 3 0.5 9t2.5 9q22 2 36 3t22 5.5t11 14t3 28.5v435q0 43 15 78t41 60q67 64 172 64q48 0 90 -10.5t73.5 -31.5t49.5 -52t18 -71q0 -55 -34 -93t-97 -53q-3 -2 -8.5 -1.5t-5.5 -3.5q0 -2 3 -2h6q56 -9 91 -37
q18 -12 33.5 -29t27.5 -38t19 -45t7 -50z" />
    <glyph glyph-name="agrave" unicode="&#xe0;" horiz-adv-x="514" 
d="M531 47q-9 -15 -25.5 -26t-35 -18t-38 -10.5t-36.5 -3.5q-12 0 -25.5 1.5t-26 5t-22.5 10t-16 15.5q-5 9 -7 23t-2 22h-3q-25 -29 -65.5 -53t-88.5 -24q-50 0 -80 27t-30 74q0 25 8.5 48t28.5 42q23 21 62 40t87 37l78 29q0 32 -0.5 57t-1.5 39q-4 15 -16 27t-30 12
q-17 0 -33.5 -4t-21.5 -12q6 -12 10.5 -23t4.5 -30q0 -32 -20.5 -51.5t-59.5 -19.5q-42 0 -63 22.5t-21 48.5q0 28 14 45t34 28q28 15 65.5 26t87.5 11q97 0 146.5 -31t49.5 -94l1 -253q0 -19 12 -25t23 -6t21 7t18 15q8 -1 12.5 -10t4.5 -18zM296 245q-5 -3 -17 -7.5
t-29 -12.5q-42 -20 -58.5 -41.5t-16.5 -45.5q0 -25 14.5 -40t35.5 -15q17 0 37.5 8.5t31.5 25.5v67q0 12 1 30t1 31zM343 536q0 -8 -12.5 -10.5t-23.5 2.5q-57 29 -96.5 49.5t-67.5 37.5q-29 18 -36 31.5t-7 27.5q0 8 2 17.5t8.5 18t18 14.5t30.5 6q18 0 30 -5t21 -13
t15.5 -17.5t13.5 -17.5q6 -7 16.5 -20.5t24 -31t29 -37.5t31.5 -40q2 -2 2.5 -6t0.5 -6z" />
    <glyph glyph-name="aacute" unicode="&#xe1;" horiz-adv-x="514" 
d="M531 47q-9 -15 -25.5 -26t-35 -18t-38 -10.5t-36.5 -3.5q-12 0 -25.5 1.5t-26 5t-22.5 10t-16 15.5q-5 9 -7 23t-2 22h-3q-25 -29 -65.5 -53t-88.5 -24q-50 0 -80 27t-30 74q0 25 8.5 48t28.5 42q23 21 62 40t87 37l78 29q0 32 -0.5 57t-1.5 39q-4 15 -16 27t-30 12
q-17 0 -33.5 -4t-21.5 -12q6 -12 10.5 -23t4.5 -30q0 -32 -20.5 -51.5t-59.5 -19.5q-42 0 -63 22.5t-21 48.5q0 28 14 45t34 28q28 15 65.5 26t87.5 11q97 0 146.5 -31t49.5 -94l1 -253q0 -19 12 -25t23 -6t21 7t18 15q8 -1 12.5 -10t4.5 -18zM296 245q-5 -3 -17 -7.5
t-29 -12.5q-42 -20 -58.5 -41.5t-16.5 -45.5q0 -25 14.5 -40t35.5 -15q17 0 37.5 8.5t31.5 25.5v67q0 12 1 30t1 31zM389 674q0 -14 -7 -27.5t-36 -31.5q-28 -17 -67.5 -37.5t-96.5 -49.5q-11 -5 -23.5 -2.5t-12.5 10.5q0 2 0.5 6t2.5 6q16 20 31.5 40t29 37.5t24 31
t16.5 20.5q7 8 13.5 17.5t15.5 17.5t21 13t30 5q19 0 30.5 -6t18 -14.5t8.5 -18t2 -17.5z" />
    <glyph glyph-name="acircumflex" unicode="&#xe2;" horiz-adv-x="514" 
d="M531 47q-9 -15 -25.5 -26t-35 -18t-38 -10.5t-36.5 -3.5q-12 0 -25.5 1.5t-26 5t-22.5 10t-16 15.5q-5 9 -7 23t-2 22h-3q-25 -29 -65.5 -53t-88.5 -24q-50 0 -80 27t-30 74q0 25 8.5 48t28.5 42q23 21 62 40t87 37l78 29q0 32 -0.5 57t-1.5 39q-4 15 -16 27t-30 12
q-17 0 -33.5 -4t-21.5 -12q6 -12 10.5 -23t4.5 -30q0 -32 -20.5 -51.5t-59.5 -19.5q-42 0 -63 22.5t-21 48.5q0 28 14 45t34 28q28 15 65.5 26t87.5 11q97 0 146.5 -31t49.5 -94l1 -253q0 -19 12 -25t23 -6t21 7t18 15q8 -1 12.5 -10t4.5 -18zM296 245q-5 -3 -17 -7.5
t-29 -12.5q-42 -20 -58.5 -41.5t-16.5 -45.5q0 -25 14.5 -40t35.5 -15q17 0 37.5 8.5t31.5 25.5v67q0 12 1 30t1 31zM412 547q3 -4 0.5 -9.5t-8 -8.5t-12.5 -3.5t-13 3.5l-142 103l-143 -103q-6 -4 -13 -3.5t-12.5 4t-8 8.5t0.5 9l112 147q13 19 30.5 27.5t33.5 8.5
q19 0 35.5 -8.5t29.5 -27.5l110 -147v0z" />
    <glyph glyph-name="atilde" unicode="&#xe3;" horiz-adv-x="514" 
d="M531 47q-9 -15 -25.5 -26t-35 -18t-38 -10.5t-36.5 -3.5q-12 0 -25.5 1.5t-26 5t-22.5 10t-16 15.5q-5 9 -7 23t-2 22h-3q-25 -29 -65.5 -53t-88.5 -24q-50 0 -80 27t-30 74q0 25 8.5 48t28.5 42q23 21 62 40t87 37l78 29q0 32 -0.5 57t-1.5 39q-4 15 -16 27t-30 12
q-17 0 -33.5 -4t-21.5 -12q6 -12 10.5 -23t4.5 -30q0 -32 -20.5 -51.5t-59.5 -19.5q-42 0 -63 22.5t-21 48.5q0 28 14 45t34 28q28 15 65.5 26t87.5 11q97 0 146.5 -31t49.5 -94l1 -253q0 -19 12 -25t23 -6t21 7t18 15q8 -1 12.5 -10t4.5 -18zM296 245q-5 -3 -17 -7.5
t-29 -12.5q-42 -20 -58.5 -41.5t-16.5 -45.5q0 -25 14.5 -40t35.5 -15q17 0 37.5 8.5t31.5 25.5v67q0 12 1 30t1 31zM415 677q-4 -24 -14.5 -45.5t-26.5 -37.5t-35 -25.5t-40 -9.5q-14 0 -31 5t-46 20q-41 22 -59 22q-22 0 -35.5 -12t-18.5 -28q-5 -21 -20 -21q-24 0 -20 30
q4 24 14.5 45.5t26.5 37t35 25t40 9.5q14 0 34 -6.5t43 -17.5q45 -22 59 -22q21 0 35 12.5t19 28.5q5 20 20 20q24 0 20 -30z" />
    <glyph glyph-name="adieresis" unicode="&#xe4;" horiz-adv-x="514" 
d="M531 47q-9 -15 -25.5 -26t-35 -18t-38 -10.5t-36.5 -3.5q-12 0 -25.5 1.5t-26 5t-22.5 10t-16 15.5q-5 9 -7 23t-2 22h-3q-25 -29 -65.5 -53t-88.5 -24q-50 0 -80 27t-30 74q0 25 8.5 48t28.5 42q23 21 62 40t87 37l78 29q0 32 -0.5 57t-1.5 39q-4 15 -16 27t-30 12
q-17 0 -33.5 -4t-21.5 -12q6 -12 10.5 -23t4.5 -30q0 -32 -20.5 -51.5t-59.5 -19.5q-42 0 -63 22.5t-21 48.5q0 28 14 45t34 28q28 15 65.5 26t87.5 11q97 0 146.5 -31t49.5 -94l1 -253q0 -19 12 -25t23 -6t21 7t18 15q8 -1 12.5 -10t4.5 -18zM296 245q-5 -3 -17 -7.5
t-29 -12.5q-42 -20 -58.5 -41.5t-16.5 -45.5q0 -25 14.5 -40t35.5 -15q17 0 37.5 8.5t31.5 25.5v67q0 12 1 30t1 31zM411 616q0 -29 -20.5 -48t-46.5 -19q-30 0 -49 20t-19 47q0 30 20.5 49t47.5 19q30 0 48.5 -20.5t18.5 -47.5zM200 616q0 -27 -18 -47t-49 -20
q-30 0 -48.5 20.5t-18.5 46.5q0 27 18.5 47.5t49.5 20.5q27 0 46.5 -19t19.5 -49z" />
    <glyph glyph-name="aring" unicode="&#xe5;" horiz-adv-x="514" 
d="M531 47q-9 -15 -25.5 -26t-35 -18t-38 -10.5t-36.5 -3.5q-12 0 -25.5 1.5t-26 5t-22.5 10t-16 15.5q-5 9 -7 23t-2 22h-3q-25 -29 -65.5 -53t-88.5 -24q-50 0 -80 27t-30 74q0 25 8.5 48t28.5 42q23 21 62 40t87 37l78 29q0 32 -0.5 57t-1.5 39q-4 15 -16 27t-30 12
q-17 0 -33.5 -4t-21.5 -12q6 -12 10.5 -23t4.5 -30q0 -32 -20.5 -51.5t-59.5 -19.5q-42 0 -63 22.5t-21 48.5q0 28 14 45t34 28q28 15 65.5 26t87.5 11q97 0 146.5 -31t49.5 -94l1 -253q0 -19 12 -25t23 -6t21 7t18 15q8 -1 12.5 -10t4.5 -18zM296 245q-5 -3 -17 -7.5
t-29 -12.5q-42 -20 -58.5 -41.5t-16.5 -45.5q0 -25 14.5 -40t35.5 -15q17 0 37.5 8.5t31.5 25.5v67q0 12 1 30t1 31zM365 622q0 -22 -10 -45t-30 -40q-22 -18 -43 -24t-45 -6q-22 0 -46 6.5t-41 21.5q-20 19 -29.5 40.5t-9.5 44.5q0 22 10 45t31 39q24 18 43.5 24t42.5 6
q16 0 31 -3.5t32 -11.5q31 -15 47.5 -41.5t16.5 -55.5zM286 621q0 42 -17 64q-6 8 -14 12t-20 4q-17 0 -30 -16q-8 -10 -12.5 -26t-4.5 -38q0 -21 5 -37.5t11 -24.5q8 -9 14.5 -13.5t18.5 -4.5q25 0 37 21t12 59z" />
    <glyph glyph-name="ae" unicode="&#xe6;" horiz-adv-x="757" 
d="M736 113q0 -12 -19 -43q-30 -42 -80 -62.5t-109 -20.5q-51 0 -96 15.5t-81 47.5q-7 6 -13 12.5t-12 13.5h-3q-12 -14 -30 -29.5t-41 -28t-51 -21t-61 -8.5q-50 0 -80 27t-30 74q0 25 8.5 48t28.5 42q23 21 62 40t87 37l79 29q0 32 -0.5 61t-1.5 43q-5 10 -18.5 20
t-34.5 10q-15 0 -33 -3.5t-18 -12.5q0 -5 2.5 -8t5.5 -10q3 -6 6 -16t3 -19q0 -32 -20.5 -51t-59.5 -19q-42 0 -63 22.5t-21 48.5q0 28 14 44.5t34 27.5q29 16 66 27t87 11q51 0 90 -10.5t63 -29.5q29 18 61 28.5t67 10.5q51 0 93 -16.5t71 -47.5q23 -26 34 -51t11 -58
q0 -12 -4 -26t-14 -16t-34 -2h-245v-27q0 -34 7.5 -64t19.5 -49q15 -23 40 -39.5t58 -16.5q42 0 78 19t59 62q11 0 22 -4t16 -12zM582 342q0 17 -5 29t-14 23q-19 26 -45 26q-35 0 -58 -37t-23 -94h56q17 0 37.5 0.5t27.5 1.5q12 2 15 5q5 5 7 18.5t2 27.5zM297 245
q-5 -3 -17.5 -7.5t-29.5 -12.5q-42 -20 -58.5 -41.5t-16.5 -45.5q0 -25 14.5 -40t35.5 -15q17 0 38.5 7.5t32.5 24.5v69q0 12 0.5 30t0.5 31z" />
    <glyph glyph-name="ccedilla" unicode="&#xe7;" horiz-adv-x="485" 
d="M484 113q0 -14 -20 -43q-29 -41 -77 -61.5t-107 -21.5l-19 -50q5 2 11.5 2.5t10.5 0.5q43 0 69.5 -23.5t26.5 -62.5q0 -24 -10.5 -42.5t-28.5 -31.5t-42.5 -20t-52.5 -7q-24 0 -43 6t-33 14t-22.5 16t-11.5 13q0 25 25 27q17 -12 37.5 -21.5t37.5 -9.5q27 0 44 13.5
t17 36.5q0 20 -13.5 31t-33.5 11q-18 0 -38 -10l-10 14l38 95q-26 4 -49.5 12t-48.5 20q-57 29 -87 83t-30 119q0 67 34 125t109 89q29 12 61 18t73 6q43 0 73.5 -11.5t49.5 -27.5q13 -11 24.5 -30.5t11.5 -46.5q0 -32 -19 -56.5t-57 -24.5q-35 0 -59 17.5t-24 50.5
q0 23 6 33.5t6 14.5q0 24 -15 32.5t-35 8.5q-34 0 -55 -44q-26 -52 -26 -135q0 -39 10 -76t27 -60q19 -26 43 -39.5t58 -13.5t67.5 14.5t58.5 62.5q28 0 38 -17z" />
    <glyph glyph-name="egrave" unicode="&#xe8;" horiz-adv-x="501" 
d="M480 113q0 -12 -19 -43q-30 -42 -80.5 -62.5t-109.5 -20.5q-51 0 -96 15.5t-81 47.5q-35 32 -52.5 73.5t-17.5 89.5q0 104 71 180q72 67 172 67q51 0 93.5 -16t71.5 -47q23 -26 34 -51t11 -58q0 -12 -4 -26t-14 -16t-34 -2h-245q0 -6 -0.5 -12.5t-0.5 -14.5
q0 -34 7.5 -64t19.5 -49q15 -23 40.5 -39.5t58.5 -16.5q42 0 78 19t59 62q11 0 22 -4t16 -12zM326 342q0 17 -5 29t-14 23q-19 25 -46 25q-35 0 -58 -36.5t-23 -93.5h56q17 0 37 0.5t27 1.5q12 2 15 5q5 5 8 18.5t3 27.5zM370 536q0 -8 -12.5 -10.5t-23.5 2.5
q-57 29 -96.5 49.5t-67.5 37.5q-29 18 -36 31.5t-7 27.5q0 8 2 17.5t8.5 18t18 14.5t30.5 6q18 0 30 -5t21 -13t15.5 -17.5t13.5 -17.5q6 -7 16.5 -20.5t24 -31t29 -37.5t31.5 -40q2 -2 2.5 -6t0.5 -6z" />
    <glyph glyph-name="eacute" unicode="&#xe9;" horiz-adv-x="501" 
d="M480 113q0 -12 -19 -43q-30 -42 -80.5 -62.5t-109.5 -20.5q-51 0 -96 15.5t-81 47.5q-35 32 -52.5 73.5t-17.5 89.5q0 104 71 180q72 67 172 67q51 0 93.5 -16t71.5 -47q23 -26 34 -51t11 -58q0 -12 -4 -26t-14 -16t-34 -2h-245q0 -6 -0.5 -12.5t-0.5 -14.5
q0 -34 7.5 -64t19.5 -49q15 -23 40.5 -39.5t58.5 -16.5q42 0 78 19t59 62q11 0 22 -4t16 -12zM326 342q0 17 -5 29t-14 23q-19 25 -46 25q-35 0 -58 -36.5t-23 -93.5h56q17 0 37 0.5t27 1.5q12 2 15 5q5 5 8 18.5t3 27.5zM421 674q0 -14 -7 -27.5t-36 -31.5
q-28 -17 -67.5 -37.5t-96.5 -49.5q-11 -5 -23.5 -2.5t-12.5 10.5q0 2 0.5 6t2.5 6q16 20 31.5 40t29 37.5t24 31t16.5 20.5q7 8 13.5 17.5t15.5 17.5t21 13t30 5q19 0 30.5 -6t18 -14.5t8.5 -18t2 -17.5z" />
    <glyph glyph-name="ecircumflex" unicode="&#xea;" horiz-adv-x="501" 
d="M480 113q0 -12 -19 -43q-30 -42 -80.5 -62.5t-109.5 -20.5q-51 0 -96 15.5t-81 47.5q-35 32 -52.5 73.5t-17.5 89.5q0 104 71 180q72 67 172 67q51 0 93.5 -16t71.5 -47q23 -26 34 -51t11 -58q0 -12 -4 -26t-14 -16t-34 -2h-245q0 -6 -0.5 -12.5t-0.5 -14.5
q0 -34 7.5 -64t19.5 -49q15 -23 40.5 -39.5t58.5 -16.5q42 0 78 19t59 62q11 0 22 -4t16 -12zM326 342q0 17 -5 29t-14 23q-19 25 -46 25q-35 0 -58 -36.5t-23 -93.5h56q17 0 37 0.5t27 1.5q12 2 15 5q5 5 8 18.5t3 27.5zM438 547q3 -4 0.5 -9.5t-8 -8.5t-12.5 -3.5t-13 3.5
l-142 103l-143 -103q-6 -4 -13 -3.5t-12.5 4t-8 8.5t0.5 9l112 147q13 19 30.5 27.5t33.5 8.5q19 0 35.5 -8.5t29.5 -27.5l110 -147v0z" />
    <glyph glyph-name="edieresis" unicode="&#xeb;" horiz-adv-x="501" 
d="M480 113q0 -12 -19 -43q-30 -42 -80.5 -62.5t-109.5 -20.5q-51 0 -96 15.5t-81 47.5q-35 32 -52.5 73.5t-17.5 89.5q0 104 71 180q72 67 172 67q51 0 93.5 -16t71.5 -47q23 -26 34 -51t11 -58q0 -12 -4 -26t-14 -16t-34 -2h-245q0 -6 -0.5 -12.5t-0.5 -14.5
q0 -34 7.5 -64t19.5 -49q15 -23 40.5 -39.5t58.5 -16.5q42 0 78 19t59 62q11 0 22 -4t16 -12zM326 342q0 17 -5 29t-14 23q-19 25 -46 25q-35 0 -58 -36.5t-23 -93.5h56q17 0 37 0.5t27 1.5q12 2 15 5q5 5 8 18.5t3 27.5zM437 616q0 -29 -20.5 -48t-46.5 -19q-30 0 -49 20
t-19 47q0 30 20.5 49t47.5 19q30 0 48.5 -20.5t18.5 -47.5zM226 616q0 -27 -18 -47t-49 -20q-30 0 -48.5 20.5t-18.5 46.5q0 27 18.5 47.5t49.5 20.5q27 0 46.5 -19t19.5 -49z" />
    <glyph glyph-name="igrave" unicode="&#xec;" horiz-adv-x="330" 
d="M321 15q0 -2 -1 -7.5t-5 -9.5q-19 0 -45 0.5t-43 1.5q-21 1 -50.5 1.5t-49.5 0.5h-104q-2 3 -3 9t-1 9q0 4 1.5 10.5t4.5 9.5q23 2 36 4t20 6t10 11t5 19v214q0 25 -1 54t-1 48q-27 7 -50 16.5t-32 14.5q-2 6 -1.5 17t3.5 17q18 -2 46 -3t59 -1q33 0 60.5 3t45.5 5
q6 -2 13.5 -7.5t10.5 -13.5q-1 -11 -1.5 -26.5t-1.5 -32t-1.5 -31t-0.5 -23.5v-250q0 -14 4 -22t12.5 -12.5t22.5 -7.5t34 -6q4 -8 4 -18zM251 536q0 -8 -12.5 -10.5t-23.5 2.5q-57 29 -96.5 49.5t-67.5 37.5q-29 18 -36 31.5t-7 27.5q0 8 2 17.5t8.5 18t18 14.5t30.5 6
q18 0 30 -5t21 -13t15.5 -17.5t13.5 -17.5q6 -7 16.5 -20.5t24 -31t29 -37.5t31.5 -40q2 -2 2.5 -6t0.5 -6z" />
    <glyph glyph-name="iacute" unicode="&#xed;" horiz-adv-x="330" 
d="M321 15q0 -2 -1 -7.5t-5 -9.5q-19 0 -45 0.5t-43 1.5q-21 1 -50.5 1.5t-49.5 0.5h-104q-2 3 -3 9t-1 9q0 4 1.5 10.5t4.5 9.5q23 2 36 4t20 6t10 11t5 19v214q0 25 -1 54t-1 48q-27 7 -50 16.5t-32 14.5q-2 6 -1.5 17t3.5 17q18 -2 46 -3t59 -1q33 0 60.5 3t45.5 5
q6 -2 13.5 -7.5t10.5 -13.5q-1 -11 -1.5 -26.5t-1.5 -32t-1.5 -31t-0.5 -23.5v-250q0 -14 4 -22t12.5 -12.5t22.5 -7.5t34 -6q4 -8 4 -18zM297 674q0 -14 -7 -27.5t-36 -31.5q-28 -17 -67.5 -37.5t-96.5 -49.5q-11 -5 -23.5 -2.5t-12.5 10.5q0 2 0.5 6t2.5 6q16 20 31.5 40
t29 37.5t24 31t16.5 20.5q7 8 13.5 17.5t15.5 17.5t21 13t30 5q19 0 30.5 -6t18 -14.5t8.5 -18t2 -17.5z" />
    <glyph glyph-name="icircumflex" unicode="&#xee;" horiz-adv-x="332" 
d="M315 547q3 -4 0.5 -9.5t-8 -8.5t-12.5 -3.5t-13 3.5l-127 103l-128 -103q-6 -4 -13 -3.5t-12.5 4t-8 8.5t0.5 9l97 147q13 19 30.5 27.5t33.5 8.5q19 0 35.5 -8.5t29.5 -27.5l95 -147v0zM328 15q0 -2 -1 -7.5t-5 -9.5q-19 0 -45 0.5t-43 1.5q-21 1 -50.5 1.5t-49.5 0.5
h-104q-2 3 -3 9t-1 9q0 4 1.5 10.5t4.5 9.5q23 2 36 4t20 6t10 11t5 19v214q0 25 -1 54t-1 48q-27 7 -50 16.5t-32 14.5q-2 6 -1.5 17t3.5 17q18 -2 46 -3t59 -1q33 0 60.5 3t45.5 5q6 -2 13.5 -7.5t10.5 -13.5q-1 -11 -1.5 -26.5t-1.5 -32t-1.5 -31t-0.5 -23.5v-250
q0 -14 4 -22t12.5 -12.5t22.5 -7.5t34 -6q4 -8 4 -18z" />
    <glyph glyph-name="idieresis" unicode="&#xef;" horiz-adv-x="332" 
d="M325 616q0 -29 -20.5 -48t-46.5 -19q-30 0 -49 20t-19 47q0 30 20.5 49t47.5 19q30 0 48.5 -20.5t18.5 -47.5zM122 616q0 -27 -18 -47t-49 -20q-30 0 -48.5 20.5t-18.5 46.5q0 27 18.5 47.5t49.5 20.5q27 0 46.5 -19t19.5 -49zM328 15q0 -2 -1 -7.5t-5 -9.5
q-19 0 -45 0.5t-43 1.5q-21 1 -50.5 1.5t-49.5 0.5h-104q-2 3 -3 9t-1 9q0 4 1.5 10.5t4.5 9.5q23 2 36 4t20 6t10 11t5 19v214q0 25 -1 54t-1 48q-27 7 -50 16.5t-32 14.5q-2 6 -1.5 17t3.5 17q18 -2 46 -3t59 -1q33 0 60.5 3t45.5 5q6 -2 13.5 -7.5t10.5 -13.5
q-1 -11 -1.5 -26.5t-1.5 -32t-1.5 -31t-0.5 -23.5v-250q0 -14 4 -22t12.5 -12.5t22.5 -7.5t34 -6q4 -8 4 -18z" />
    <glyph glyph-name="eth" unicode="&#xf0;" horiz-adv-x="556" 
d="M526 284q0 -66 -17.5 -120.5t-50 -93.5t-80 -61t-107.5 -22q-46 0 -90 15.5t-78 46t-54.5 75t-20.5 101.5q0 53 18 97t47.5 75t67 48t77.5 17t70.5 -14t56.5 -40q-10 56 -30.5 103.5t-42.5 82.5l-122 -70q-6 -3 -17 4t-11 23q0 3 0.5 7t4.5 6l119 66q-21 27 -41 44
t-32 24q-4 2 -4 7.5t2.5 11t7.5 10t11 4.5h5.5t6.5 -2q24 -12 50.5 -28t53.5 -36l92 52q8 4 17.5 -4.5t9.5 -21.5q0 -3 -0.5 -7t-3.5 -6l-78 -44q31 -28 60.5 -63t52 -78t36.5 -95t14 -114zM373 290q0 17 -1 33.5t-3 29.5q-23 35 -45.5 43.5t-40.5 8.5q-26 0 -45 -14.5
t-31 -39t-18 -56t-6 -64.5q0 -92 23 -146.5t71 -54.5q27 0 45 18t29.5 52t16.5 82t5 108z" />
    <glyph glyph-name="ntilde" unicode="&#xf1;" horiz-adv-x="611" 
d="M596 17q0 -2 -1.5 -8.5t-3.5 -8.5h-262q-4 8 -4 17q0 11 4 19q30 0 43 13t13 36l2 135q1 35 -1.5 61.5t-6.5 43.5q-15 54 -60 54q-21 0 -39 -6t-34 -29q-5 -6 -4.5 -11t-0.5 -16q0 -7 -0.5 -19.5t-0.5 -29.5v-174q0 -31 9.5 -44.5t41.5 -13.5q3 -4 4.5 -9.5t1.5 -9.5
q0 -7 -5 -17h-266q-2 2 -3.5 7t-1.5 9t1 9t3 10q38 2 52 12.5t16 37.5q1 11 1.5 44t0.5 81q0 59 -1 88t-3 41q-2 14 -4.5 19t-11.5 13q-11 5 -28 11.5t-34 17.5q0 9 1.5 19t6.5 18q4 -1 14 -2t22.5 -2t26 -2t24.5 -1q28 0 53.5 13t42.5 31q7 2 17.5 -0.5t18.5 -7.5l-4 -81
l4 -2q26 37 65 57t82 20q42 0 75 -15.5t50 -48.5q21 -39 21 -126v-190q0 -23 17 -32t43 -15q2 -3 2.5 -8.5t0.5 -7.5zM478 677q-4 -24 -14.5 -45.5t-26.5 -37.5t-35 -25.5t-40 -9.5q-14 0 -31 5t-46 20q-41 22 -59 22q-22 0 -35.5 -12t-18.5 -28q-5 -21 -20 -21
q-24 0 -20 30q4 24 14.5 45.5t26.5 37t35 25t40 9.5q14 0 34 -6.5t43 -17.5q45 -22 59 -22q21 0 35 12.5t19 28.5q5 20 20 20q24 0 20 -30z" />
    <glyph glyph-name="ograve" unicode="&#xf2;" horiz-adv-x="551" 
d="M522 228q0 -48 -18.5 -90.5t-58.5 -81.5q-81 -69 -172 -69q-45 0 -87.5 15.5t-84.5 49.5q-38 38 -56 79.5t-18 91.5q0 49 18 93t56 79t83 51t90 16q32 0 63 -8t64 -26q58 -33 89.5 -85.5t31.5 -114.5zM364 224q0 54 -6 91.5t-20 60.5q-13 23 -28.5 34t-38.5 11
q-21 0 -35.5 -11t-27.5 -34q-15 -26 -20.5 -62.5t-5.5 -87.5q0 -50 5.5 -86t20.5 -62q12 -23 27.5 -35.5t38.5 -12.5q47 0 68.5 51t21.5 143zM386 536q0 -8 -12.5 -10.5t-23.5 2.5q-57 29 -96.5 49.5t-67.5 37.5q-29 18 -36 31.5t-7 27.5q0 8 2 17.5t8.5 18t18 14.5t30.5 6
q18 0 30 -5t21 -13t15.5 -17.5t13.5 -17.5q6 -7 16.5 -20.5t24 -31t29 -37.5t31.5 -40q2 -2 2.5 -6t0.5 -6z" />
    <glyph glyph-name="oacute" unicode="&#xf3;" horiz-adv-x="551" 
d="M522 228q0 -48 -18.5 -90.5t-58.5 -81.5q-81 -69 -172 -69q-45 0 -87.5 15.5t-84.5 49.5q-38 38 -56 79.5t-18 91.5q0 49 18 93t56 79t83 51t90 16q32 0 63 -8t64 -26q58 -33 89.5 -85.5t31.5 -114.5zM364 224q0 54 -6 91.5t-20 60.5q-13 23 -28.5 34t-38.5 11
q-21 0 -35.5 -11t-27.5 -34q-15 -26 -20.5 -62.5t-5.5 -87.5q0 -50 5.5 -86t20.5 -62q12 -23 27.5 -35.5t38.5 -12.5q47 0 68.5 51t21.5 143zM419 674q0 -14 -7 -27.5t-36 -31.5q-28 -17 -67.5 -37.5t-96.5 -49.5q-11 -5 -23.5 -2.5t-12.5 10.5q0 2 0.5 6t2.5 6
q16 20 31.5 40t29 37.5t24 31t16.5 20.5q7 8 13.5 17.5t15.5 17.5t21 13t30 5q19 0 30.5 -6t18 -14.5t8.5 -18t2 -17.5z" />
    <glyph glyph-name="ocircumflex" unicode="&#xf4;" horiz-adv-x="551" 
d="M522 228q0 -48 -18.5 -90.5t-58.5 -81.5q-81 -69 -172 -69q-45 0 -87.5 15.5t-84.5 49.5q-38 38 -56 79.5t-18 91.5q0 49 18 93t56 79t83 51t90 16q32 0 63 -8t64 -26q58 -33 89.5 -85.5t31.5 -114.5zM364 224q0 54 -6 91.5t-20 60.5q-13 23 -28.5 34t-38.5 11
q-21 0 -35.5 -11t-27.5 -34q-15 -26 -20.5 -62.5t-5.5 -87.5q0 -50 5.5 -86t20.5 -62q12 -23 27.5 -35.5t38.5 -12.5q47 0 68.5 51t21.5 143zM451 547q3 -4 0.5 -9.5t-8 -8.5t-12.5 -3.5t-13 3.5l-142 103l-143 -103q-6 -4 -13 -3.5t-12.5 4t-8 8.5t0.5 9l112 147
q13 19 30.5 27.5t33.5 8.5q19 0 35.5 -8.5t29.5 -27.5l110 -147v0z" />
    <glyph glyph-name="otilde" unicode="&#xf5;" horiz-adv-x="551" 
d="M522 228q0 -48 -18.5 -90.5t-58.5 -81.5q-81 -69 -172 -69q-45 0 -87.5 15.5t-84.5 49.5q-38 38 -56 79.5t-18 91.5q0 49 18 93t56 79t83 51t90 16q32 0 63 -8t64 -26q58 -33 89.5 -85.5t31.5 -114.5zM364 224q0 54 -6 91.5t-20 60.5q-13 23 -28.5 34t-38.5 11
q-21 0 -35.5 -11t-27.5 -34q-15 -26 -20.5 -62.5t-5.5 -87.5q0 -50 5.5 -86t20.5 -62q12 -23 27.5 -35.5t38.5 -12.5q47 0 68.5 51t21.5 143zM448 677q-4 -24 -14.5 -45.5t-26.5 -37.5t-35 -25.5t-40 -9.5q-14 0 -31 5t-46 20q-41 22 -59 22q-22 0 -35.5 -12t-18.5 -28
q-5 -21 -20 -21q-24 0 -20 30q4 24 14.5 45.5t26.5 37t35 25t40 9.5q14 0 34 -6.5t43 -17.5q45 -22 59 -22q21 0 35 12.5t19 28.5q5 20 20 20q24 0 20 -30z" />
    <glyph glyph-name="odieresis" unicode="&#xf6;" horiz-adv-x="551" 
d="M522 228q0 -48 -18.5 -90.5t-58.5 -81.5q-81 -69 -172 -69q-45 0 -87.5 15.5t-84.5 49.5q-38 38 -56 79.5t-18 91.5q0 49 18 93t56 79t83 51t90 16q32 0 63 -8t64 -26q58 -33 89.5 -85.5t31.5 -114.5zM364 224q0 54 -6 91.5t-20 60.5q-13 23 -28.5 34t-38.5 11
q-21 0 -35.5 -11t-27.5 -34q-15 -26 -20.5 -62.5t-5.5 -87.5q0 -50 5.5 -86t20.5 -62q12 -23 27.5 -35.5t38.5 -12.5q47 0 68.5 51t21.5 143zM450 616q0 -29 -20.5 -48t-46.5 -19q-30 0 -49 20t-19 47q0 30 20.5 49t47.5 19q30 0 48.5 -20.5t18.5 -47.5zM239 616
q0 -27 -18 -47t-49 -20q-30 0 -48.5 20.5t-18.5 46.5q0 27 18.5 47.5t49.5 20.5q27 0 46.5 -19t19.5 -49z" />
    <glyph glyph-name="divide" unicode="&#xf7;" horiz-adv-x="780" 
d="M463 455q0 -32 -21.5 -53.5t-53.5 -21.5t-53.5 21.5t-21.5 53.5t21.5 53.5t53.5 21.5t53.5 -21.5t21.5 -53.5zM90 207v83h600v-83h-600zM463 41q0 -32 -21.5 -53.5t-53.5 -21.5t-53.5 21.5t-21.5 53.5t21.5 53.5t53.5 21.5t53.5 -21.5t21.5 -53.5z" />
    <glyph glyph-name="oslash" unicode="&#xf8;" horiz-adv-x="551" 
d="M523 228q0 -48 -18.5 -90.5t-58.5 -81.5q-81 -69 -172 -69q-61 0 -120 32l-50 -72q-3 -5 -9.5 -5.5t-11.5 1.5q-6 2 -12 8.5t-1 14.5l52 74q-45 34 -69.5 81t-24.5 102q0 49 18 93t56 79t83 51t90 16q29 0 57.5 -8t59.5 -24l47 68q2 3 8.5 5.5t13.5 -0.5q7 -2 11.5 -8.5
t1.5 -11.5l-50 -72q47 -34 73 -81t26 -102zM349 369q-23 52 -77 52q-22 0 -37 -11t-28 -34q-16 -26 -21.5 -62.5t-5.5 -87.5q0 -27 1 -52t5 -45l163 240v0zM369 224q0 29 -1 55t-5 46l-163 -240q10 -23 29.5 -39t45.5 -16q49 0 71.5 51t22.5 143z" />
    <glyph glyph-name="ugrave" unicode="&#xf9;" horiz-adv-x="605" 
d="M597 28q0 -5 -1.5 -10t-2.5 -8q-1 0 -11 -0.5t-23 -0.5t-25 -0.5t-17 -0.5q-38 -4 -65.5 -10.5t-49.5 -11.5q-8 2 -15.5 4.5t-9.5 8.5v66h-3q-27 -42 -65.5 -60.5t-79.5 -18.5q-38 0 -69 11.5t-53 35.5q-14 15 -21.5 36.5t-8.5 46.5l-3 229q0 22 -3 34t-10.5 18t-21.5 8
t-37 4q-2 4 -2.5 10t-0.5 10q0 9 4 19h180h21t14 -2q7 -5 7 -22v-262q0 -44 17 -68q11 -18 23.5 -25t29.5 -7q27 0 48 17t31 43v129v64.5t-1 43.5t-2.5 22t-9 14.5t-22.5 9t-42 4.5q-3 5 -3.5 11t-0.5 9t1.5 8.5t4.5 10.5h199h13t10 -1q6 -2 6 -11q0 -5 -2 -24.5t-2 -54.5
v-255q0 -19 3 -34q6 -2 15.5 -4.5t19 -5.5t18 -6t14.5 -5q4 -8 4 -19zM401 536q0 -8 -12.5 -10.5t-23.5 2.5q-57 29 -96.5 49.5t-67.5 37.5q-29 18 -36 31.5t-7 27.5q0 8 2 17.5t8.5 18t18 14.5t30.5 6q18 0 30 -5t21 -13t15.5 -17.5t13.5 -17.5q6 -7 16.5 -20.5t24 -31
t29 -37.5t31.5 -40q2 -2 2.5 -6t0.5 -6z" />
    <glyph glyph-name="uacute" unicode="&#xfa;" horiz-adv-x="605" 
d="M597 28q0 -5 -1.5 -10t-2.5 -8q-1 0 -11 -0.5t-23 -0.5t-25 -0.5t-17 -0.5q-38 -4 -65.5 -10.5t-49.5 -11.5q-8 2 -15.5 4.5t-9.5 8.5v66h-3q-27 -42 -65.5 -60.5t-79.5 -18.5q-38 0 -69 11.5t-53 35.5q-14 15 -21.5 36.5t-8.5 46.5l-3 229q0 22 -3 34t-10.5 18t-21.5 8
t-37 4q-2 4 -2.5 10t-0.5 10q0 9 4 19h180h21t14 -2q7 -5 7 -22v-262q0 -44 17 -68q11 -18 23.5 -25t29.5 -7q27 0 48 17t31 43v129v64.5t-1 43.5t-2.5 22t-9 14.5t-22.5 9t-42 4.5q-3 5 -3.5 11t-0.5 9t1.5 8.5t4.5 10.5h199h13t10 -1q6 -2 6 -11q0 -5 -2 -24.5t-2 -54.5
v-255q0 -19 3 -34q6 -2 15.5 -4.5t19 -5.5t18 -6t14.5 -5q4 -8 4 -19zM437 674q0 -14 -7 -27.5t-36 -31.5q-28 -17 -67.5 -37.5t-96.5 -49.5q-11 -5 -23.5 -2.5t-12.5 10.5q0 2 0.5 6t2.5 6q16 20 31.5 40t29 37.5t24 31t16.5 20.5q7 8 13.5 17.5t15.5 17.5t21 13t30 5
q19 0 30.5 -6t18 -14.5t8.5 -18t2 -17.5z" />
    <glyph glyph-name="ucircumflex" unicode="&#xfb;" horiz-adv-x="605" 
d="M597 28q0 -5 -1.5 -10t-2.5 -8q-1 0 -11 -0.5t-23 -0.5t-25 -0.5t-17 -0.5q-38 -4 -65.5 -10.5t-49.5 -11.5q-8 2 -15.5 4.5t-9.5 8.5v66h-3q-27 -42 -65.5 -60.5t-79.5 -18.5q-38 0 -69 11.5t-53 35.5q-14 15 -21.5 36.5t-8.5 46.5l-3 229q0 22 -3 34t-10.5 18t-21.5 8
t-37 4q-2 4 -2.5 10t-0.5 10q0 9 4 19h180h21t14 -2q7 -5 7 -22v-262q0 -44 17 -68q11 -18 23.5 -25t29.5 -7q27 0 48 17t31 43v129v64.5t-1 43.5t-2.5 22t-9 14.5t-22.5 9t-42 4.5q-3 5 -3.5 11t-0.5 9t1.5 8.5t4.5 10.5h199h13t10 -1q6 -2 6 -11q0 -5 -2 -24.5t-2 -54.5
v-255q0 -19 3 -34q6 -2 15.5 -4.5t19 -5.5t18 -6t14.5 -5q4 -8 4 -19zM462 547q3 -4 0.5 -9.5t-8 -8.5t-12.5 -3.5t-13 3.5l-142 103l-143 -103q-6 -4 -13 -3.5t-12.5 4t-8 8.5t0.5 9l112 147q13 19 30.5 27.5t33.5 8.5q19 0 35.5 -8.5t29.5 -27.5l110 -147v0z" />
    <glyph glyph-name="udieresis" unicode="&#xfc;" horiz-adv-x="605" 
d="M597 28q0 -5 -1.5 -10t-2.5 -8q-1 0 -11 -0.5t-23 -0.5t-25 -0.5t-17 -0.5q-38 -4 -65.5 -10.5t-49.5 -11.5q-8 2 -15.5 4.5t-9.5 8.5v66h-3q-27 -42 -65.5 -60.5t-79.5 -18.5q-38 0 -69 11.5t-53 35.5q-14 15 -21.5 36.5t-8.5 46.5l-3 229q0 22 -3 34t-10.5 18t-21.5 8
t-37 4q-2 4 -2.5 10t-0.5 10q0 9 4 19h180h21t14 -2q7 -5 7 -22v-262q0 -44 17 -68q11 -18 23.5 -25t29.5 -7q27 0 48 17t31 43v129v64.5t-1 43.5t-2.5 22t-9 14.5t-22.5 9t-42 4.5q-3 5 -3.5 11t-0.5 9t1.5 8.5t4.5 10.5h199h13t10 -1q6 -2 6 -11q0 -5 -2 -24.5t-2 -54.5
v-255q0 -19 3 -34q6 -2 15.5 -4.5t19 -5.5t18 -6t14.5 -5q4 -8 4 -19zM459 616q0 -29 -20.5 -48t-46.5 -19q-30 0 -49 20t-19 47q0 30 20.5 49t47.5 19q30 0 48.5 -20.5t18.5 -47.5zM248 616q0 -27 -18 -47t-49 -20q-30 0 -48.5 20.5t-18.5 46.5q0 27 18.5 47.5t49.5 20.5
q27 0 46.5 -19t19.5 -49z" />
    <glyph glyph-name="yacute" unicode="&#xfd;" horiz-adv-x="530" 
d="M544 427q0 -5 -1.5 -9t-3.5 -9q-29 -1 -52 -20t-38 -54l-85 -201q-6 -13 -17 -43t-25 -66.5t-28 -73.5t-26 -64q-9 -21 -15.5 -35.5t-13 -26t-13.5 -22t-17 -22.5q-16 -20 -44 -29.5t-49 -9.5q-48 0 -75.5 22.5t-27.5 66.5q0 32 20.5 57.5t58.5 25.5q18 0 38.5 -7
t31.5 -23q2 -5 7.5 -22.5t19.5 -34.5q20 28 37.5 67t35.5 86q-16 4 -27 9.5t-20 27.5q-16 38 -30.5 73.5t-30.5 73.5t-33.5 80.5t-39.5 94.5q-3 7 -7 15.5t-8 16.5l-7 14t-5 8q-2 3 -9.5 6t-17.5 5t-19.5 4t-15.5 3q-1 5 -2 10.5t-1 8.5q0 7 4 17h25q47 0 86 -1.5t66 -1.5
l109 1q2 -3 4 -8.5t2 -8.5q0 -5 -2 -11t-4 -8q-13 -1 -22.5 -2.5t-16 -4.5t-10 -9.5t-3.5 -17.5q0 -10 6 -27l60 -149q16 -41 28 -69q12 30 25 62t25 62t22 56t16 45q-5 20 -8 27.5t-11 16.5q-6 2 -22 4t-27 4q-3 4 -3.5 9.5t-0.5 9.5q0 2 1 8t3 10q21 0 49 -1t54 -1
q6 0 17 0.5t22.5 1.5t22 1.5t15.5 0.5h9.5t8.5 -1q2 -4 3.5 -9t1.5 -9zM431 674q0 -14 -7 -27.5t-36 -31.5q-28 -17 -67.5 -37.5t-96.5 -49.5q-11 -5 -23.5 -2.5t-12.5 10.5q0 2 0.5 6t2.5 6q16 20 31.5 40t29 37.5t24 31t16.5 20.5q7 8 13.5 17.5t15.5 17.5t21 13t30 5
q19 0 30.5 -6t18 -14.5t8.5 -18t2 -17.5z" />
    <glyph glyph-name="thorn" unicode="&#xfe;" horiz-adv-x="592" 
d="M562 223q0 -99 -56 -164q-49 -57 -142 -57q-36 0 -74.5 11.5t-61.5 35.5h-1q-1 -7 -1 -23.5v-33.5v-74.5t0.5 -51.5t2 -34.5t4.5 -23.5q4 -11 19.5 -17.5t31.5 -6.5h29q6 -9 6 -19q0 -3 -1.5 -8.5t-3.5 -8.5q-8 -1 -28.5 -1h-36.5h-256q-4 8 -4 17q0 3 0.5 9.5t2.5 10.5
q31 2 47.5 6.5t24.5 11.5t9.5 17.5t1.5 24.5v678q0 33 -0.5 60.5t-1.5 53.5q-5 6 -9.5 9.5t-11.5 6.5t-18.5 6.5t-29.5 9.5q-2 5 -3 10t-1 8t1 9t3 11q53 0 105 5.5t89 16.5q15 -2 28 -13v-154q0 -7 -0.5 -29t-1.5 -47.5t-2.5 -50t-2.5 -37.5l4 -2q31 38 65.5 52t66.5 14
q61 0 110 -30t76 -93q11 -26 16 -56t5 -59zM405 230q0 40 -7 70t-24 50q-29 40 -74 40q-24 0 -42.5 -8t-36.5 -34v-72q0 -35 -0.5 -69.5t1.5 -66.5q1 -16 3 -27t4 -17q4 -7 12.5 -12.5t19 -8.5t21.5 -4.5t21 -1.5q28 0 52 21q26 20 38 52.5t12 87.5z" />
    <glyph glyph-name="ydieresis" unicode="&#xff;" horiz-adv-x="530" 
d="M544 427q0 -5 -1.5 -9t-3.5 -9q-29 -1 -52 -20t-38 -54l-85 -201q-6 -13 -17 -43t-25 -66.5t-28 -73.5t-26 -64q-9 -21 -15.5 -35.5t-13 -26t-13.5 -22t-17 -22.5q-16 -20 -44 -29.5t-49 -9.5q-48 0 -75.5 22.5t-27.5 66.5q0 32 20.5 57.5t58.5 25.5q18 0 38.5 -7
t31.5 -23q2 -5 7.5 -22.5t19.5 -34.5q20 28 37.5 67t35.5 86q-16 4 -27 9.5t-20 27.5q-16 38 -30.5 73.5t-30.5 73.5t-33.5 80.5t-39.5 94.5q-3 7 -7 15.5t-8 16.5l-7 14t-5 8q-2 3 -9.5 6t-17.5 5t-19.5 4t-15.5 3q-1 5 -2 10.5t-1 8.5q0 7 4 17h25q47 0 86 -1.5t66 -1.5
l109 1q2 -3 4 -8.5t2 -8.5q0 -5 -2 -11t-4 -8q-13 -1 -22.5 -2.5t-16 -4.5t-10 -9.5t-3.5 -17.5q0 -10 6 -27l60 -149q16 -41 28 -69q12 30 25 62t25 62t22 56t16 45q-5 20 -8 27.5t-11 16.5q-6 2 -22 4t-27 4q-3 4 -3.5 9.5t-0.5 9.5q0 2 1 8t3 10q21 0 49 -1t54 -1
q6 0 17 0.5t22.5 1.5t22 1.5t15.5 0.5h9.5t8.5 -1q2 -4 3.5 -9t1.5 -9zM460 616q0 -29 -20.5 -48t-46.5 -19q-30 0 -49 20t-19 47q0 30 20.5 49t47.5 19q30 0 48.5 -20.5t18.5 -47.5zM249 616q0 -27 -18 -47t-49 -20q-30 0 -48.5 20.5t-18.5 46.5q0 27 18.5 47.5t49.5 20.5
q27 0 46.5 -19t19.5 -49z" />
    <glyph glyph-name="dotlessi" unicode="&#x131;" 
d="M320 15q0 -2 -1 -7.5t-5 -9.5q-19 0 -45 0.5t-43 1.5q-21 1 -50.5 1.5t-49.5 0.5h-104q-2 3 -3 9t-1 9q0 4 1.5 10.5t4.5 9.5q23 2 36 4t20 6t10 11t5 19v214q0 25 -1 54t-1 48q-27 7 -50 16.5t-32 14.5q-2 6 -1.5 17t3.5 17q18 -2 46 -3t59 -1q33 0 60.5 3t45.5 5
q6 -2 13.5 -7.5t10.5 -13.5q-1 -11 -1.5 -26.5t-1.5 -32t-1.5 -31t-0.5 -23.5v-250q0 -14 4 -22t12.5 -12.5t22.5 -7.5t34 -6q4 -8 4 -18z" />
    <glyph glyph-name="Lslash" unicode="&#x141;" horiz-adv-x="738" 
d="M721 124q0 -44 -3 -91q-2 -21 -4.5 -26t-16.5 -5q-8 0 -35.5 -0.5t-67.5 -1t-89 -1t-100 -0.5q-59 0 -106.5 0.5t-95.5 0.5q-16 0 -36.5 -0.5l-41 -1t-39.5 -1t-32 -0.5h-20q-2 3 -2.5 8.5t-0.5 8.5q0 4 1 9.5t2 8.5q18 5 45.5 12.5t46.5 16.5q6 11 9.5 32t4.5 48v26
t0.5 43t0.5 50.5v48.5l-92 -32q-11 -4 -15.5 1t-7.5 14q-4 11 -2.5 19t12.5 12l104 36q-1 34 -2 78t-2 97q-1 38 -2.5 65t-3.5 35q-4 11 -11 22.5t-22 18.5q-12 3 -28.5 3.5t-34.5 5.5q-2 3 -2.5 9.5t-0.5 10.5q0 9 5 16l377 1q2 -2 3 -7.5t1 -9.5t-1 -10t-3 -8
q-17 -1 -35.5 -2.5t-33.5 -8.5t-24.5 -22t-9.5 -43v-114v-78l187 66q16 5 24 -15q3 -10 2.5 -18.5t-12.5 -13.5l-200 -68l4 -247q0 -14 11 -32t22 -27q15 -13 34.5 -19.5t50.5 -6.5q22 0 37.5 2t28.5 6.5t26 11t30 15.5q42 22 72.5 66.5t52.5 97.5q4 2 10 2.5t10 0.5
q13 0 20 -5q0 -14 0.5 -31.5t0.5 -33.5v-28v-17z" />
    <glyph glyph-name="lslash" unicode="&#x142;" horiz-adv-x="332" 
d="M343 425q4 -11 1 -19.5t-14 -12.5l-83 -28v-282q0 -14 3 -22t10.5 -12.5t20.5 -7t34 -5.5q2 -5 3 -10.5t1 -8.5q0 -2 -1 -8t-2 -9q-3 0 -16.5 0.5t-31.5 0.5t-36 0.5t-29 0.5h-182q-2 2 -3.5 7.5t-1.5 10.5q0 4 1 10t4 11q27 0 42 4.5t22.5 12.5t9.5 21.5t2 31.5v19.5
t0.5 36.5t0.5 46v49v52l-75 -25q-11 -4 -16.5 0.5t-8.5 13.5q-4 11 -1 19.5t14 12.5l87 29v99q0 23 -0.5 52t-2 57t-3.5 49t-5 27q-7 5 -16.5 9t-20 7.5t-20 6.5t-15.5 5q-2 5 -2.5 10.5t-0.5 8.5q0 2 1.5 8t3.5 11h94q14 0 31.5 2.5t33 6t28 6t16.5 2.5q5 0 16 -7.5
t11 -17.5v-291l71 24q11 4 16.5 -0.5t8.5 -13.5z" />
    <glyph glyph-name="OE" unicode="&#x152;" horiz-adv-x="1140" 
d="M1127 176v-104t-2 -58q-1 -7 -1.5 -9.5t-2.5 -6.5q-8 -2 -14.5 -2h-12.5q-76 0 -131 1t-93 2t-61.5 2t-35.5 1q-44 0 -81.5 -0.5t-45.5 -0.5t-25 -0.5t-39.5 -1.5t-48.5 -2.5t-52 -2.5q-9 0 -22.5 -0.5t-26.5 -1t-24.5 -0.5h-17.5q-81 0 -145.5 23.5t-114.5 69.5
q-24 24 -42.5 50t-29.5 54q-25 63 -25 145q0 178 114 289q29 28 59 47t63.5 31t72.5 17t85 5q18 0 69.5 -3t118.5 -2q15 0 38 0.5t47.5 0.5t48 0.5t41.5 0.5h54t38 0.5t33 0.5h37q30 0 55 -0.5t31 -0.5q15 0 18.5 -2.5t4.5 -10.5q1 -9 2 -27.5t2 -41.5t1.5 -48t0.5 -48
q-6 -3 -8 -4.5t-7 -1.5h-10t-11 2q-22 37 -44.5 69.5t-51.5 54.5q-21 17 -64 20h-89h-27.5t-16.5 -0.5t-9.5 -1t-6.5 -0.5q-1 -7 -2 -16l-2 -18q0 -7 -0.5 -16.5t-1 -26t-1 -41t-0.5 -60.5v-93h21q11 0 27.5 2t30.5 6q20 6 38.5 19.5t29.5 32.5q1 1 3 8.5t4.5 17l5 19
t3.5 14.5q5 2 13 2.5t13 0.5q8 0 12.5 -1t7.5 -3q-1 -13 -3 -32t-3.5 -40t-2.5 -42.5t-1 -40.5q0 -15 1 -35l2 -40t2 -37.5t1 -27.5q-9 -5 -20 -5q-6 0 -14 1t-12 3q-1 5 -2.5 17t-3.5 24.5t-5 24.5t-6 17q-8 12 -17 23t-28 19q-20 9 -36.5 11.5t-24.5 2.5h-37v-219
q0 -17 0.5 -27t1.5 -16.5t2.5 -11t4.5 -10.5q5 -12 17 -25.5t23 -15.5q7 -2 24.5 -3.5t41.5 -1.5h75q28 0 46 2t29 9q10 6 23.5 20t28.5 34.5t30 46t28 54.5q5 2 11 2h11q6 0 8.5 -0.5t6.5 -2.5q1 -7 1 -12.5v-16.5zM546 571q0 54 -21 79q-27 34 -90 34t-112.5 -39
t-76.5 -121q-13 -38 -19 -84t-6 -98q0 -160 55 -243q21 -33 56.5 -50.5t79.5 -17.5q45 0 79 17.5t45 49.5q5 14 7.5 47t2.5 90v336z" />
    <glyph glyph-name="oe" unicode="&#x153;" horiz-adv-x="833" 
d="M812 113q0 -12 -19 -43q-30 -42 -80 -62.5t-109 -20.5q-49 0 -92.5 17t-78.5 46q-38 -30 -77.5 -46.5t-81.5 -16.5q-45 0 -87.5 15.5t-84.5 49.5q-38 38 -56 79.5t-18 91.5q0 49 18 93t56 79t83 51t90 16q41 0 85 -15.5t79 -48.5q34 29 74.5 46t86.5 17q51 0 93 -16.5
t71 -47.5q23 -26 34 -51t11 -58q0 -12 -4 -26t-14 -16t-34 -2h-245v-27q0 -34 7.5 -64t19.5 -49q15 -23 40 -39.5t58 -16.5q42 0 78 19t59 62q11 0 22 -4t16 -12zM658 342q0 31 -18 53q-19 25 -46 25q-35 0 -58 -34t-23 -97h56q17 0 37 0.5t27 1.5q12 2 15 5q5 5 7.5 18.5
t2.5 27.5zM364 224q0 54 -5.5 91.5t-19.5 60.5q-13 23 -28.5 34t-38.5 11q-21 0 -35.5 -11t-27.5 -34q-15 -26 -20.5 -62.5t-5.5 -87.5q0 -50 5.5 -86t20.5 -62q12 -23 27.5 -35.5t38.5 -12.5q47 0 68 51t21 143z" />
    <glyph glyph-name="Scaron" unicode="&#x160;" horiz-adv-x="667" 
d="M627 208q0 -55 -19.5 -96.5t-55 -69.5t-83.5 -42.5t-105 -14.5q-24 0 -45.5 1.5t-43.5 5.5t-45.5 12t-49.5 21q-8 4 -17.5 9t-14.5 5t-19.5 -9t-31.5 -23q-5 0 -12.5 1.5t-14.5 4.5t-12.5 6.5t-6.5 7.5q2 12 6.5 38t4.5 63q0 8 -0.5 23t-1.5 31.5t-1.5 30.5t-0.5 19
q11 6 19 6h14t14 -2q4 -15 12 -32.5t18.5 -35.5t21 -34.5t19.5 -28.5q15 -20 35 -34.5t41.5 -24t42.5 -14t38 -4.5q32 0 59 9.5t46 31.5q21 23 30.5 44.5t9.5 44.5q0 36 -22.5 62.5t-82.5 48.5q-7 2 -32 9.5t-54.5 16.5t-56.5 18t-38 14q-63 26 -96 76q-36 59 -36 125
q0 43 17.5 80t49 64.5t74.5 43t94 15.5q24 0 46 -2t45 -8t46.5 -18t50.5 -32q11 10 21.5 19.5t21.5 16.5q11 0 24 -2.5t20 -11.5q-1 -7 -2.5 -19t-3 -26.5t-2.5 -28t-1 -23.5q0 -23 3 -44.5t5 -40.5q-5 -4 -10 -7t-12 -3q-2 0 -12 0.5t-12 1.5q-17 38 -33 62t-34 50
q-22 32 -56 52t-77 20q-24 0 -46 -8.5t-39 -23t-27 -33.5t-10 -39q0 -13 5.5 -27.5t13.5 -27t17.5 -22.5t17.5 -14q25 -12 62 -24.5t84 -24.5q40 -11 68.5 -21.5t44.5 -20.5q58 -32 85.5 -78t27.5 -115zM387 788q-13 -19 -30.5 -27.5t-33.5 -8.5q-19 0 -35.5 8.5t-29.5 27.5
l-110 147q-3 5 -0.5 10t8 8t12.5 4t13 -4l142 -103l143 103q6 5 13 4t12.5 -4.5t8 -8.5t-0.5 -9z" />
    <glyph glyph-name="scaron" unicode="&#x161;" horiz-adv-x="452" 
d="M427 133q0 -33 -14 -60.5t-38 -46.5q-55 -40 -136 -40q-36 0 -70 7.5t-74 24.5l-39 -16q-10 -2 -17.5 3t-8.5 12q5 11 9 29t4 32q0 22 -3 42.5t-7 37.5q4 5 16 7.5t20 0.5q3 -6 7.5 -17t10.5 -23t13 -24t14 -20q46 -55 98 -55q36 0 57.5 18t21.5 50q0 20 -12 31t-29 21
q-14 8 -33.5 15t-46.5 16q-31 11 -52 23.5t-35 23.5q-19 14 -31.5 43t-12.5 61q0 28 12 52.5t34 42.5t53.5 28.5t70.5 10.5q44 0 78 -11t51 -25q15 11 27.5 15t23.5 9q19 0 26 -13q-6 -16 -10.5 -30t-4.5 -25q0 -26 6 -46.5t11 -31.5q-1 -8 -12 -11t-19 -3q-14 13 -29 35.5
t-27 46.5q-19 24 -43 37.5t-52 13.5q-29 0 -47 -16.5t-18 -40.5q0 -32 23 -48q10 -7 49 -21q44 -15 71 -26t50 -28q26 -20 45 -45.5t19 -65.5zM295 562q-13 -19 -30.5 -27.5t-33.5 -8.5q-19 0 -35.5 8.5t-29.5 27.5l-110 147q-3 5 -0.5 10t8 8t12.5 4t13 -4l142 -103
l143 103q6 5 13 4t12.5 -4.5t8 -8.5t-0.5 -9z" />
    <glyph glyph-name="Ydieresis" unicode="&#x178;" horiz-adv-x="774" 
d="M597 856q0 -29 -20.5 -48t-46.5 -19q-30 0 -49 20t-19 47q0 30 20.5 49t47.5 19q30 0 48.5 -20.5t18.5 -47.5zM366 856q0 -27 -18 -47t-49 -20q-30 0 -48.5 20.5t-18.5 46.5q0 27 18.5 47.5t49.5 20.5q27 0 46.5 -19t19.5 -49zM784 710q0 -3 -1.5 -8.5t-3.5 -9.5
q-7 -2 -17.5 -4t-21 -4.5t-19.5 -5.5t-14 -6q-15 -9 -32 -25t-28 -36l-157 -302q-7 -11 -7 -27q0 -1 -0.5 -8.5t0.5 -16.5l9 -141q1 -15 3 -24t5 -16t7.5 -12.5t10.5 -11.5q4 -4 13.5 -7t22 -5.5t26 -4t25.5 -3.5q2 -4 3 -9t1 -9t-1.5 -9.5t-3.5 -8.5q-14 0 -33 0.5t-45 1.5
q-22 0 -45.5 0.5t-44 1t-36.5 0.5h-24h-32t-46 -0.5t-50 -0.5h-44q-1 3 -2 8t-1 9q0 10 5 19q9 1 21.5 2.5t24.5 3.5t21.5 4t12.5 3q13 8 22.5 26.5t9.5 50.5q0 38 -2 64t-7 47q-4 14 -11 32.5t-21 42.5l-177 334q-5 10 -26.5 19.5t-72.5 21.5q-2 4 -3.5 9t-1.5 8q0 10 6 20
q3 0 20.5 -0.5t41 -1t49 -1t43.5 -0.5q43 0 70.5 0.5t48 1t39 1t43.5 0.5h18q2 -4 4 -7t2 -8v-9.5t-2 -10.5q-32 -4 -53.5 -8t-28.5 -17q-2 -3 -3 -9.5t0 -16.5q0 -7 3.5 -15t5.5 -13l54 -112q5 -10 15.5 -31.5t24 -47t27.5 -51.5t24 -44q12 19 32 57t52 101
q21 42 35.5 71.5t22.5 48.5q4 10 5 19t1 18q0 5 -1.5 13t-6.5 16q-3 5 -11.5 9t-20 7.5t-24 6t-23.5 4.5q-1 2 -1 7.5v9.5q0 9 4 17q20 0 51 -2t69 -2q8 0 26 0.5t39.5 1t43.5 1t37 0.5q2 -3 4 -7.5t2 -9.5z" />
    <glyph glyph-name="Zcaron" unicode="&#x17d;" horiz-adv-x="721" 
d="M669 70q-1 -7 -2 -16.5t-2 -18t-2 -15.5t-2 -9q-2 -5 -4 -8t-14 -3l-60 1q-26 0 -57 0.5t-63.5 0.5h-64h-58.5h-38.5t-51 -0.5t-57 -1t-56.5 -1.5q-22 -1 -50.5 -1.5t-57.5 -0.5q-4 4 -4 13.5v13.5l123 173l316 481l-78 2q-12 0 -31.5 0.5t-35.5 0.5q-49 0 -68 -10
q-15 -8 -32 -19.5t-36 -29.5q-18 -18 -33.5 -40t-27.5 -48q-3 -2 -11 -4t-13 -2q-2 0 -10.5 3t-10.5 5q0 6 0.5 13t1 16.5t2 24t4.5 35.5q0 3 1 12t2.5 21t3.5 25.5t3 24.5q3 5 5.5 8.5t9.5 3.5h223q71 0 130 0.5t102.5 1t69 1t29.5 0.5q5 -2 7 -8t0 -14q-5 -8 -9 -14
t-9 -13l-413 -631q8 -1 27 -1.5t35 -0.5h60q55 0 88 3.5t52 12.5t38.5 26.5t37 39.5t33 46t27.5 45q3 2 11 3t11 1t10.5 -2t11.5 -6zM425 788q-13 -19 -30.5 -27.5t-33.5 -8.5q-19 0 -35.5 8.5t-29.5 27.5l-110 147q-3 5 -0.5 10t8 8t12.5 4t13 -4l142 -103l143 103
q6 5 13 4t12.5 -4.5t8 -8.5t-0.5 -9z" />
    <glyph glyph-name="zcaron" unicode="&#x17e;" horiz-adv-x="492" 
d="M473 151q0 -32 -1.5 -67t-1.5 -61q0 -12 -2 -15.5t-10 -5.5q-5 -1 -22 -1.5t-34 -0.5q-33 0 -69 0.5t-69 1t-60 1t-43 0.5q-11 0 -33 -0.5t-44.5 -1t-41 -1t-22.5 -0.5q-3 2 -5 5t-2 11v7.5t2 6.5l94 118q38 48 77 106.5t77 113.5q6 9 9 13t5.5 7l5 6t7.5 10l-1 2
l-134 -1q-10 0 -15 -6q-9 -11 -16 -21.5t-18 -29.5t-19 -31t-21 -26q-9 0 -19 3.5t-15 5.5q0 23 0.5 41.5t1.5 34t1.5 30.5t0.5 31q0 14 11 14q2 0 10 -0.5t18 -1l20 -1t15 -0.5q18 0 54 -1t79 -2t86.5 -2t75.5 -1q15 0 29.5 1t19.5 1q5 -1 9 -9t3 -19l-113 -161
q-17 -24 -30.5 -43.5t-25.5 -37.5t-24.5 -36t-28.5 -39q-7 -9 -12.5 -16t-10.5 -13.5t-10 -12.5t-12 -14l1 -2q67 0 106 1t50 6q6 2 12.5 9.5t11.5 15.5q12 18 27.5 42t25.5 38q9 3 20 3t20 -5zM312 562q-13 -19 -30.5 -27.5t-33.5 -8.5q-19 0 -35.5 8.5t-29.5 27.5
l-110 147q-3 5 -0.5 10t8 8t12.5 4t13 -4l142 -103l143 103q6 5 13 4t12.5 -4.5t8 -8.5t-0.5 -9z" />
    <glyph glyph-name="florin" unicode="&#x192;" horiz-adv-x="622" 
d="M618 591q0 -28 -15.5 -48.5t-46.5 -20.5q-32 0 -52 17.5t-22 55.5q0 5 -1.5 13.5t-3.5 17t-5 15t-8 6.5q-14 0 -25.5 -14t-19.5 -34t-13.5 -39t-10.5 -45q-11 -59 -16.5 -91.5t-7.5 -43.5h133q5 0 9 -2t4 -11q0 -14 -4.5 -25t-8.5 -11h-141l-57 -292q-9 -46 -24.5 -82
t-32.5 -60q-9 -13 -23.5 -26.5t-34 -25t-43 -18.5t-51.5 -7q-76 0 -112 27.5t-36 69.5q0 26 17.5 44t44.5 18q25 0 46 -14.5t24 -49.5q0 -5 1.5 -14.5t4 -19t6.5 -16.5t10 -7q21 0 36 48q4 11 12 47t19 98l49 280h-112q-10 0 -10 11q0 7 2.5 18t5.5 16q1 2 4.5 3t6.5 1h115
l16 72q9 40 17.5 68.5t13.5 39.5q17 36 39 60t47 38.5t52 20.5t55 6q29 0 55.5 -6.5t47 -19t32.5 -30t12 -38.5z" />
    <glyph glyph-name="circumflex" unicode="&#x2c6;" 
d="M340 547q3 -4 0.5 -9.5t-8 -8.5t-12.5 -3.5t-13 3.5l-142 103l-143 -103q-6 -4 -13 -3.5t-12.5 4t-8 8.5t0.5 9l112 147q13 19 30.5 27.5t33.5 8.5q19 0 35.5 -8.5t29.5 -27.5l110 -147v0z" />
    <glyph glyph-name="caron" unicode="&#x2c7;" 
d="M227 562q-13 -19 -30.5 -27.5t-33.5 -8.5q-19 0 -35.5 8.5t-29.5 27.5l-110 147q-3 5 -0.5 10t8 8t12.5 4t13 -4l142 -103l143 103q6 5 13 4t12.5 -4.5t8 -8.5t-0.5 -9z" />
    <glyph glyph-name="breve" unicode="&#x2d8;" 
d="M314 694q0 -31 -10 -62t-24 -53q-20 -27 -50 -42t-69 -15q-78 0 -124 69q-10 18 -16.5 44.5t-6.5 58.5q0 24 20 24q11 0 15 -5t6 -17q8 -43 37.5 -66t71.5 -23q40 0 70 23t39 66q2 13 7 17.5t15 4.5q19 0 19 -24z" />
    <glyph glyph-name="dotaccent" unicode="&#x2d9;" 
d="M233 616q0 -27 -18.5 -47t-50.5 -20q-31 0 -50 20.5t-19 46.5q0 27 19 47.5t51 20.5q28 0 48 -19t20 -49z" />
    <glyph glyph-name="ring" unicode="&#x2da;" 
d="M291 622q0 -22 -10 -45t-30 -40q-22 -18 -43 -24t-45 -6q-22 0 -46 6.5t-41 21.5q-20 19 -29.5 40.5t-9.5 44.5q0 22 10 45t31 39q24 18 43.5 24t42.5 6q16 0 31 -3.5t32 -11.5q31 -15 47.5 -41.5t16.5 -55.5zM212 621q0 42 -17 64q-6 8 -14 12t-20 4q-17 0 -30 -16
q-8 -10 -12.5 -26t-4.5 -38q0 -21 5 -37.5t11 -24.5q8 -9 14.5 -13.5t18.5 -4.5q25 0 37 21t12 59z" />
    <glyph glyph-name="ogonek" unicode="&#x2db;" 
d="M281 -175q-9 -14 -20 -28t-26 -24.5t-35 -17t-47 -6.5q-45 0 -70 26.5t-25 67.5q0 27 13 52t32 47t41 40t41 32h54q-88 -68 -88 -144q0 -20 9 -35.5t29 -15.5q15 0 25 3t17 7.5t12 10.5t11 12q5 5 11.5 5t12.5 -4q13 -11 3 -28z" />
    <glyph glyph-name="tilde" unicode="&#x2dc;" 
d="M337 677q-4 -24 -14.5 -45.5t-26.5 -37.5t-35 -25.5t-40 -9.5q-14 0 -31 5t-46 20q-41 22 -59 22q-22 0 -35.5 -12t-18.5 -28q-5 -21 -20 -21q-24 0 -20 30q4 24 14.5 45.5t26.5 37t35 25t40 9.5q14 0 34 -6.5t43 -17.5q45 -22 59 -22q21 0 35 12.5t19 28.5q5 20 20 20
q24 0 20 -30z" />
    <glyph glyph-name="hungarumlaut" unicode="&#x2dd;" 
d="M219 682q0 -13 -6 -23t-31 -30q-23 -20 -53 -43t-79 -58q-9 -5 -23 -1t-14 12q0 6 2 9q13 21 26.5 43.5t26 42.5t22 36t15.5 23q13 17 25.5 27t38.5 10q29 0 39.5 -16t10.5 -32zM423 682q0 -13 -6 -23t-31 -30q-23 -19 -54.5 -43t-81.5 -58q-9 -5 -23 -1t-14 12q0 6 2 9
q14 21 29 43t27.5 42.5t22.5 36.5t15 23q12 18 24 27.5t40 9.5q32 0 41 -16t9 -32z" />
    <glyph glyph-name="endash" unicode="&#x2013;" horiz-adv-x="594" 
d="M90 205v86h414v-86h-414z" />
    <glyph glyph-name="emdash" unicode="&#x2014;" horiz-adv-x="1032" 
d="M116 205v86h800v-86h-800z" />
    <glyph glyph-name="quoteleft" unicode="&#x2018;" horiz-adv-x="300" 
d="M214 456q0 -31 -18 -51.5t-55 -20.5q-45 0 -76.5 34.5t-31.5 97.5q0 57 25.5 106.5t73.5 87.5q14 9 20 11t11 2q11 0 16 -5.5t5 -12.5q0 -8 -7.5 -19.5t-26.5 -30.5q-29 -29 -38 -53t-9 -50q0 -8 4 -12q4 -1 8 -1t12 -1q42 -5 64.5 -28t22.5 -54z" />
    <glyph glyph-name="quoteright" unicode="&#x2019;" horiz-adv-x="246" 
d="M218 597q0 -85 -46 -155q-20 -32 -37 -45t-29 -13q-11 0 -15.5 4t-4.5 15q0 5 5.5 16t19.5 29q11 14 17.5 25.5t11 23.5t6 25t1.5 30q0 11 -1.5 18t-3.5 10q-1 1 -4 1t-9 -0.5t-12.5 -1l-13 -1t-10.5 -0.5q-28 0 -46 23.5t-18 52.5q0 72 82 72q48 0 77.5 -34t29.5 -95z
" />
    <glyph glyph-name="quotesinglbase" unicode="&#x201a;" horiz-adv-x="243" 
d="M218 19q0 -85 -46 -155q-20 -32 -37 -45t-29 -13q-11 0 -15.5 4t-4.5 15q0 5 5.5 16t19.5 29q11 14 17.5 25.5t11 23.5t6 25t1.5 30q0 11 -1.5 18t-3.5 10q-1 1 -4 1t-9 -0.5t-12.5 -1l-13 -1t-10.5 -0.5q-28 0 -46 23.5t-18 52.5q0 72 82 72q48 0 77.5 -34t29.5 -95z
" />
    <glyph glyph-name="quotedblleft" unicode="&#x201c;" horiz-adv-x="524" 
d="M438 456q0 -31 -18 -51.5t-55 -20.5q-21 0 -40.5 9t-34.5 26t-24 41.5t-9 55.5q0 57 25.5 106.5t73.5 87.5q14 9 20 11t11 2q11 0 16 -5.5t5 -12.5q0 -8 -7 -19.5t-27 -30.5q-29 -28 -38 -53t-9 -51q0 -7 4 -11q4 -1 8 -1t12 -1q42 -5 64.5 -28t22.5 -54zM214 456
q0 -31 -18 -51.5t-55 -20.5q-45 0 -76.5 34.5t-31.5 97.5q0 57 25.5 106.5t73.5 87.5q14 9 20 11t11 2q11 0 16 -5.5t5 -12.5q0 -8 -8 -19t-26 -31q-31 -31 -39 -55t-8 -49q0 -7 4 -11q4 -1 8 -1t12 -1q42 -5 64.5 -28t22.5 -54z" />
    <glyph glyph-name="quotedblright" unicode="&#x201d;" horiz-adv-x="478" 
d="M450 597q0 -85 -46 -155q-20 -32 -37 -46t-29 -14q-11 0 -15.5 4t-4.5 17q0 10 25 45q10 14 17 25.5t11 23.5t6 25t2 30q0 11 -1.5 18t-3.5 10q-1 1 -4 1t-9 -0.5t-12.5 -1l-13 -1t-10.5 -0.5q-28 0 -46 23.5t-18 52.5q0 72 82 72q48 0 77.5 -34t29.5 -95zM218 597
q0 -85 -46 -155q-20 -32 -37 -46t-29 -14q-11 0 -15.5 4t-4.5 17q0 5 5.5 16t19.5 29q11 14 17.5 26t11 24t6 25t1.5 29q0 11 -1.5 18t-3.5 10q-1 1 -4 1t-9 -0.5t-12.5 -1l-13 -1t-10.5 -0.5q-28 0 -46 23.5t-18 52.5q0 72 82 72q48 0 77.5 -34t29.5 -95z" />
    <glyph glyph-name="quotedblbase" unicode="&#x201e;" horiz-adv-x="478" 
d="M450 19q0 -85 -46 -155q-20 -32 -37 -46t-29 -14q-11 0 -15.5 4t-4.5 17q0 10 25 45q10 14 17 25.5t11 23.5t6 25t2 30q0 11 -1.5 18t-3.5 10q-1 1 -4 1t-9 -0.5t-12.5 -1l-13 -1t-10.5 -0.5q-28 0 -46 23.5t-18 52.5q0 72 82 72q48 0 77.5 -34t29.5 -95zM218 19
q0 -85 -46 -155q-20 -32 -37 -46t-29 -14q-11 0 -15.5 4t-4.5 17q0 5 5.5 16t19.5 29q21 28 28.5 49.5t7.5 54.5q0 11 -1.5 18t-3.5 10q-1 1 -4 1t-9 -0.5t-12.5 -1l-13 -1t-10.5 -0.5q-28 0 -46 23.5t-18 52.5q0 72 82 72q48 0 77.5 -34t29.5 -95z" />
    <glyph glyph-name="dagger" unicode="&#x2020;" horiz-adv-x="492" 
d="M456 487q-5 -11 -8.5 -18t-9.5 -18q-6 -8 -15 -14.5t-17 -6.5q-11 0 -39 7t-72 16q-6 2 -15 5.5t-13 5.5l-1 -8q2 -6 7.5 -21t12 -31.5t12 -31t8.5 -19.5q-11 -63 -15.5 -113.5t-8.5 -107.5l-19 -272h-39l-16 280q-1 25 -3.5 54t-5 58.5t-5 56.5t-4.5 49q5 6 12 20.5
t14 30t12.5 29.5t6.5 18l-2 9q-12 -3 -27 -7.5t-29 -8.5t-25 -7t-17 -4q-18 -4 -34 -7t-20 -3q-5 0 -13 4.5t-13 9.5q-8 12 -11.5 21t-3.5 14t3 15t11 23q6 8 16.5 12t18.5 4q7 0 20.5 -2.5t34.5 -7.5q29 -7 54.5 -14.5t34.5 -9.5q-4 24 -10 50t-10.5 50t-8 43.5t-3.5 31.5
q0 11 4.5 21t9.5 14q15 11 24.5 17t14.5 6q8 0 36 -26q5 -10 8.5 -18.5t3.5 -16.5q0 -11 -3 -30t-8 -42.5t-10 -49t-10 -49.5q15 4 35.5 11t29.5 9q62 13 71 13q18 0 31 -15q7 -8 10 -14t8 -15z" />
    <glyph glyph-name="daggerdbl" unicode="&#x2021;" horiz-adv-x="492" 
d="M443 17q0 -2 -4 -8.5t-10 -18.5q-25 -17 -39 -19q-6 0 -21 3t-33.5 7.5t-37 9.5t-29.5 7l5.5 -16.5t8.5 -28.5q8 -30 12.5 -47.5t4.5 -24.5q0 -9 -3.5 -19t-12.5 -17q-29 -16 -36 -16q-5 0 -12.5 5t-18.5 13q-5 10 -10 17.5t-5 13.5q0 3 2 14.5t6 31.5q5 23 11.5 42.5
t9.5 32.5q-5 -3 -22.5 -9.5t-41.5 -12.5q-42 -9 -52 -9q-12 0 -33 12q-8 8 -12.5 17.5t-4.5 15.5q0 5 4.5 15.5t12.5 18.5q21 11 36 11q6 0 22 -3.5t34 -8t34.5 -8.5t24.5 -5v10l-35 85q4 20 7.5 32t7 27t7 36.5t7.5 58.5q-3 29 -6 46.5t-7 33t-8.5 33t-9.5 46.5l37 79v7
q-18 -3 -43.5 -11t-41.5 -12t-24.5 -6t-18.5 -2q-5 0 -13.5 4.5t-20.5 11.5q-13 19 -13 27q0 4 3.5 10.5t9.5 17.5q27 19 36 19q2 0 9.5 -1t24.5 -3q1 0 10 -2.5t21.5 -5.5t28 -6.5t29.5 -5.5q-4 18 -9.5 37.5t-10.5 36t-8.5 28.5t-3.5 16q0 8 4.5 18.5t12.5 16.5
q10 5 22 10.5t14 5.5t10 -4t21 -13q6 -11 10 -18.5t4 -13.5q0 -5 -8 -45q-5 -23 -11 -43t-10 -31q16 3 34 7.5t34.5 8.5t29.5 7t19 3q11 0 31 -11q8 -12 13.5 -20.5t5.5 -12.5t-4.5 -11.5t-12.5 -18.5q-11 -6 -20 -10t-17 -4q-12 0 -44 6q-23 5 -43 12t-28 8v-7l32 -78
q-4 -31 -8 -50t-7.5 -35t-6.5 -32.5t-6 -42.5q3 -36 7 -56.5t8 -35t8 -27.5t8 -33l-33 -88l1 -11q13 4 36.5 10t43.5 11q19 4 30 6.5t15 2.5q11 0 32 -12q18 -25 18 -32z" />
    <glyph glyph-name="bullet" unicode="&#x2022;" horiz-adv-x="442" 
d="M372 350q0 -31 -12 -58t-32.5 -47t-48 -32t-58.5 -12t-58.5 12t-48 32t-32.5 47t-12 58t12 58.5t32.5 48t48 32.5t58.5 12t58.5 -12t48 -32.5t32.5 -48t12 -58.5z" />
    <glyph glyph-name="ellipsis" unicode="&#x2026;" horiz-adv-x="1134" 
d="M1036 80q0 -45 -24.5 -67.5t-62.5 -22.5q-39 0 -62.5 24.5t-23.5 63.5q0 41 25.5 63t66.5 22t61 -24.5t20 -58.5zM658 80q0 -45 -24.5 -67.5t-62.5 -22.5q-39 0 -62.5 24.5t-23.5 63.5q0 41 25.5 63t66.5 22t61 -24.5t20 -58.5zM280 80q0 -45 -24.5 -67.5t-62.5 -22.5
q-39 0 -62.5 24.5t-23.5 63.5q0 41 25.5 63t66.5 22t61 -24.5t20 -58.5z" />
    <glyph glyph-name="perthousand" unicode="&#x2030;" horiz-adv-x="1166" 
d="M224 -28q-5 -8 -17 -12.5t-21 -4.5q-11 0 -18.5 7t-2.5 16l367 627l-5 1q-23 -13 -43.5 -25.5t-49.5 -12.5q-23 0 -39 3t-26 6q0 -2 0.5 -7t0.5 -10q0 -42 -14 -85.5t-44 -84.5q-28 -38 -62.5 -56.5t-69.5 -18.5q-27 0 -50 9t-40 26t-26.5 41t-9.5 53q0 76 60 149
q66 80 145 80q61 0 90 -46q14 -9 30.5 -17t33.5 -8q31 0 53.5 5.5t41.5 16t37 26t39 36.5q8 8 19.5 10t18.5 2q11 0 14 -6t1 -11zM1118 225q0 -38 -15 -81t-47 -86q-54 -75 -129 -75q-57 0 -92.5 35t-35.5 94q0 78 60 150q32 39 67.5 58.5t70.5 19.5q57 0 89 -30.5t32 -84.5
zM762 225q0 -38 -15 -81t-47 -86q-54 -75 -129 -75q-57 0 -92.5 35t-35.5 94q0 78 60 150q32 39 67.5 58.5t70.5 19.5q57 0 89 -30.5t32 -84.5zM331 572q0 5 -0.5 8t-1.5 6q-31 8 -41 36q-36 -6 -73 -72q-17 -29 -28.5 -51.5t-19 -40.5t-10.5 -33t-3 -29q0 -19 12.5 -30
t29.5 -11t41 14t47 50q26 41 36.5 80.5t10.5 72.5zM1079 228q0 25 -10 42t-27 17q-20 0 -39.5 -16t-41.5 -52q-34 -55 -48 -89t-14 -64q0 -19 12 -30.5t32 -11.5t44.5 15.5t44.5 47.5q26 40 36.5 76.5t10.5 64.5zM723 228q0 25 -10 42t-27 17q-20 0 -39.5 -16t-41.5 -52
q-34 -55 -48 -89t-14 -64q0 -19 12 -30.5t32 -11.5t44.5 15.5t44.5 47.5q26 40 36.5 76.5t10.5 64.5z" />
    <glyph glyph-name="guilsinglleft" unicode="&#x2039;" horiz-adv-x="356" 
d="M280 393q0 -5 -5 -15l-40 -71l-45 -74l40 -65l42 -73q7 -12 7 -20t-6 -11.5t-13 -3.5q-6 0 -14.5 3t-18.5 12l-62 63l-75 71l-23 20v11l23 18l58 55l72 71q14 13 24 18t14 5q8 0 15 -3t7 -11z" />
    <glyph glyph-name="guilsinglright" unicode="&#x203a;" horiz-adv-x="356" 
d="M266 209l-75 -71l-62 -63q-10 -9 -18.5 -12t-14.5 -3q-7 0 -13 3.5t-6 11.5t7 20l42 73l40 65l-45 74l-40 71q-5 10 -5 15q0 8 7 11t15 3q4 0 14 -5t24 -18l72 -71l58 -55l23 -18v-11z" />
    <glyph glyph-name="fraction" unicode="&#x2044;" horiz-adv-x="255" 
d="M-109 -25q-5 -7 -20.5 -11.5t-29.5 -4.5q-13 0 -26 6t-8 14l561 709q5 7 22 12t31 5q13 0 25 -6.5t7 -14.5z" />
    <glyph glyph-name="Euro" unicode="&#x20ac;" horiz-adv-x="661" 
d="M622 133q0 -13 -20 -42q-13 -19 -31.5 -37.5t-43 -33.5t-54 -24t-64.5 -9q-117 0 -192 60.5t-96 186.5h-79q-14 0 -18.5 5.5t-4.5 16.5t4.5 16.5t18.5 5.5h73q-1 13 -1.5 26t-0.5 27v20h-71q-14 0 -18.5 5.5t-4.5 16.5t4.5 16.5t18.5 5.5h75q9 68 36 120t68 88t93.5 54.5
t112.5 18.5q39 0 73.5 -9t60 -24t40 -36t14.5 -45q0 -36 -21.5 -64t-64.5 -28q-23 0 -39.5 6.5t-27 17t-15.5 23t-5 24.5q0 16 3 29.5t6 29.5q0 16 -14 24t-35 8q-52 0 -89 -61.5t-47 -175.5h236q14 0 18 -5.5t4 -16.5t-4 -16.5t-18 -5.5h-239v-28v-22t1 -23h178
q14 0 18 -5.5t4 -16.5t-4 -16.5t-18 -5.5h-172q5 -34 16 -67t30 -59t47 -41.5t67 -15.5q43 0 71.5 14.5t45.5 33.5l18 21t17 23q2 1 7.5 2.5t10.5 1.5q15 0 22 -14z" />
    <glyph glyph-name="trademark" unicode="&#x2122;" horiz-adv-x="835" 
d="M349 621q-3 -5 -9 -5q-3 0 -9 3q-11 31 -22 46q-9 12 -20 19.5t-34 9.5q-5 1 -13.5 1h-13.5l-1 -137v-37.5t1 -57.5q0 -13 3.5 -20t9.5 -11t15 -5.5t22 -3.5q2 -3 3.5 -6t1.5 -5t-1.5 -4.5t-2.5 -4.5l-13 -1q-17 0 -41.5 1t-34.5 1h-12.5t-21 -0.5t-23.5 -0.5h-20l-3 3
t-1 6q0 2 1 5t2 5q34 3 43 10t10 18q1 8 1 35v59v115v20.5t-2 15.5q-8 0 -23.5 -0.5t-20.5 -2.5q-19 -8 -32.5 -23.5t-27.5 -43.5q-4 -4 -9 -4q-7 0 -10 5v82q0 7 2 9t10 2h33q8 0 37.5 -0.5t70.5 -0.5q54 0 91.5 1t47.5 1q13 0 16 -3q1 -2 1 -6v-7zM811 412q0 -5 -1.5 -6.5
t-2.5 -3.5h-121l-35 1q-1 2 -2 5t-1 5q0 3 1.5 5t3.5 5q5 0 14 0.5t15 2.5q16 7 16 35v220l-60 -141q-5 -13 -11 -25.5t-11 -26.5q-11 -26 -17 -43t-9 -28q-2 -5 -6 -6t-6 -1q-4 0 -7 1.5t-5 8.5q-5 15 -9 24t-7 15l-97 225v-53l2 -146q1 -33 15 -48.5t39 -15.5q4 -4 4 -10
q0 -4 -4 -9q-1 0 -5.5 -0.5t-9.5 -0.5q-3 0 -18.5 1t-39.5 1q-7 0 -19.5 -0.5t-23.5 -0.5l-20 1q-1 2 -2 4.5t-1 4.5q0 1 1 3.5t2 4.5q3 1 9.5 2.5t13 4t12.5 5t8 4.5q5 5 8 16t3 34l1 74l-1 87q0 19 -2.5 27.5t-12.5 14.5q-4 2 -15.5 4.5t-22.5 4.5q-4 4 -4 10q0 3 4 11
q8 0 23 -0.5t31 -0.5h73q5 -3 7 -8l88 -208l14 37q10 26 25.5 62.5t36.5 78.5l19 38l115 1q1 -2 3 -4t2 -5q0 -2 -1.5 -5t-3.5 -5q-8 -2 -22 -4t-21 -16q-2 -4 -3.5 -10.5t-1.5 -25.5v-151q0 -21 2 -33.5t5 -19.5t6.5 -9.5t5.5 -3.5q2 -2 12.5 -3.5t17.5 -1.5q4 -4 4 -10z
" />
    <glyph glyph-name="Delta" unicode="&#x2206;" horiz-adv-x="613" 
d="M544 -5q0 -54 -4.5 -87.5t-12.5 -51.5q-12 -25 -32.5 -46t-49.5 -35q-23 -11 -54.5 -18t-60.5 -7q-36 0 -60 7t-47 21q-18 11 -28.5 29.5t-10.5 39.5q0 32 18.5 50.5t55.5 18.5q26 0 43.5 -13.5t25.5 -46.5q2 -8 5 -18t4 -12q2 -6 5.5 -13.5t5.5 -9.5q8 -9 24 -9
q8 0 13.5 8.5t6.5 17.5t2 20t1 34v383v56t-2 44q-2 19 -6 29t-19 10h-124v-302q0 -31 14 -43.5t55 -14.5q3 -4 4.5 -9.5t1.5 -9.5q0 -7 -5 -17q-9 0 -25.5 0.5t-36.5 0.5h-41.5h-39.5q-29 0 -68.5 -1.5t-79.5 -1.5q-2 2 -3 8.5t-1 9.5q0 10 4 18q19 3 32.5 5.5t22.5 7.5
t13 15t4 28v306h-88q-2 5 -2.5 12.5t-0.5 12.5q0 4 1 12t3 14h86v30q0 34 1.5 53.5t3.5 33.5q7 46 30.5 77t57.5 50t76 27.5t87 8.5q29 0 58.5 -6t52.5 -18.5t37.5 -31.5t14.5 -44q0 -31 -19.5 -55t-57.5 -24q-33 0 -56.5 17t-23.5 49q0 11 2 19t8 22q1 2 2 5t1 4
q0 9 -15 16t-34 7q-16 0 -32.5 -9t-24.5 -21t-16 -43.5t-8 -84.5q0 -25 1 -48.5t1 -33.5h126q21 0 44 2t44 5.5t38.5 7.5t27.5 7l22 -11q1 -5 1.5 -11.5t0.5 -13.5q0 -13 -1 -30t-1 -22l2 -309v-77v0z" />
    <glyph glyph-name="minus" unicode="&#x2212;" horiz-adv-x="780" 
d="M90 207v83h600v-83h-600z" />
    <glyph glyph-name="infinity" unicode="&#x221e;" horiz-adv-x="938" 
d="M930 15q0 -2 -1 -7.5t-5 -9.5q-19 0 -45 0.5t-43 1.5q-21 1 -50.5 1.5t-49.5 0.5h-16.5t-23.5 -0.5t-25.5 -1t-21.5 -0.5q-4 8 -4 17q0 11 4 19q30 0 43 13t13 36v209q0 25 -0.5 54t-1.5 48h-149v-302q0 -31 11 -44.5t43 -13.5q3 -4 4.5 -9.5t1.5 -9.5q0 -7 -5 -17
q-18 1 -54.5 1h-73.5q-15 0 -33 -0.5t-37 -1t-36 -1t-30 -0.5q-2 2 -3 8.5t-1 9.5q0 10 4 18q16 2 27 4.5t18.5 8t11 15.5t3.5 28v306h-162v-302q0 -31 13.5 -44.5t45.5 -13.5q3 -4 4.5 -9.5t1.5 -9.5q0 -7 -5 -17h-21t-34 0.5t-40 0.5h-38q-29 0 -68.5 -1.5t-79.5 -1.5
q-2 2 -3 8.5t-1 9.5q0 10 4 18q19 3 32.5 5.5t22.5 7.5t13 15t4 28v306h-88q-2 5 -2.5 12.5t-0.5 12.5q0 4 1 12t3 14h85v30v-30v30q0 34 2 52.5t4 32.5q8 44 32 75t58.5 50.5t77 28.5t87.5 9q35 0 70 -12t57 -30q36 24 82.5 34t97.5 10q29 0 58.5 -6.5t52.5 -19.5t37.5 -32
t14.5 -44q0 -31 -19.5 -55t-57.5 -24q-33 0 -56.5 17t-23.5 49q0 11 2 19t8 22q1 2 2 5t1 4q0 9 -15 17t-34 8q-16 0 -32.5 -9t-24.5 -21t-16 -43.5t-8 -84.5q0 -25 1 -48.5t1 -33.5h63.5t49.5 0.5t40 1t33 1.5q33 2 56 6t41 6q6 -2 13.5 -7.5t10.5 -13.5q-1 -11 -1.5 -26
t-1.5 -31t-1.5 -30t-0.5 -23v-250q0 -14 4 -22t12.5 -12.5t22.5 -7.5t34 -6q4 -8 4 -18zM410 567q-15 7 -28 18t-13 31q0 11 1.5 19t6.5 22q2 4 2 8q0 11 -17.5 15.5t-39.5 4.5q-17 0 -34.5 -11t-25.5 -23t-15.5 -41.5t-7.5 -82.5q0 -25 0.5 -47.5t0.5 -32.5h164v30
q0 33 2 54.5t4 35.5z" />
    <glyph glyph-name="notequal" unicode="&#x2260;" horiz-adv-x="670" 
d="M761 632q0 -30 -19 -53t-55 -23q-32 0 -54 16.5t-22 47.5q0 11 3 19.5t8 22.5q2 4 2 8q0 9 -7.5 13.5t-19.5 4.5q-24 0 -34 -23q-6 -12 -10.5 -42.5t-4.5 -83.5q0 -24 0.5 -40t0.5 -26.5t0.5 -16t0.5 -9.5h117q2 -4 4.5 -12t2.5 -13q0 -4 -2 -13t-4 -14h-114v-305
q0 -19 4 -29t14 -14t25.5 -5t38.5 -4q5 -10 5 -17q0 -4 -1.5 -10t-3.5 -10h-155q-29 0 -67 -1.5t-70 -1.5q-2 2 -3 8.5t-1 9.5q0 10 4 18q18 2 29.5 4.5t18.5 8t10 15.5t3 28v306h-162v-302q0 -31 14.5 -44.5t46.5 -13.5q3 -4 4.5 -9.5t1.5 -9.5q0 -7 -5 -17h-21h-34.5
t-41 0.5t-38.5 0.5q-29 0 -68.5 -1.5t-79.5 -1.5q-2 2 -3 8.5t-1 9.5q0 10 4 18q19 3 32.5 5.5t22.5 7.5t13 15t4 28v306h-88q-2 5 -2.5 12.5t-0.5 12.5q0 4 1 12t3 14h85v30v-30v30q0 34 2 52.5t4 32.5q8 44 32 75t59 50.5t77.5 28.5t87.5 9q35 0 68.5 -8.5t55.5 -25.5
q56 36 129 36q29 0 57 -6t49.5 -17.5t34.5 -29.5t13 -42zM407 566q-16 7 -27.5 18.5t-11.5 31.5q0 11 1.5 19t6.5 22q2 4 2 8q0 11 -17.5 15.5t-39.5 4.5q-16 0 -33.5 -11t-25.5 -23t-15.5 -41.5t-7.5 -82.5q0 -25 0.5 -47.5t0.5 -32.5h164v29q0 31 1 53t2 37z" />
    <glyph glyph-name="fi" unicode="&#xfb01;" horiz-adv-x="627" 
d="M619 15q0 -2 -1 -7.5t-5 -9.5q-19 0 -45 0.5t-43 1.5q-21 1 -50.5 1.5t-49.5 0.5h-16.5t-23.5 -0.5t-25.5 -1t-21.5 -0.5q-4 8 -4 17q0 11 4 19q30 0 43 13t13 36v209q0 25 -0.5 54t-1.5 48h-149v-302q0 -31 11 -44.5t43 -13.5q3 -4 4.5 -9.5t1.5 -9.5q0 -7 -5 -17
q-18 1 -54.5 1h-73.5q-29 0 -68.5 -1.5t-79.5 -1.5q-2 2 -3 8.5t-1 9.5q0 10 4 18q19 3 32.5 5.5t22.5 7.5t13 15t4 28v306h-88q-2 5 -2.5 12.5t-0.5 12.5q0 4 1 12t3 14h86v30q0 34 1.5 53.5t3.5 33.5q7 46 30.5 77t57.5 50t76 27.5t87 8.5q29 0 58.5 -7t52.5 -20
t37.5 -32.5t14.5 -44.5q0 -31 -19.5 -55t-57.5 -24q-33 0 -56.5 17t-23.5 49q0 11 2 19t8 22q1 2 2 5t1 4q0 9 -15 18t-34 9q-16 0 -32.5 -9t-24.5 -21t-16 -43.5t-8 -84.5q0 -25 1 -48.5t1 -33.5h63.5t49.5 0.5t40 1t33 1.5q33 2 56 6t41 6q6 -2 13.5 -7.5t10.5 -13.5
q-1 -11 -1.5 -26t-1.5 -31t-1.5 -30t-0.5 -23v-250q0 -14 4 -22t12.5 -12.5t22.5 -7.5t34 -6q4 -8 4 -18z" />
    <glyph glyph-name="fl" unicode="&#xfb02;" horiz-adv-x="631" 
d="M624 17q0 -2 -1 -8t-2 -9q-3 0 -16.5 0.5t-31.5 0.5t-36 0.5t-29 0.5q-38 0 -71 -1q-28 -1 -54.5 -1h-35.5q-4 8 -4 17q0 11 4 19q30 0 43 14.5t13 37.5v308h-160v-302q0 -31 15 -44.5t47 -13.5q3 -4 4.5 -9.5t1.5 -9.5q0 -7 -5 -17h-21.5h-35t-41 0.5t-38.5 0.5
q-29 0 -68.5 -1.5t-79.5 -1.5q-2 2 -3 8.5t-1 9.5q0 10 4 18q19 3 32.5 5.5t22.5 7.5t13 15t4 28v306h-88q-2 5 -2.5 12.5t-0.5 12.5q0 4 1 12t3 14h85v30v-30v30q0 34 2 53.5t4 33.5q8 44 32 75t58.5 50.5t76.5 28.5t87 9q37 0 71.5 -9t56.5 -28l45 34q5 0 16 -7.5
t11 -17.5v-616q0 -14 3 -22t10.5 -12.5t20.5 -7t34 -5.5q2 -5 3 -10.5t1 -8.5zM405 564q-17 7 -28.5 20t-11.5 34q0 11 2 19t7 22q2 4 2 8q0 9 -19 14.5t-38 5.5q-16 0 -32.5 -10t-24.5 -22t-15.5 -42.5t-7.5 -83.5q0 -25 0.5 -48.5t0.5 -33.5h165v117z" />
    <glyph glyph-name="NUL" horiz-adv-x="0" 
 />
    </font>
</defs>
</svg>
