<svg id="Layer_1" data-name="Layer 1" xmlns="http://www.w3.org/2000/svg" viewBox="0 0 216 14.54"><defs><style>.cls-1{fill:#fbfbfb;}.cls-2{fill:#fff;}</style></defs><title>pu-logo-white</title><path class="cls-1" d="M114,4.62a.42.42,0,0,0,0-.18h-.3c-.66,0-1.08,0-2.26,0l-1.16,0h-.34s-.05.17-.05.22a.35.35,0,0,0,.07.22,5.54,5.54,0,0,1,1.36.38,2.58,2.58,0,0,1,.38,1.34c0,.2,0,.39,0,.94v2.75a4.92,4.92,0,0,1,0,.57c-.22-.25-.54-.72-1.07-1.32l-4.4-4.87a.92.92,0,0,0-.2-.17h-.4c-.84,0-2.37,0-2.59,0a.49.49,0,0,0-.05.19,1.88,1.88,0,0,0,0,.25,1.8,1.8,0,0,1,1,.5,4.41,4.41,0,0,1,.7.83,1.17,1.17,0,0,1,.05.42c0,.68,0,1.64,0,2.57v2.67a5.79,5.79,0,0,1-.08,1,2.74,2.74,0,0,1-1.38.67.78.78,0,0,0-.05.24s0,.17,0,.19h.25c.26,0,.87,0,1.26,0,.58,0,1,0,1.51,0h.79c.05,0,.07-.17.07-.22a.59.59,0,0,0,0-.21,2.52,2.52,0,0,1-1.58-.81,7.36,7.36,0,0,1-.17-1.63c0-.42,0-1,0-1.78,0-1,0-1.95,0-2.41l.24.29L111.67,14a.76.76,0,0,0,.37.08.3.3,0,0,0,.16,0,1.46,1.46,0,0,0,.12-.59c0-.38,0-.78,0-1V7c0-1.64.78-2.11,1.68-2.14a.58.58,0,0,0,.05-.25M99,8.81c0,2-.55,3.74-1.3,4.36a2.14,2.14,0,0,1-1.4.47,2,2,0,0,1-1.75-.88,7,7,0,0,1-.78-3.42c0-1.83.47-3.26,1.32-4a2.09,2.09,0,0,1,1.37-.51,2.19,2.19,0,0,1,1.79.91,5.07,5.07,0,0,1,.75,3m2.38.25A4.41,4.41,0,0,0,99,5a5.08,5.08,0,0,0-2.5-.67,5.36,5.36,0,0,0-4.44,2.45A5,5,0,0,0,91.3,9.4a4.91,4.91,0,0,0,1.88,3.86,4.94,4.94,0,0,0,3,.95,5.46,5.46,0,0,0,2-.38A4.7,4.7,0,0,0,100,12.57a5.09,5.09,0,0,0,1.33-3.51M89.78,7.4V4.71c0-.2-.08-.25-.28-.25-.39,0-2.47.05-4.58.05-1.63,0-3,0-3.72,0h-1c-.17,0-.22,0-.22.22V7.23a.39.39,0,0,0,.21.05,1,1,0,0,0,.29,0,4.42,4.42,0,0,1,1.84-2.2C82.74,5,83.51,5,83.72,5c0,.15,0,.61,0,1.16,0,.95,0,1.36,0,3.59,0,1.94,0,2.8,0,3-.05.37,0,.64-1.57.71a.74.74,0,0,0,0,.3,1.1,1.1,0,0,0,0,.21h.51c.49,0,1.63-.05,2.11-.05s1.61,0,2.41,0h.37a.67.67,0,0,0,0-.28.47.47,0,0,0-.05-.24,2.73,2.73,0,0,1-1.35-.25,4.12,4.12,0,0,1-.12-1c0-1.42,0-2,0-2.91C86,8.09,86,7.26,86,5c.19,0,.61,0,1,0a2.57,2.57,0,0,1,1.57,1,6.61,6.61,0,0,1,.7,1.43.63.63,0,0,0,.22,0,.73.73,0,0,0,.25-.05M78.43,11.67a2.78,2.78,0,0,0,0-.38.28.28,0,0,0-.2,0,1,1,0,0,0-.29,0,5,5,0,0,1-1.45,2,2,2,0,0,1-1,.14H74.42a4.68,4.68,0,0,1-.87-.07c-.2,0-.41-.35-.5-.56a1.39,1.39,0,0,1-.14-.83V9.09h.49a2.08,2.08,0,0,1,.8.18,1.22,1.22,0,0,1,.59.55A4.59,4.59,0,0,1,75,10.92a.9.9,0,0,0,.34.05.45.45,0,0,0,.26-.07c0-.35-.08-1.31-.08-1.84s.09-1.57.13-2A.54.54,0,0,0,75.41,7a1,1,0,0,0-.34,0c0,.19-.18.74-.21.78a1.59,1.59,0,0,1-.9.68,3.36,3.36,0,0,1-.76.11h-.28V7.36c0-1.26,0-1.67,0-1.91S73,5.12,73,5a6,6,0,0,1,.79,0H75a1.49,1.49,0,0,1,.84.26,5.64,5.64,0,0,1,1.26,1.63,1.06,1.06,0,0,0,.28,0c.08,0,.09,0,.2-.08,0-.8-.05-1.84-.08-2.17,0-.13,0-.17-.3-.17-.11,0-.61,0-1.13,0H71.47c-.79,0-1.46,0-1.8,0h-.45a.44.44,0,0,0-.07.21.6.6,0,0,0,.07.26,6.52,6.52,0,0,1,1,.14,1.08,1.08,0,0,1,.47.86c0,.28,0,1,0,1.64v2.71c0,.55,0,1.36,0,1.68a3.77,3.77,0,0,1-.29,1.25,3.47,3.47,0,0,1-1.18.2.73.73,0,0,0-.07.29.48.48,0,0,0,.07.24h.43l2.33,0c.33,0,1,0,1.72,0,.42,0,1.66.08,4.32.08a1.15,1.15,0,0,0,.36,0,.41.41,0,0,0,.05-.21c0-.26,0-1,0-2.1m-11.13.46a.44.44,0,0,0-.45-.32h-.09a3.1,3.1,0,0,1-2.65,1.54,2.88,2.88,0,0,1-2.66-1.74,7.28,7.28,0,0,1-.41-2.39,5.8,5.8,0,0,1,.39-2.3c.58-1.53,1.42-2,2.45-2A2.69,2.69,0,0,1,66,6.12a5.87,5.87,0,0,1,.67,1.59,1.4,1.4,0,0,0,.29,0,.65.65,0,0,0,.32-.12c0-.14-.14-1.16-.14-1.47s.1-1,.1-1.29a1.07,1.07,0,0,0-.51-.14,2.65,2.65,0,0,0-.45.54,4.34,4.34,0,0,0-2.92-.93,4.49,4.49,0,0,0-3.3,1.3,5,5,0,0,0-1.41,3.71,4.81,4.81,0,0,0,1.85,3.93,5.23,5.23,0,0,0,3.07.88,4.08,4.08,0,0,0,3.37-1.41,2.56,2.56,0,0,0,.37-.62M57.06,4.62a.42.42,0,0,0,0-.18h-.3c-.66,0-1.08,0-2.26,0l-1.16,0H53s-.05.17-.05.22a.35.35,0,0,0,.07.22,5.53,5.53,0,0,1,1.35.38,2.57,2.57,0,0,1,.38,1.34c0,.2,0,.39,0,.94v2.75a5,5,0,0,1,0,.57c-.22-.25-.54-.72-1.07-1.32L49.25,4.67a.94.94,0,0,0-.2-.17h-.39c-.84,0-2.37,0-2.59,0a.49.49,0,0,0-.05.19,1.88,1.88,0,0,0,0,.25,1.8,1.8,0,0,1,1,.5,4.41,4.41,0,0,1,.7.83,1.17,1.17,0,0,1,.05.42c0,.68,0,1.64,0,2.57v2.67a5.67,5.67,0,0,1-.08,1,2.74,2.74,0,0,1-1.38.67.78.78,0,0,0-.05.24s0,.17,0,.19h.25c.26,0,.87,0,1.26,0,.58,0,1,0,1.51,0h.79c.05,0,.07-.17.07-.22a.62.62,0,0,0,0-.21,2.52,2.52,0,0,1-1.58-.81,7.43,7.43,0,0,1-.17-1.63c0-.42,0-1,0-1.78,0-1,0-1.95,0-2.41l.24.29L54.7,14a.76.76,0,0,0,.37.08.3.3,0,0,0,.16,0,1.49,1.49,0,0,0,.12-.59c0-.38,0-.78,0-1V7c0-1.64.78-2.11,1.68-2.14a.57.57,0,0,0,.05-.25M44,13.74a.86.86,0,0,0,0-.26,8.89,8.89,0,0,1-1-.12,2.07,2.07,0,0,1-.45-1c0-.63,0-1.94,0-3.16V5.95a1,1,0,0,1,.24-.71A2.21,2.21,0,0,1,44,4.9a.81.81,0,0,0,0-.25.39.39,0,0,0-.07-.21h-.38c-.55,0-1.84.06-2.29.06l-2.14-.05h-.29a.33.33,0,0,0-.06.22,2.05,2.05,0,0,0,0,.25,2.81,2.81,0,0,1,1,.18,1.46,1.46,0,0,1,.43,1.12c0,.25,0,.79,0,2,0,.66,0,1.58,0,2.34,0,.38,0,1.24,0,1.7a2.27,2.27,0,0,1-.18.79c-.16.13-.32.37-1.28.43a1,1,0,0,0,0,.28c0,.1,0,.16,0,.22H39c.53,0,1.84-.06,2.53-.06l2,0H44a.51.51,0,0,0,.05-.22M33.5,6.87a2,2,0,0,1-1.2,1.91,4.38,4.38,0,0,1-1.08.11,3.29,3.29,0,0,1-.49,0V5.32A.42.42,0,0,1,30.8,5a1.32,1.32,0,0,1,.55-.08c1,0,1.47.09,1.84.71a2.33,2.33,0,0,1,.3,1.21m3.82,6.88a.64.64,0,0,0-.07-.28,2,2,0,0,1-.87-.17,3,3,0,0,1-.22-.33,13.67,13.67,0,0,0-.57-1.51,4.93,4.93,0,0,0-1-1.57,4.07,4.07,0,0,0-1-.43l-.54-.21.54-.08a2.34,2.34,0,0,0,1.45-.49A2.08,2.08,0,0,0,35.89,7a2.53,2.53,0,0,0-1.65-2.39,6.45,6.45,0,0,0-1.58-.14c-1,0-2.37.09-3,.09l-1.8,0-.78,0a.79.79,0,0,0-.07.25A1.55,1.55,0,0,0,27,5c.22,0,.63.08.84.12a1.55,1.55,0,0,1,.55.71c.06.42.08,1.5.08,3.36,0,1.34,0,2.89-.05,3.39a1,1,0,0,1-.54.88c-.17,0-.49.08-.75.09a.66.66,0,0,0-.07.26.85.85,0,0,0,.05.21l2.62,0c.84,0,1.55,0,2.3,0a.57.57,0,0,0,.05-.2.8.8,0,0,0-.05-.28c-.26,0-.59-.11-.74-.13a1,1,0,0,1-.57-.93v-3h.34a1.31,1.31,0,0,1,.7.21,2.52,2.52,0,0,1,1,1,8.06,8.06,0,0,1,.83,2.83c0,.28.14.51.39.54s.8,0,1.3,0h1.88a.35.35,0,0,0,.08-.22M23,6.94a2.15,2.15,0,0,1-.67,1.64A2.13,2.13,0,0,1,21,8.94a4.34,4.34,0,0,1-.57,0c-.1,0-.17,0-.17-.09V5A5.35,5.35,0,0,1,21,4.9c.89,0,1.45.22,1.71.78A2.8,2.8,0,0,1,23,6.94M25.38,7A2.52,2.52,0,0,0,24,4.7a6.59,6.59,0,0,0-2.35-.3c-1,0-2.59.08-3.29.08-.49,0-1.22-.05-1.63-.05a.49.49,0,0,0-.07.21.65.65,0,0,0,0,.26c.25.08.66.14.92.21a1.13,1.13,0,0,1,.35.75c0,.46.07,1,.07,2,0,2.78,0,4.24-.05,4.55a1.12,1.12,0,0,1-.75.93,7.35,7.35,0,0,1-.76.13,1.42,1.42,0,0,0,0,.28.35.35,0,0,0,0,.18c.42,0,1.66-.05,2.13-.05,1.17,0,2.37.05,2.85.05h.33a.37.37,0,0,0,0-.21.66.66,0,0,0,0-.24,2.15,2.15,0,0,1-1.24-.42,1.12,1.12,0,0,1-.26-.78l0-2.89c.79.05,1.63.08,2.09.08a5,5,0,0,0,1.53-.24A2.41,2.41,0,0,0,25.38,7" transform="translate(-0.37 -2.14)"/><path class="cls-1" d="M216.37,4.51c0-.08-.05-.11-.08-.16-.54,0-1.25,0-1.53,0-.67,0-1.49-.05-1.84-.05a.29.29,0,0,0-.05.16.5.5,0,0,0,0,.16c.38.08.93.17,1,.36a1,1,0,0,1,.12.51A1.3,1.3,0,0,1,214,6c-.12.33-.37.84-.72,1.57-.6,1.22-1,2-1.2,2.29-.34-.58-1.11-2.11-1.29-2.5L210,5.76a1.18,1.18,0,0,1-.05-.36.87.87,0,0,1,.05-.34c.12-.24.53-.26,1.08-.33a.57.57,0,0,0,0-.2c0-.09,0-.06-.08-.13h-.24c-.88,0-.62,0-2.13,0-.64,0-1.42,0-1.53,0s-.08.11-.08.2a.28.28,0,0,0,.05.16c.88.21,1.14.37,1.24.54l2.3,4.51a5.17,5.17,0,0,1,.42,1,7.34,7.34,0,0,1,.11,1.58,1.12,1.12,0,0,1-.42,1,6.14,6.14,0,0,1-1.05.17.32.32,0,0,0-.07.19.59.59,0,0,0,0,.16h1.76l1.47,0,1,0a.4.4,0,0,0,.07-.17.29.29,0,0,0-.05-.17,3.19,3.19,0,0,1-1.14-.26,1,1,0,0,1-.34-.84l-.1-2a.77.77,0,0,1,.05-.31,2,2,0,0,1,.15-.37l2-4a2.74,2.74,0,0,1,.84-.88,3.74,3.74,0,0,1,.86-.26.49.49,0,0,0,.05-.17M205.74,7.23V4.67c0-.2-.08-.25-.28-.25-.39,0-2.21.05-4.32.05-1.63,0-2.72,0-3.46,0h-1c-.17,0-.22,0-.22.22V7.06a.23.23,0,0,0,.16.05.35.35,0,0,0,.16,0c.51-1.14.78-1.75,1.66-2.2.39,0,1.78-.05,2-.05,0,.14,0,.61,0,1.16,0,.95,0,1.46,0,3.7,0,1.93,0,2.93,0,3.14-.05.37,0,.64-1.57.71a.42.42,0,0,0,0,.22.63.63,0,0,0,0,.16h.51c.49,0,1.13-.05,1.61-.05s1.11,0,1.91,0h.37a.36.36,0,0,0,0-.2.31.31,0,0,0-.05-.19,2.72,2.72,0,0,1-1.36-.25,4.09,4.09,0,0,1-.12-1c0-1.42,0-2.09,0-3,0-1.22,0-2.16,0-4.44.18,0,1.16,0,1.55,0a2.37,2.37,0,0,1,1.49,1,4.25,4.25,0,0,1,.59,1.44.53.53,0,0,0,.2,0,.24.24,0,0,0,.14-.05m-10.93,6.5a.43.43,0,0,0,0-.18c-.2,0-.74-.07-1-.12a2.08,2.08,0,0,1-.45-1c0-.63,0-2.06,0-3.29V5.78a1,1,0,0,1,.24-.71,2.24,2.24,0,0,1,1.17-.34.42.42,0,0,0,0-.17.21.21,0,0,0-.07-.16h-.38c-.55,0-1.34.06-1.79.06l-1.65-.05h-.29a.19.19,0,0,0-.07.17.88.88,0,0,0,0,.17,2.8,2.8,0,0,1,1,.18A1.45,1.45,0,0,1,192,6.06c0,.25,0,.92,0,2.13,0,.66,0,1.55,0,2.32,0,.38,0,1.37,0,1.83a2.22,2.22,0,0,1-.18.79c-.16.13-.32.37-1.28.44a.53.53,0,0,0,0,.2c0,.11,0,.11,0,.17h.22c.53,0,1.34-.07,2-.07.2,0,1.07,0,1.5,0h.43a.33.33,0,0,0,.05-.17m-6.5-2.42A2.44,2.44,0,0,0,186.81,9a7.19,7.19,0,0,0-1.46-.53,9.66,9.66,0,0,1-1.91-.72,1.58,1.58,0,0,1-.78-1.43,1.74,1.74,0,0,1,1.86-1.54,2.2,2.2,0,0,1,1.8.92,6.71,6.71,0,0,1,.82,1.5l.13,0a.42.42,0,0,0,.29-.13,10.49,10.49,0,0,1-.11-1.18,7,7,0,0,1,.12-1,.4.4,0,0,0-.39-.18,2.92,2.92,0,0,0-.51.47,3.29,3.29,0,0,0-2.24-.81,2.57,2.57,0,0,0-2.78,2.51,2.65,2.65,0,0,0,.49,1.45,2.84,2.84,0,0,0,1.28,1c.38.16,2.09.67,2.33.76,1.05.41,1.45.76,1.45,1.7a2.06,2.06,0,0,1-.58,1.33,1.84,1.84,0,0,1-1.46.62,3,3,0,0,1-2.21-1,6.23,6.23,0,0,1-.89-1.78.52.52,0,0,0-.44.05c0,.17.05,1,.05,1.3a5.36,5.36,0,0,1-.14,1.17.51.51,0,0,0,.42.26,1.9,1.9,0,0,1,.66-.42.63.63,0,0,1,.32.12,3.79,3.79,0,0,0,2.2.66c1.86,0,3.18-.93,3.18-2.76M176.66,6.76a2.12,2.12,0,0,1-1.45,2,7,7,0,0,1-1.37.11c-.16,0-.61,0-.8,0V5.16c0-.17,0-.26.09-.3a4.37,4.37,0,0,1,.92-.08c1.24,0,1.8.12,2.25.76a2.08,2.08,0,0,1,.37,1.22m2.76,7a.35.35,0,0,0-.07-.2,2,2,0,0,1-.87-.17,2.76,2.76,0,0,1-.22-.33,17.09,17.09,0,0,0-.55-1.64,4.93,4.93,0,0,0-1-1.57,3.65,3.65,0,0,0-.95-.43l-.54-.21a4.69,4.69,0,0,1,.54-.08,2.41,2.41,0,0,0,1.4-.49,2.09,2.09,0,0,0,.87-1.7,2.51,2.51,0,0,0-1.64-2.38,6.49,6.49,0,0,0-1.58-.14c-1,0-1.72.09-2.38.09l-1.3,0-.78,0c0,.09-.07.12-.07.17a.89.89,0,0,0,0,.18l.84.12a1.57,1.57,0,0,1,.55.71c.07.42.08,1.61.08,3.46,0,1.34,0,3-.05,3.53a1,1,0,0,1-.54.88c-.17,0-.49.08-.75.09a.35.35,0,0,0-.07.19.53.53,0,0,0,.05.16l2.12,0c.84,0,1.05,0,1.8,0a.34.34,0,0,0,.05-.15.39.39,0,0,0-.05-.2c-.26,0-.59-.11-.74-.13a1,1,0,0,1-.57-.93V9.23h.59a2.44,2.44,0,0,1,1.05.18A3,3,0,0,1,176,10.46a8.24,8.24,0,0,1,.83,2.87c0,.28.14.51.39.54a4.79,4.79,0,0,0,.76,0h1.37a.23.23,0,0,0,.08-.17m-11-2a3.2,3.2,0,0,0,0-.38.29.29,0,0,0-.2,0,.38.38,0,0,0-.17,0,3.48,3.48,0,0,1-1.35,2,2.49,2.49,0,0,1-1.12.14H164a5.8,5.8,0,0,1-.87-.07c-.2,0-.41-.36-.5-.57a1.72,1.72,0,0,1-.15-.91V9H163a2.6,2.6,0,0,1,1.12.18,1.58,1.58,0,0,1,.71.57,4.52,4.52,0,0,1,.19,1.09.33.33,0,0,0,.21.05.31.31,0,0,0,.21-.07c0-.36-.08-1.32-.08-1.84s.09-1.46.13-1.94a.35.35,0,0,0-.21-.05A.38.38,0,0,0,165,7c0,.18-.15.74-.17.78a1.9,1.9,0,0,1-1,.7,4.15,4.15,0,0,1-1.08.11h-.21V7.29c0-1.26,0-1.78,0-2s0-.33.05-.45.5,0,1.11,0h1.45a1.49,1.49,0,0,1,.84.26,3.33,3.33,0,0,1,1.17,1.63.37.37,0,0,0,.16,0c.08,0,.09,0,.2-.08,0-.8-.05-1.71-.08-2,0-.13,0-.17-.3-.17-.11,0-.61,0-1.13,0H161.6c-.79,0-1,0-1.3,0h-.45a.27.27,0,0,0-.07.16.31.31,0,0,0,.07.18,6.8,6.8,0,0,1,1,.14c.18.16.36.2.47.83,0,.28,0,1.17,0,1.78v2.71c0,.55,0,1.46,0,1.79a4,4,0,0,1-.29,1.28,3.44,3.44,0,0,1-1.19.2.43.43,0,0,0-.06.21.32.32,0,0,0,.06.18h.44l1.83,0c.33,0,.78,0,1.54,0,.42,0,1.66.08,4.32.08a1.15,1.15,0,0,0,.36,0,.44.44,0,0,0,.05-.21c0-.26,0-.91,0-2m-9.74-7.18c0-.05,0-.13-.07-.15h-.45l-1,0c-1.06,0-1.45-.07-1.6-.07h-.24c0,.07-.07.11-.07.17s0,.09,0,.15a4.67,4.67,0,0,1,.91.2,1.23,1.23,0,0,1,.33.83,5,5,0,0,1-.32,1.2L154,12.12,151.4,5.53a1,1,0,0,1,.43-.74,6,6,0,0,1,.86-.1.47.47,0,0,0,.05-.18c0-.05,0-.13-.07-.15h-.33c-.41,0-1,.05-1.72.05l-1.47,0h-.51a.28.28,0,0,0-.05.16.28.28,0,0,0,0,.16,4.51,4.51,0,0,1,1.11.45,23,23,0,0,1,1.08,2.39l1.09,2.63c.91,2.19,1.45,3.64,1.51,3.89.07,0,0,.08.12.08s.11,0,.13-.09l3.4-8.16a2.58,2.58,0,0,1,.47-.75,2.07,2.07,0,0,1,1.05-.42.61.61,0,0,0,.05-.17m-11.53,9.17a.41.41,0,0,0,0-.18c-.2,0-.74-.07-1-.12a2.07,2.07,0,0,1-.45-1c0-.63,0-2.06,0-3.29V5.78a1.05,1.05,0,0,1,.24-.71A2.24,2.24,0,0,1,147,4.73a.41.41,0,0,0,0-.17A.22.22,0,0,0,147,4.4h-.38c-.55,0-1.34.06-1.79.06l-1.64-.05h-.29a.19.19,0,0,0-.07.17,1,1,0,0,0,0,.17,2.8,2.8,0,0,1,1,.18,1.45,1.45,0,0,1,.43,1.12c0,.25,0,.92,0,2.13,0,.66,0,1.55,0,2.32,0,.38,0,1.37,0,1.83a2.22,2.22,0,0,1-.19.79c-.16.13-.31.37-1.28.44a.53.53,0,0,0,0,.2c0,.11,0,.11,0,.17h.22c.53,0,1.34-.07,2-.07.2,0,1.07,0,1.5,0h.43a.32.32,0,0,0,.05-.17m-5.95-9.2a.22.22,0,0,0,0-.13h-.3c-.66,0-.95,0-2.13,0l-1.16,0h-.34s-.05.12-.05.17a.17.17,0,0,0,.06.14,5.65,5.65,0,0,1,1.36.38,2.56,2.56,0,0,1,.38,1.34c0,.2,0,.39,0,.93v3.91a4.86,4.86,0,0,1,0,.57c-.22-.25-.61-.74-1.12-1.34l-5-5.87a.84.84,0,0,0-.2-.17h-.34c-.84,0-1.58,0-1.8,0a.27.27,0,0,0,0,.13.94.94,0,0,0,0,.17,2.27,2.27,0,0,1,1,.37,4,4,0,0,1,.65.78,1.19,1.19,0,0,1,.05.42c0,.69,0,1.94,0,2.86v2.8a5.91,5.91,0,0,1-.08,1,2.76,2.76,0,0,1-1.38.67.37.37,0,0,0-.05.16s0,.12,0,.13h.25c.26,0,.87,0,1.26,0,.58,0,.84,0,1.38,0h.79c.05,0,.07-.12.07-.17a.27.27,0,0,0,0-.13,2.53,2.53,0,0,1-1.58-.82,7.75,7.75,0,0,1-.17-1.66c0-.42,0-1.11,0-1.88,0-1,0-2.47,0-2.93l.29.34,6.24,7.3c.06.07.09.08.16.08s0,0,.08,0a2,2,0,0,0,.07-.59c0-.38,0-.78,0-1V6.84c0-1.65.78-2.11,1.68-2.15a.28.28,0,0,0,.05-.17M129,4.59a.27.27,0,0,0-.07-.17h-.38l-1.43,0-1.5,0h-.47a.32.32,0,0,0-.05.17.45.45,0,0,0,0,.17c.05,0,1,0,1.18.25a3.26,3.26,0,0,1,.51,1,8.65,8.65,0,0,1,.11,1.45c0,1.12,0,1.87,0,2.26a7.08,7.08,0,0,1-.24,1.75,2.41,2.41,0,0,1-2.58,1.71,3.62,3.62,0,0,1-1.54-.33,2.22,2.22,0,0,1-1.28-1.66l-.07-3.95V5.62c0-.3.38-.58.51-.74a6.1,6.1,0,0,1,1-.13.38.38,0,0,0,.07-.19.22.22,0,0,0-.09-.17h-.5l-1.54,0h-2.07a.23.23,0,0,0-.07.18.21.21,0,0,0,.05.16c.42.05.7.09.88.13a1.11,1.11,0,0,1,.46.58c0,.17,0,.59,0,1.42v3.16a8,8,0,0,0,.13,1.76,2.61,2.61,0,0,0,1.14,1.62,4.31,4.31,0,0,0,2.41.63,4.53,4.53,0,0,0,2.26-.54,2.69,2.69,0,0,0,1.3-1.75,6,6,0,0,0,.21-1.56V7.69c0-.47,0-1.07,0-1.3a2.66,2.66,0,0,1,.39-1.45,5.32,5.32,0,0,1,1.09-.18.33.33,0,0,0,.05-.16" transform="translate(-0.37 -2.14)"/><path class="cls-2" d="M4.78,5.35a.08.08,0,0,0-.07,0l-.15.34h0v0l-.06-.15,0-.11,0-.08a.08.08,0,0,0-.06,0h.21s-.06,0-.06,0v0l.1.24.08-.2a.12.12,0,0,0,0-.05s0,0-.06,0h.17Z" transform="translate(-0.37 -2.14)"/><path class="cls-2" d="M5.2,5.73H4.88a.12.12,0,0,0,0-.06V5.58s0-.07,0-.11V5.4s0,0-.07,0h.36v.09h0a.19.19,0,0,0-.06-.07H5s0,0,0,0,0,0,0,.08v.05H5l0,0v0h0s0,0,0,.09,0,.06,0,.08h0s0-.06,0-.07H5v.1a.13.13,0,0,0,0,0s0,0,0,0h.14a.23.23,0,0,0,.06-.09h0v.11Z" transform="translate(-0.37 -2.14)"/><path class="cls-2" d="M5.69,5.46h0l0-.06a.1.1,0,0,0-.07,0h0v.18s0,.06,0,.12,0,0,.07.05H5.38c.06,0,.07,0,.07,0s0-.07,0-.12V5.41a.23.23,0,0,0,0,0H5.39a.17.17,0,0,0-.08.09h0v-.1H5.7v.1Z" transform="translate(-0.37 -2.14)"/><path class="cls-2" d="M4.76,6.09h0l0-.06a.1.1,0,0,0-.07,0h0v.18s0,.06,0,.12,0,0,.07.05H4.46c.06,0,.07,0,.07,0s0-.07,0-.12V6a.23.23,0,0,0,0,0H4.46a.16.16,0,0,0-.08.09h0V6h.41v.1Z" transform="translate(-0.37 -2.14)"/><path class="cls-2" d="M5.22,6.36H4.9s0,0,0-.06,0,0,0-.06,0-.07,0-.11V6s0,0-.07,0H5.2v.09h0A.18.18,0,0,0,5.13,6H5S5,6,5,6s0,0,0,.08v.05H5l0,0v0h0s0,0,0,.09,0,.06,0,.08h0s0-.06,0-.07H5v.11a.16.16,0,0,0,0,0l0,0h.14a.21.21,0,0,0,.06-.08h0v.11Z" transform="translate(-0.37 -2.14)"/><path class="cls-2" d="M5.5,6.37l-.09,0H5.34s0,0,0,0V6.23h0l0,.08a.12.12,0,0,0,.09,0l.06,0a.06.06,0,0,0,0,0,.06.06,0,0,0,0,0l0,0-.1,0-.06,0a.12.12,0,0,1,0-.07.11.11,0,0,1,.12-.11.15.15,0,0,1,.1,0l0,0h0A.5.5,0,0,0,5.6,6s0,.05,0,.06h0l0-.07a.09.09,0,0,0-.08,0A.07.07,0,0,0,5.4,6s0,0,0,.06l.06,0,.06,0a.11.11,0,0,1,.07.11A.13.13,0,0,1,5.5,6.37Z" transform="translate(-0.37 -2.14)"/><path class="cls-2" d="M4.92,7H4.6a.12.12,0,0,0,0-.06s0,0,0-.06,0-.07,0-.11V6.66s0,0-.07,0h.36v.09h0a.19.19,0,0,0-.06-.07H4.7s0,0,0,0,0,0,0,.08v.05h.06l0,0v0h0s0,0,0,.09v.08h0s0-.06,0-.07H4.69v.1a.15.15,0,0,0,0,0l0,0h.14a.21.21,0,0,0,.06-.08h0V7Z" transform="translate(-0.37 -2.14)"/><path class="cls-2" d="M5.51,6.61s-.08,0-.08.09V6.9s0,.07,0,.09h0l-.28-.3v.22a.05.05,0,0,0,0,0l.05,0H5a.09.09,0,0,0,.06,0,.12.12,0,0,0,0,0V6.75s0,0,0-.06a.08.08,0,0,0,0,0l0,0,0,0h.13l.21.23,0,.06V6.72a.4.4,0,0,0,0,0,.11.11,0,0,0,0,0l-.07,0h.18Z" transform="translate(-0.37 -2.14)"/><path class="cls-2" d="M6.83,5.35s-.08,0-.08.09v.21s0,.07,0,.09h0l-.28-.3v.22a.05.05,0,0,0,0,0l.05,0H6.35a.1.1,0,0,0,.06,0,.11.11,0,0,0,0,0V5.49s0,0,0-.06a.08.08,0,0,0,0,0l0,0,0,0h.13l.21.23,0,.06V5.46a.31.31,0,0,0,0,0,.11.11,0,0,0,0,0l-.07,0h.18Z" transform="translate(-0.37 -2.14)"/><path class="cls-2" d="M7.24,5.68A.21.21,0,0,1,7,5.38a.2.2,0,0,1,.25,0,.21.21,0,0,1,.1.18A.22.22,0,0,1,7.24,5.68Zm-.06-.29a.09.09,0,0,0-.08,0,.08.08,0,0,0-.07,0,.23.23,0,0,0,0,.14.25.25,0,0,0,0,.14.09.09,0,0,0,.08,0,.09.09,0,0,0,.09-.05.26.26,0,0,0,0-.13A.23.23,0,0,0,7.18,5.39Z" transform="translate(-0.37 -2.14)"/><path class="cls-2" d="M7.81,5.35a.08.08,0,0,0-.07,0l-.15.34h0v0L7.5,5.58l0-.11,0-.08a.08.08,0,0,0-.06,0h.21s-.06,0-.06,0a0,0,0,0,0,0,0l.1.24.08-.2a.13.13,0,0,0,0-.05s0,0-.06,0h.17Z" transform="translate(-0.37 -2.14)"/><path class="cls-2" d="M6.7,6.09h0l0-.06a.1.1,0,0,0-.07,0h0v.18s0,.06,0,.12,0,0,.07.05H6.39c.06,0,.07,0,.07,0s0-.07,0-.12V6a.23.23,0,0,0,0,0H6.4a.16.16,0,0,0-.08.09h0V6s0,0,0,0h.4v.1Z" transform="translate(-0.37 -2.14)"/><path class="cls-2" d="M7.18,6.36H7s.05,0,.05,0a.15.15,0,0,0,0-.05l0,0H6.86a.27.27,0,0,0,0,.08.09.09,0,0,0,0,0s0,0,.06,0H6.71a.08.08,0,0,0,.06,0,.68.68,0,0,0,.05-.1l.06-.15,0-.06,0,0H7V6L7,6.15l0,.09,0,.06s0,0,.06,0h0ZM6.92,6h0l0,.06,0,.08H7Z" transform="translate(-0.37 -2.14)"/><path class="cls-2" d="M7.79,6.36H7.63s0,0,0,0V6h0l-.09.19,0,.06,0,.09h0l0,0L7.32,6h0v.26c0,.06,0,.08.08.08H7.21l.06,0s0,0,0-.06V6s0,0,0-.06h.12l.12.27,0-.05L7.62,6l0,0h.15s0,0-.06,0,0,0,0,0v.19c0,.07,0,.08,0,.09h0Z" transform="translate(-0.37 -2.14)"/><path class="cls-2" d="M6.69,6.71h0l0-.06a.1.1,0,0,0-.07,0h0v.18s0,.06,0,.12,0,0,.07.05H6.38c.06,0,.07,0,.07,0s0-.07,0-.12V6.66a.23.23,0,0,0,0,0H6.39s-.05,0-.08.09h0V6.6H6.7v.12Z" transform="translate(-0.37 -2.14)"/><path class="cls-2" d="M7.18,6.61a.08.08,0,0,0-.07,0L7,7h0V7l-.06-.15,0-.11,0-.08a.08.08,0,0,0-.06,0h.21s-.06,0-.06,0a.07.07,0,0,0,0,0l.1.24.08-.2a.12.12,0,0,0,0-.05s0,0-.06,0h.17Z" transform="translate(-0.37 -2.14)"/><path class="cls-2" d="M7.8,7H7.64a0,0,0,0,0,0,0V6.63h0l-.08.19,0,.06,0,.09h0l0-.05-.13-.29h0v.26c0,.06,0,.08.08.08H7.22l.06,0s0,0,0-.06V6.68s0,0,0-.06H7.4l.12.27,0-.05a1.85,1.85,0,0,1,.08-.18l0,0H7.8s0,0-.06,0a.09.09,0,0,0,0,0v.19c0,.07,0,.08,0,.09h0Z" transform="translate(-0.37 -2.14)"/><path class="cls-1" d="M11.64,4.48l0-.19-.18.06a4.66,4.66,0,0,1-1.36.2A4.59,4.59,0,0,1,6.16,2.36L6,2.14l-.13.22A4.59,4.59,0,0,1,2,4.55a4.68,4.68,0,0,1-1.36-.2L.44,4.29l0,.19A13.36,13.36,0,0,0,.65,8.4a13.58,13.58,0,0,0,1.46,3.87,13.86,13.86,0,0,0,1.22,1.82,14,14,0,0,0,2.61,2.53l.09.07.09-.07a14,14,0,0,0,2.61-2.53,13.76,13.76,0,0,0,1.22-1.81,13.58,13.58,0,0,0,1.42-3.69l0-.19A13.44,13.44,0,0,0,11.64,4.48Zm-3.25,1h.23V6H8.39Zm0,1.16h.23v.44H8.39ZM6.09,5a.42.42,0,0,1,.38-.16l.44.06L7.49,5A1.14,1.14,0,0,0,8,4.94V7.35a1.37,1.37,0,0,1-.5.08l-.56-.07-.46-.06a.57.57,0,0,0-.38.12Zm-2-.1A1.07,1.07,0,0,0,4.59,5l.58-.08.44-.06A.42.42,0,0,1,6,5V7.41a.57.57,0,0,0-.39-.12l-.46.06-.55.07c-.41,0-.49-.1-.49-.1S4.11,5.1,4.11,4.94Zm-.33.29L4,5.18V7.35s.12.17.58.17l.57-.08.44-.06A.43.43,0,0,1,6,7.54h.09a.42.42,0,0,1,.38-.16l.44.06.58.08c.46,0,.57-.12.58-.13V5.17l.21.06V7.63a6.51,6.51,0,0,1-.83.06,10.87,10.87,0,0,1-1.11-.08H6.3v.16a.82.82,0,0,1-.27,0,.71.71,0,0,1-.26,0V7.61H5.72a10.86,10.86,0,0,1-1.11.08,6.5,6.5,0,0,1-.83-.06Zm-.32.28h.22V6H3.47Zm0,1.16h.22v.44H3.47ZM6,16.29a13.71,13.71,0,0,1-2.46-2.4h0L6,11.48l2.47,2.4h0A13.8,13.8,0,0,1,6,16.29Zm5-7.77A13.28,13.28,0,0,1,9.7,12.09L6,8.56,2.36,12.08A13.29,13.29,0,0,1,1,8.37H11.09Z" transform="translate(-0.37 -2.14)"/></svg>