<?xml version="1.0" encoding="UTF-8"?><svg xmlns="http://www.w3.org/2000/svg" width="40" height="52" viewBox="0 0 40 52"><defs><title>Princeton University logo</title><style>.a{fill:#fff;}</style></defs><title>Princeton University logo</title><path class="a" d="M15.589,11.479c-.131,.01-.216,.08-.255,.169l-.537,1.211s-.026,.018-.043,.018-.036-.018-.049-.056c-.013-.043-.079-.212-.219-.542l-.173-.396c-.062-.146-.111-.242-.128-.272-.062-.109-.141-.118-.226-.133-.01-.013-.01-.025-.01-.036,0-.012,0-.02,.007-.035h.088c.101,0,.187,.005,.262,.005,.088,0,.236-.008,.334-.008h.059c.01,.003,.013,.023,.013,.031,0,.007,0,.03-.007,.04-.066,.007-.213,.003-.213,.096,0,.02,.003,.056,.013,.081l.353,.848,.295-.704c.036-.079,.039-.149,.039-.185,0-.08-.056-.114-.203-.133-.003-.01-.01-.023-.01-.033,0-.013,.007-.033,.01-.041h.043c.066,0,.131,.008,.278,.008,.026,0,.128-.005,.177-.005h.101c.007,.012,.013,.02,.013,.032,0,.01-.007,.032-.013,.04Z"/><path class="a" d="M17.085,12.835c-.429,0-.661-.012-.72-.012-.046,0-.151-.003-.203-.003-.059,0-.196,.01-.347,.01l-.085-.003c-.007-.012-.007-.02-.007-.032s0-.028,.003-.041c.114-.008,.196-.028,.216-.046,.023-.028,.039-.089,.046-.219,0-.066,.003-.139,.003-.214,0-.109-.003-.242-.003-.402v-.224c-.003-.157-.079-.157-.239-.176-.003-.015-.007-.028-.007-.038,0-.008,.003-.031,.013-.036h.079c.052,0,.193,.003,.462,.003,.246,0,.485,.005,.537,.005,.033,0,.128,.002,.147,.002,.033,0,.046,.003,.046,.033l.02,.325c-.02,.01-.023,.013-.039,.013-.013,0-.023,0-.033-.003-.095-.162-.141-.194-.213-.248-.026-.02-.066-.031-.125-.036-.02,0-.069-.003-.19-.003-.098,0-.147,.003-.16,.005-.016,0-.013-.002-.02,.055-.003,.035-.007,.099-.007,.288v.185h.049c.062,0,.124-.007,.16-.016,.056-.015,.115-.056,.144-.103,.013-.016,.026-.094,.033-.119,.01-.007,.026-.01,.046-.01,.013,0,.026,.003,.036,.012-.003,.058-.013,.167-.013,.306,0,.07,.007,.222,.007,.285-.013,.01-.02,.012-.039,.012-.01,0-.029-.002-.039-.005-.013-.122-.033-.205-.134-.248-.056-.023-.102-.03-.157-.03-.029,0-.065,.003-.095,.007v.374c0,.086,.007,.139,.02,.169,.01,.025,.043,.074,.085,.08,.02,.003,.056,.01,.131,.01h.203c.052,0,.128-.007,.154-.023,.049-.033,.18-.176,.226-.306,.02-.008,.029-.008,.042-.008,.013,0,.026,.003,.043,.01v.379c0,.035-.023,.04-.075,.04Z"/><path class="a" d="M18.787,11.855c-.01,0-.023-.003-.039-.005-.033-.088-.072-.169-.105-.212-.059-.073-.115-.121-.262-.139-.033-.002-.111-.002-.138-.002l-.003,.631c0,.099,0,.217,.003,.434,.003,.167,.075,.167,.246,.189,.01,.018,.013,.03,.013,.042,0,.012-.003,.023-.01,.035h-.062c-.098,0-.294-.007-.357-.007-.043,0-.259,.01-.36,.01-.01-.015-.013-.015-.013-.038,0-.012,.003-.023,.01-.038,.226-.017,.249-.06,.255-.132,.007-.046,.007-.235,.007-.427v-.523c0-.065-.003-.131-.013-.174-.043,0-.18,0-.219,.015-.114,.043-.196,.141-.285,.315-.01,.005-.026,.005-.036,.005-.013,0-.026-.005-.033-.015v-.368c0-.033,.003-.042,.043-.042,.033,0,.085,.002,.154,.002,.049,0,.255,.003,.514,.003,.341,0,.592-.008,.658-.008,.033,0,.056,0,.069,.012,.003,.007,0,.033,0,.053v.368c-.007,.013-.023,.018-.036,.018Z"/><path class="a" d="M15.52,14.097c-.013,0-.023-.003-.043-.005-.029-.088-.069-.169-.105-.212-.056-.073-.114-.121-.262-.139-.033-.002-.111-.002-.138-.002l-.003,.631c0,.099,0,.217,.003,.434,.003,.167,.079,.167,.249,.189,.01,.018,.01,.03,.01,.041,0,.012,0,.023-.007,.035h-.062c-.101,0-.298-.007-.357-.007-.043,0-.259,.01-.363,.01-.007-.015-.01-.015-.01-.038,0-.012,.003-.023,.007-.038,.226-.017,.249-.06,.259-.133,.003-.046,.003-.235,.003-.427v-.523c0-.065,0-.131-.01-.174-.043,0-.183,0-.223,.015-.115,.043-.193,.141-.282,.315-.013,.005-.029,.005-.039,.005-.013,0-.023-.005-.033-.015v-.368c0-.033,.007-.041,.043-.041s.085,.002,.154,.002c.052,0,.259,.003,.517,.003,.337,0,.592-.008,.655-.008,.036,0,.059,0,.069,.012,.007,.007,.003,.033,.003,.053v.368c-.01,.013-.023,.018-.036,.018Z"/><path class="a" d="M17.138,15.077c-.426,0-.661-.012-.717-.012-.046,0-.151-.003-.206-.003s-.196,.01-.344,.01l-.085-.003c-.007-.012-.01-.02-.01-.031,0-.012,0-.028,.007-.041,.114-.008,.196-.028,.213-.046,.026-.028,.039-.089,.046-.219,.003-.066,.007-.139,.007-.214,0-.109-.003-.242-.003-.402,0-.111-.003-.177-.003-.224-.003-.157-.075-.157-.236-.176-.007-.015-.01-.028-.01-.038,0-.008,.007-.031,.016-.036h.075c.056,0,.193,.003,.462,.003,.249,0,.484,.005,.54,.005,.029,0,.128,.002,.144,.002,.036,0,.049,.003,.049,.033l.016,.325c-.016,.01-.023,.013-.039,.013-.01,0-.02,0-.033-.003-.092-.162-.138-.194-.213-.248-.026-.02-.062-.032-.121-.036-.02,0-.069-.003-.193-.003-.095,0-.147,.003-.157,.005-.02,0-.016-.002-.023,.055,0,.035-.003,.099-.003,.288v.186h.046c.065,0,.128-.007,.16-.017,.059-.015,.114-.056,.147-.103,.01-.017,.026-.094,.029-.119,.013-.007,.029-.01,.046-.01s.029,.003,.039,.012c-.003,.058-.016,.167-.016,.306,0,.07,.01,.222,.01,.285-.016,.01-.02,.012-.039,.012-.013,0-.029-.002-.043-.005-.013-.123-.029-.205-.134-.248-.056-.023-.101-.03-.154-.03-.029,0-.065,.003-.095,.007v.374c0,.086,.007,.139,.016,.169,.013,.025,.046,.074,.085,.079,.02,.003,.059,.01,.131,.01h.206c.052,0,.124-.007,.151-.023,.052-.033,.183-.176,.229-.306,.016-.008,.029-.008,.042-.008,.01,0,.026,.003,.039,.01v.379c0,.035-.023,.04-.075,.04Z"/><path class="a" d="M18.133,15.109c-.118,0-.249-.046-.327-.086-.013-.007-.039-.012-.052-.012-.016,0-.059,.022-.105,.055-.033,0-.072-.017-.082-.043,0-.03,.026-.119,.026-.176,0-.033-.01-.194-.013-.232,.013-.02,.039-.03,.062-.03,.01,0,.016,0,.023,.002,.029,.058,.088,.214,.131,.277,.088,.104,.219,.151,.314,.151,.105,0,.183-.022,.229-.07,.065-.063,.078-.104,.078-.174,0-.051-.01-.094-.039-.129-.036-.046-.066-.066-.147-.106-.062-.03-.282-.084-.36-.128-.098-.046-.147-.086-.196-.141-.059-.076-.082-.179-.082-.26,0-.23,.18-.401,.435-.401,.095,0,.226,.008,.337,.098,.023-.026,.052-.055,.082-.081,.043,0,.072,.023,.075,.038-.003,.035-.023,.124-.023,.196,0,.038,.023,.189,.023,.212-.016,.007-.033,.02-.056,.02-.007,0-.016-.003-.026-.007-.039-.07-.075-.186-.118-.248-.066-.089-.157-.123-.282-.123-.141,0-.255,.09-.255,.212,0,.119,.095,.176,.173,.212,.059,.023,.131,.051,.213,.076,.105,.036,.183,.065,.226,.088,.164,.084,.232,.207,.232,.378,0,.263-.236,.432-.498,.432Z"/><path class="a" d="M16.09,17.323c-.429,0-.661-.012-.72-.012-.046,0-.151-.003-.203-.003-.059,0-.196,.01-.347,.01l-.085-.003c-.007-.012-.007-.02-.007-.031s0-.028,.003-.041c.115-.008,.196-.028,.216-.046,.023-.028,.039-.089,.046-.219,0-.066,.003-.139,.003-.214,0-.109-.003-.242-.003-.402v-.224c-.003-.157-.079-.157-.239-.176-.003-.015-.007-.028-.007-.038,0-.008,.003-.031,.013-.036h.079c.052,0,.193,.003,.462,.003,.245,0,.484,.005,.537,.005,.033,0,.128,.002,.147,.002,.033,0,.046,.003,.046,.033l.02,.325c-.02,.01-.023,.013-.039,.013-.013,0-.023,0-.033-.003-.095-.162-.141-.194-.213-.248-.026-.02-.066-.031-.124-.036-.02,0-.069-.003-.19-.003-.098,0-.147,.003-.16,.005-.016,0-.013-.002-.02,.055-.003,.035-.007,.099-.007,.288v.185h.049c.062,0,.124-.007,.16-.016,.056-.015,.114-.056,.144-.103,.013-.016,.026-.094,.033-.119,.01-.007,.026-.01,.046-.01,.013,0,.026,.003,.036,.012-.003,.058-.013,.167-.013,.306,0,.07,.007,.222,.007,.285-.013,.01-.02,.012-.039,.012-.01,0-.029-.002-.039-.005-.013-.122-.033-.205-.134-.248-.056-.023-.101-.03-.157-.03-.029,0-.066,.003-.095,.007v.374c0,.086,.007,.139,.02,.169,.01,.025,.043,.074,.085,.08,.02,.003,.056,.01,.131,.01h.203c.052,0,.128-.007,.154-.023,.049-.033,.18-.176,.226-.306,.02-.008,.029-.008,.043-.008s.026,.003,.043,.01v.379c0,.035-.023,.04-.075,.04Z"/><path class="a" d="M18.152,15.962c-.144,.005-.268,.084-.268,.316l-.003,.737c0,.028,.013,.237,.013,.316-.023,.015-.046,.023-.059,.023-.007,0-.02-.008-.036-.023l-.998-1.086,.01,.222,.003,.401c0,.031,.007,.106,.013,.162,.007,.089,.033,.119,.072,.152,.049,.043,.131,.056,.19,.063,.007,.012,.01,.023,.01,.033,0,.005-.003,.023-.013,.036h-.108c-.092,0-.164-.003-.259-.003-.062,0-.151,.007-.213,.007h-.046c-.003-.01-.003-.026-.003-.033s0-.02,.007-.036c.072-.007,.183-.04,.226-.099,.016-.036,.023-.103,.023-.172v-.513c0-.083-.003-.124-.007-.205-.003-.066-.016-.116-.049-.156-.003-.008-.036-.043-.069-.074-.033-.028-.111-.051-.16-.071-.007-.013-.01-.03-.01-.033,0-.008,.003-.026,.01-.036h.036c.029,0,.183,.008,.301,.008h.069c.013,.005,.036,.02,.043,.028l.74,.818c.056,.063,.128,.146,.167,.199v-.589c0-.08-.003-.136-.007-.164-.007-.061-.02-.113-.043-.154-.023-.036-.16-.056-.232-.071-.007-.015-.007-.032-.007-.043,0-.008,0-.018,.003-.032h.043c.069,0,.18,.01,.249,.01,.17,0,.223-.005,.308-.005h.056c.007,.012,.007,.026,.007,.035,0,.007,0,.023-.007,.035Z"/><path class="a" d="M22.817,11.474c-.141,.005-.268,.084-.268,.316v.737c0,.028,.01,.237,.01,.316-.02,.015-.046,.023-.056,.023-.01,0-.02-.008-.039-.023l-.998-1.086,.013,.222,.003,.401c0,.031,.007,.106,.01,.162,.01,.089,.036,.119,.072,.152,.052,.043,.134,.056,.19,.063,.007,.012,.01,.023,.01,.033,0,.005-.003,.023-.01,.036h-.111c-.088,0-.16-.003-.259-.003-.062,0-.147,.007-.21,.007h-.046c-.003-.01-.007-.026-.007-.033s0-.02,.01-.036c.069-.007,.18-.04,.223-.099,.02-.036,.023-.103,.023-.172v-.513c0-.083,0-.124-.003-.205-.003-.066-.02-.116-.049-.156-.007-.008-.036-.043-.072-.074-.029-.028-.111-.051-.16-.071l-.007-.033c0-.008,.003-.026,.007-.036h.039c.026,0,.18,.008,.298,.008h.069c.013,.005,.036,.02,.046,.028l.74,.818c.056,.063,.128,.146,.167,.199v-.59c0-.08-.007-.136-.01-.164-.003-.061-.02-.113-.043-.154-.023-.036-.16-.056-.229-.071-.007-.015-.01-.031-.01-.043,0-.008,0-.018,.007-.031h.043c.069,0,.18,.01,.249,.01,.167,0,.223-.005,.308-.005h.052c.007,.012,.01,.026,.01,.035,0,.007-.003,.023-.01,.035Z"/><path class="a" d="M24.287,12.654c-.137,.138-.327,.215-.504,.215-.167,0-.36-.073-.494-.205-.147-.142-.213-.335-.213-.545,0-.204,.066-.396,.213-.542,.157-.151,.327-.214,.498-.214,.124,0,.239,.031,.373,.106,.219,.141,.347,.376,.347,.634,0,.202-.078,.404-.219,.55Zm-.229-1.045c-.069-.094-.154-.151-.282-.151-.118,0-.193,.053-.262,.151-.085,.109-.131,.283-.131,.505,0,.219,.046,.391,.124,.502,.072,.104,.154,.157,.278,.157,.151,0,.239-.071,.308-.195,.062-.109,.092-.262,.092-.459,0-.237-.046-.402-.128-.51Z"/><path class="a" d="M26.297,11.479c-.128,.01-.213,.08-.252,.169l-.537,1.211s-.026,.018-.043,.018-.039-.018-.049-.056c-.013-.043-.079-.212-.223-.542l-.17-.396c-.062-.146-.111-.242-.128-.272-.066-.109-.141-.118-.226-.133-.013-.013-.013-.025-.013-.036,0-.012,0-.02,.01-.035h.088c.098,0,.183,.005,.259,.005,.088,0,.236-.008,.337-.008h.056c.013,.003,.016,.023,.016,.031,0,.007,0,.03-.007,.04-.069,.007-.213,.003-.213,.096,0,.02,0,.056,.013,.081l.35,.848,.298-.704c.033-.079,.036-.149,.036-.185,0-.08-.056-.114-.203-.133-.003-.01-.007-.023-.007-.033,0-.013,.003-.033,.007-.041h.043c.065,0,.131,.008,.281,.008,.023,0,.128-.005,.177-.005h.102c.007,.012,.01,.02,.01,.032,0,.01-.003,.032-.013,.04Z"/><path class="a" d="M22.356,14.097c-.013,0-.023-.003-.042-.005-.029-.088-.069-.169-.105-.212-.056-.073-.115-.121-.262-.139-.033-.002-.111-.002-.137-.002l-.003,.631c0,.099,0,.217,.003,.434,.003,.167,.078,.167,.249,.189,.01,.018,.01,.03,.01,.041,0,.012,0,.023-.007,.035h-.062c-.102,0-.298-.007-.357-.007-.043,0-.259,.01-.363,.01-.007-.015-.01-.015-.01-.038,0-.012,.003-.023,.007-.038,.226-.017,.249-.06,.259-.133,.003-.046,.003-.235,.003-.427v-.523c0-.065,0-.131-.01-.174-.043,0-.183,0-.223,.015-.115,.043-.193,.141-.282,.315-.013,.005-.029,.005-.039,.005-.013,0-.023-.005-.033-.015v-.368c0-.033,.007-.041,.042-.041s.085,.002,.154,.002c.052,0,.259,.003,.517,.003,.337,0,.593-.008,.655-.008,.036,0,.059,0,.069,.012,.007,.007,.003,.033,.003,.053v.368c-.01,.013-.023,.018-.036,.018Z"/><path class="a" d="M24.052,15.076h-.111c-.072,0-.154-.01-.239-.01-.134,0-.305,.01-.37,.01-.007-.007-.01-.02-.01-.036,0-.01,.003-.023,.007-.033,.138-.007,.193-.03,.193-.086,0-.023,0-.07-.043-.185-.043-.104-.066-.152-.075-.179-.007-.01-.01-.015-.039-.015h-.445c-.029,.035-.066,.136-.105,.273-.01,.036-.01,.07-.01,.083,0,.046,.043,.099,.2,.103,.01,.017,.01,.03,.01,.04,0,.01,0,.022-.003,.033h-.039c-.105,0-.134-.007-.246-.007-.072,0-.245,.007-.304,.007-.003-.012-.007-.017-.007-.03,0-.01,0-.02,.007-.036,.085-.018,.164-.043,.203-.104,.023-.035,.098-.167,.18-.373,.079-.19,.173-.432,.216-.533,.059-.124,.079-.166,.098-.209,.029-.063,.062-.126,.075-.149,.013-.017,.043-.027,.056-.027,.023,0,.052,.015,.062,.03,.013,.027,.029,.055,.033,.071,.082,.197,.147,.373,.249,.618,.052,.124,.079,.202,.134,.331,.039,.081,.062,.142,.102,.217,.052,.108,.137,.109,.223,.131,.003,.01,.013,.02,.013,.033s-.007,.02-.013,.033Zm-.894-1.134h-.003c-.029,.055-.082,.179-.101,.23-.075,.186-.102,.248-.115,.275h.422c-.033-.084-.141-.348-.203-.505Z"/><path class="a" d="M26.238,15.076l-.573-.007h-.157c-.007-.012-.01-.03-.01-.036,0-.018,.003-.022,.013-.036,.029-.003,.105,0,.141-.013,.059-.026,.082-.084,.082-.17v-1.03h-.003l-.301,.667c-.033,.073-.072,.152-.105,.232-.069,.156-.105,.263-.124,.325-.01,.026-.033,.026-.046,.026-.02,0-.033-.007-.043-.04-.039-.086-.066-.142-.079-.179l-.471-1.05h-.01v.268l.01,.671c0,.204,.105,.3,.265,.3,.007,.012,.013,.03,.013,.035,0,.008-.003,.023-.01,.035-.01,0-.043,.003-.072,.003-.02,0-.124-.01-.275-.01-.043,0-.131,.003-.2,.003h-.095c-.003-.012-.007-.023-.007-.035,0-.005,.003-.02,.007-.031,.039-.01,.177-.043,.206-.073,.029-.028,.056-.089,.056-.23v-.735c-.003-.118-.016-.162-.072-.202-.023-.018-.111-.028-.187-.038-.007-.013-.01-.028-.01-.04,0-.01,.003-.023,.01-.038,.056,0,.154,.005,.252,.005h.344c.013,.01,.02,.017,.029,.036l.422,.969,.075-.194c.065-.156,.16-.389,.295-.643,.029-.056,.065-.128,.085-.166l.537-.008c.007,.012,.013,.022,.013,.035,0,.015-.003,.023-.01,.036-.059,.01-.16,.01-.21,.093-.016,.027-.026,.053-.026,.171v.691c0,.265,.065,.292,.095,.311,.016,.01,.098,.02,.144,.02,.007,.013,.01,.023,.01,.036,0,.022-.007,.023-.01,.036Z"/><path class="a" d="M22.323,16.343c-.013,0-.023-.003-.043-.005-.029-.088-.069-.169-.105-.212-.056-.073-.114-.121-.262-.139-.033-.002-.111-.002-.138-.002l-.003,.631c0,.099,0,.217,.003,.434,.003,.167,.079,.167,.249,.189,.01,.018,.01,.03,.01,.041,0,.012,0,.023-.007,.035h-.062c-.101,0-.298-.007-.357-.007-.043,0-.259,.01-.363,.01-.007-.015-.01-.015-.01-.038,0-.012,.003-.023,.007-.038,.226-.017,.249-.06,.259-.133,.003-.046,.003-.235,.003-.427v-.523c0-.065,0-.131-.01-.174-.043,0-.183,0-.223,.015-.115,.043-.193,.141-.282,.315-.013,.005-.029,.005-.039,.005-.013,0-.023-.005-.033-.015v-.368c0-.033,.007-.041,.043-.041s.085,.002,.154,.002c.052,0,.259,.003,.517,.003,.337,0,.592-.008,.655-.008,.036,0,.059,0,.069,.012,.007,.007,.003,.033,.003,.053v.368c-.01,.013-.023,.018-.036,.018Z"/><path class="a" d="M24.081,15.967c-.128,.01-.213,.08-.252,.169l-.537,1.211s-.026,.018-.043,.018c-.016,0-.039-.018-.049-.056-.013-.043-.079-.212-.223-.541l-.17-.396c-.062-.146-.111-.242-.128-.272-.066-.109-.141-.118-.226-.132-.013-.013-.013-.025-.013-.036,0-.012,0-.02,.01-.035h.088c.098,0,.183,.005,.259,.005,.088,0,.236-.008,.337-.008h.056c.013,.003,.016,.023,.016,.031,0,.007,0,.03-.007,.04-.069,.007-.213,.003-.213,.096,0,.02,0,.056,.013,.081l.35,.848,.298-.704c.033-.08,.036-.149,.036-.186,0-.079-.056-.114-.203-.132-.003-.01-.007-.023-.007-.033,0-.013,.003-.033,.007-.041h.043c.066,0,.131,.008,.282,.008,.023,0,.128-.005,.177-.005h.102c.007,.012,.01,.02,.01,.032,0,.01-.003,.031-.013,.04Z"/><path class="a" d="M26.268,17.321l-.57-.007h-.16c-.007-.012-.007-.03-.007-.036,0-.018,0-.022,.01-.036,.033-.003,.105,0,.144-.013,.056-.027,.078-.084,.078-.171v-.836s.003-.151,.003-.194h-.007l-.298,.667c-.036,.073-.072,.152-.108,.232-.066,.156-.105,.263-.124,.325-.007,.027-.029,.027-.046,.027-.016,0-.029-.007-.042-.04-.036-.086-.062-.142-.075-.179l-.475-1.05h-.01v.268l.01,.671c.003,.204,.105,.3,.269,.3,.007,.012,.01,.03,.01,.035,0,.008,0,.023-.007,.035-.013,0-.043,.003-.075,.003-.02,0-.121-.01-.272-.01-.046,0-.134,.003-.2,.003h-.095c-.007-.012-.01-.023-.01-.035,0-.005,.003-.02,.01-.031,.036-.01,.177-.043,.206-.073,.026-.028,.052-.089,.052-.23l.003-.338-.003-.398c-.003-.118-.013-.162-.072-.202-.023-.018-.111-.028-.183-.038-.01-.013-.013-.028-.013-.04,0-.01,.003-.023,.013-.038,.052,0,.154,.005,.249,.005h.347c.01,.01,.02,.017,.026,.036l.422,.969,.079-.194c.062-.156,.16-.389,.295-.643,.026-.056,.065-.128,.085-.166l.534-.008c.007,.012,.016,.022,.016,.035,0,.015-.007,.023-.013,.036-.056,.01-.157,.01-.206,.093-.016,.026-.029,.053-.029,.17v.691c0,.265,.065,.291,.098,.311,.013,.01,.095,.02,.141,.02,.01,.013,.013,.023,.013,.036,0,.022-.007,.023-.013,.036Z"/><path class="a" d="M39.827,8.354l-.059-.678-.642,.197c-1.552,.479-3.17,.722-4.809,.722-5.672,0-10.98-2.993-13.851-7.812l-.465-.783-.468,.783c-2.871,4.819-8.178,7.812-13.851,7.812-1.637,0-3.254-.242-4.799-.719l-.643-.197-.059,.677c-.408,4.685-.129,9.399,.825,14.008,1,4.829,2.734,9.484,5.151,13.836,1.254,2.262,2.701,4.445,4.302,6.492,2.665,3.408,5.762,6.456,9.205,9.062l.326,.245,.326-.245c3.464-2.61,6.567-5.651,9.224-9.036,1.597-2.037,3.044-4.216,4.3-6.482,2.295-4.127,3.978-8.571,5.002-13.204l.134-.669c.962-4.647,1.247-9.36,.851-14.011Zm-11.5,3.69h.802v1.587h-.802v-1.587Zm0,4.154h.802v1.588h-.802v-1.588Zm-8.118-5.835c.013-.023,.334-.578,1.358-.578l1.549,.222,2.039,.272c.989,0,1.493-.157,1.771-.293v8.622c-.02-.043-.422,.267-1.771,.267l-1.968-.265-1.62-.228c-.7,0-1.113,.227-1.358,.434V10.362Zm-6.979-.361c.269,.136,.75,.28,1.699,.28l2.043-.273,1.545-.224c1.018,0,1.342,.548,1.359,.578v8.455c-.246-.209-.661-.437-1.372-.437l-1.62,.23-1.954,.263c-1.431,0-1.728-.35-1.732-.353,0,0,.029-7.941,.033-8.519Zm-1.165,1.048c.154-.031,.609-.129,.832-.177v7.749c.082,.177,.432,.589,2.033,.589l2.026-.27,1.548-.224c1.034,0,1.359,.556,1.375,.58l.046-.026h.239l.046,.025c.013-.023,.334-.578,1.358-.578l1.549,.222,2.039,.272c1.624,0,2.026-.432,2.069-.48l.029-7.898c.213,.06,.602,.169,.74,.209v8.561c-.412,.06-1.719,.232-2.933,.232-1.745,0-3.892-.277-3.915-.278l-.187-.026v.58c-.167,.061-.527,.176-.949,.176-.416,0-.753-.113-.91-.174v-.581l-.19,.026c-.02,.002-2.174,.278-3.905,.278-1.221,0-2.53-.172-2.94-.232V11.05Zm-1.119,.994h.786v1.587h-.786v-1.587Zm0,4.154h.786v1.588h-.786v-1.588Zm9.048,34.392c-3.231-2.491-6.161-5.363-8.678-8.579-.01-.013-.02-.03-.029-.043l8.711-8.572,8.728,8.589c-.013,.013-.023,.033-.036,.05-2.511,3.196-5.447,6.061-8.695,8.556Zm17.786-27.794c-.99,4.476-2.616,8.772-4.819,12.77l-12.964-12.617-12.95,12.591c-2.308-4.187-3.971-8.654-4.945-13.286H37.886l-.108,.543Z"/></svg>